<?xml version="1.0" encoding="utf-8"?>
<!-- Generator: Adobe Illustrator 16.0.3, SVG Export Plug-In . SVG Version: 6.00 Build 0)  -->
<!DOCTYPE svg PUBLIC "-//W3C//DTD SVG 1.1//EN" "http://www.w3.org/Graphics/SVG/1.1/DTD/svg11.dtd">
<svg version="1.1" id="Livello_1" xmlns="http://www.w3.org/2000/svg" xmlns:xlink="http://www.w3.org/1999/xlink" x="0px" y="0px"
	 width="762.55px" height="533.819px" viewBox="0 -249.05 762.55 533.819" enable-background="new 0 -249.05 762.55 533.819"
	 xml:space="preserve">
<g>
	<g>
		<path fill="none" d="M173.246,151.957"/>
	</g>
	<g>
		<g>
			<path fill="#623E30" d="M381.569,249.516c-89.792,0-174.483-22.9-238.475-64.432c-31.923-20.728-57.092-45.027-74.823-72.269
				c-18.924-29.046-28.52-60.074-28.52-92.204c0-32.126,9.596-63.127,28.52-92.187c17.731-27.234,42.9-51.551,74.823-72.251
				c63.992-41.557,148.683-64.43,238.475-64.43c89.793,0,174.499,22.873,238.486,64.43c31.909,20.7,57.073,45.017,74.812,72.251
				c18.935,29.06,28.537,60.061,28.537,92.187c0,32.13-9.603,63.148-28.537,92.204c-17.738,27.241-42.902,51.541-74.812,72.269
				C556.068,226.615,471.362,249.516,381.569,249.516z M381.569-204.29c-89.034,0-172.95,22.636-236.325,63.792
				c-31.424,20.401-56.221,44.321-73.655,71.096C53.094-41.01,43.721-10.735,43.721,20.612c0,31.351,9.373,61.66,27.868,90.041
				c17.435,26.764,42.231,50.685,73.655,71.103c63.358,41.14,147.291,63.795,236.325,63.795c89.027,0,172.96-22.655,236.317-63.795
				c31.448-20.418,56.223-44.339,73.663-71.103c18.496-28.381,27.879-58.69,27.879-90.041c0-31.347-9.383-61.622-27.879-90.014
				c-17.44-26.774-42.215-50.694-73.663-71.096C554.529-181.654,470.596-204.29,381.569-204.29z"/>
		</g>
	</g>
	<g>
		<g>
			<path fill="#623E30" d="M243.792,218.698c-56.309-16.943-104.156-43.901-138.318-77.963
				c-35.703-35.56-54.57-77.096-54.57-120.123c0-29.93,8.982-58.877,26.72-86.078c16.888-25.943,40.942-49.155,71.525-69.005
				c30.338-19.683,65.583-35.143,104.792-45.912c40.446-11.087,83.385-16.714,127.629-16.714c44.262,0,87.196,5.627,127.647,16.714
				c39.208,10.77,74.452,26.229,104.771,45.912c30.581,19.85,54.674,43.062,71.547,69.005
				c17.729,27.201,26.711,56.148,26.711,86.078c0,38.79-15.559,76.825-44.997,109.992c-28.062,31.635-68.174,58.279-116.021,77.088
				l-6.332-16.147c93.938-36.912,150.009-100.816,150.009-170.933c0-52.796-32.085-102.724-90.358-140.545
				c-59.44-38.597-138.62-59.846-222.977-59.846S218.042-158.53,158.61-119.933C100.338-82.112,68.249-32.184,68.249,20.612
				c0,38.296,17.102,75.611,49.452,107.84c32.155,32.048,77.492,57.517,131.086,73.654L243.792,218.698z"/>
		</g>
	</g>
	<g>
		<g>
			<path fill="#623E30" d="M594.715,75.899c-17.947,0-33.144-3.922-132.638,23.551c-11.046-1.512-45.003-6.142-45.003-6.142
				l42.302,7.023c0,0-27.231,8.715-40.516,11.704c-8.674,1.715-15.799-0.207-20.388-2.237c-0.509-0.305-0.983-0.647-1.481-1.003
				c-11.487-8.524,19.215-48.715,26.171-64.267c6.779-15.219,10.992-48.505-5.701-66.625c14.88,20.849,4.626,51.853-3.173,66.625
				c-8.332,15.775-35.49,53.277-26.876,66.666c5.023,7.816,13.142,10.265,34.97,8.45c22.856-1.911,59.867-12.317,67.246-14.29
				c1.373-0.38,123.668,23.462,129.281-16.013C620.327,79.373,605.375,75.899,594.715,75.899z M511.237,104.891
				c-6.819-0.384-17.327-1.086-17.327-1.086l6.568-1.962c0,0,48.729-16.962,74.633-16.962c3.368,0,18.832-0.664,18.832,5.285
				C593.943,108.829,535.208,106.259,511.237,104.891z"/>
		</g>
		<g>
			<path fill="#623E30" d="M391.646-48.705c0,0,30.384,6.447,60.938,6.447c37.821,0,122.846-32.533,163.562-25.774
				c10.496,1.752,0,21.808,0,21.808s13.286-9.205,13.286-18.615c0-15.747-15.178-16.599-35.672-16.599
				c-60.104,0-91.058,21.097-141.088,28.788C408.899-45.95,391.646-48.705,391.646-48.705z"/>
		</g>
		<g>
			<g>
				<path fill="#623E30" d="M264.176,103.924c-4.164,0.359-88.782,7.86-91.61-15.352c0-3.38,2.739-6.111,6.107-6.111
					c24.616,0,79.398,17.304,84.812,19.046c-0.528-1.807-3.825-13.327-4.287-14.914c-24.903-6.196-53.717-10.9-89.525-10.9
					c-10.662,0-25.605,3.478-24.195,13.445c4.746,33.341,92.102,21.379,119.211,16.847
					C264.69,105.985,264.232,103.904,264.176,103.924z"/>
			</g>
			<g>
				<path fill="#623E30" d="M345.533,111.831c-23.458-5.249-47.438-14.615-75.406-22.367l2.325,15.131
					c0.122-0.01,0.195-0.036,0.195-0.036s54.074,14.91,72.886,14.91c16.109,0,26.011-13.087,26.011-13.087
					S360.955,114.9,345.533,111.831z"/>
			</g>
		</g>
		<g>
			<path fill="#623E30" d="M281.278-58.051c-32.636-6.823-34.448,32.788-31.977,73.602c-29.213-94.317-55.607-96.483-78.447-96.483
				c-20.066,0-35.245,1.003-35.245,18.307c0,8.301,15.868,15.191,15.868,15.191s-9.651-12.734-4.711-18.008
				c4.29-4.563,38.807-5.811,48.459,1.505c37.024,27.974,74.387,170.054,74.387,170.054s-30.55-162.082,8.854-152.757
				c34.575,8.172,74.037,3.915,93.077-0.2C322.221-49.074,311.488-51.721,281.278-58.051z"/>
		</g>
		<g>
			<path fill="#623E30" d="M326.258-24.239c-6.067-6.094-15.561,20.721-15.561,20.721S332.982-17.52,326.258-24.239z"/>
		</g>
		<g>
			<g>
				<path fill="#623E30" d="M544.969,37.987c-9.991,7.572-17.401,11.8-22.238,12.69c-6.755,1.241-10.426,0.265-11.026-2.952
					c-0.44-2.45,0.983-5.925,4.336-10.433c1.922-2.444,4.748-6.088,8.477-10.952c1.092-1.376,2.448-2.214,4.092-2.525
					c1.515-0.291,10.979-1.65,7.321,1.807c-3.563,3.39-12.985,17.928-12.985,17.928c-0.814,1.098-1.112,2.234-0.898,3.372
					c0.262,1.418,1.637,1.885,4.142,1.428c2.513-0.447,8.613-4.362,18.301-11.731C551.708,31.119,550.068,34.122,544.969,37.987z
					 M549.468,9.406c0.21,1.207-0.407,2.438-1.867,3.701c-1.469,1.241-3.221,2.064-5.299,2.42c-1.746,0.33-3.284,0.292-4.589-0.107
					c-1.306-0.403-2.044-1.044-2.2-1.919c-0.213-1.146,0.434-2.281,1.989-3.439c1.516-1.167,3.366-1.949,5.559-2.339
					c1.624-0.315,3.071-0.289,4.325,0.037C548.617,8.101,549.305,8.636,549.468,9.406z"/>
			</g>
			<g>
				<path fill="#623E30" d="M465.994,52.562c-9.973,7.563-17.382,11.803-22.223,12.69c-6.752,1.241-10.44,0.271-11.023-2.952
					c-0.46-2.444,0.99-5.935,4.339-10.436c1.905-2.441,4.729-6.081,8.454-10.942c1.108-1.383,2.471-2.237,4.107-2.532
					c1.526-0.291,10.982-1.65,7.313,1.817c-3.546,3.38-12.977,17.907-12.977,17.907c-0.823,1.102-1.107,2.244-0.897,3.393
					c0.251,1.41,1.641,1.895,4.148,1.417c2.502-0.457,8.616-4.372,18.301-11.745C472.738,45.682,471.094,48.698,465.994,52.562z
					 M470.491,23.981c0.234,1.207-0.383,2.438-1.848,3.691c-1.471,1.251-3.229,2.054-5.308,2.454
					c-1.756,0.322-3.271,0.274-4.597-0.132c-1.308-0.407-2.04-1.04-2.203-1.916c-0.21-1.151,0.455-2.301,1.996-3.45
					c1.533-1.166,3.384-1.938,5.576-2.342c1.642-0.288,3.064-0.278,4.306,0.058C469.667,22.68,470.352,23.222,470.491,23.981z"/>
			</g>
			<g>
				<path fill="#623E30" d="M515.535,43.631c-6.62,5.084-14.847,10.216-24.642,15.436c-1.143,2.355-2.963,5.83-5.438,10.43
					c-2.484,4.613-5.471,8.437-8.958,11.497c-4.254,3.763-9.394,6.217-15.389,7.315c-4.027,0.741-7.572,0.799-10.627,0.142
					c-3.05-0.644-4.731-1.854-5.063-3.593c-0.604-3.321,3.685-7.549,12.88-12.694c6.443-3.603,13.823-6.965,22.161-10.077
					l3.729-7.26c-3.402,2.921-6.474,4.656-9.192,5.151c-7.749,1.427-12.107-0.495-13.08-5.785c-0.776-4.224,2.192-8.888,8.83-14.07
					c6.663-5.162,14.188-8.524,22.584-10.067c2.512-0.468,4.712-0.369,6.654,0.305c1.431-0.779,2.521-1.233,3.281-1.382
					c1.433-0.268,3.545-0.39,6.352-0.403c0.211-0.038,2.421-0.188,0.709,1.796c-2.56,3.048-5.421,6.593-8.559,10.64
					c-2.543,3.339-6.041,8.827-10.484,16.47c9.264-4.982,17.154-10.022,23.662-15.114C520.189,38.268,521.413,39.143,515.535,43.631
					z M479.883,63.54c-7.006,2.366-14.063,5.668-21.179,9.911c-7.714,4.573-11.348,8.149-10.866,10.704
					c0.173,0.936,0.953,1.58,2.372,1.939c1.417,0.346,3.112,0.346,5.085-0.021c5.545-1.014,10.915-4.349,16.08-9.969
					C475.24,71.949,478.064,67.774,479.883,63.54z M497.601,32.133c-0.193-1.026-1.271-1.359-3.231-0.993
					c-4.9,0.905-10.039,4.854-15.401,11.866c-4.996,6.495-7.24,11.187-6.725,14.017c0.261,1.349,1.355,1.84,3.335,1.484
					c3.708-0.682,8.501-4.918,14.398-12.7C495.394,38.546,497.936,33.99,497.601,32.133z"/>
			</g>
			<g>
				<path fill="#623E30" d="M595.617,33.306c0,0-10.996,6.376-14.738,7.063c-5.345,0.98-9.775,0.18-13.29-2.454
					c-4.125,4.03-9.016,6.563-14.663,7.617c-7.305,1.331-11.453-0.665-12.423-6c-0.776-4.102,1.905-8.575,7.979-13.487
					c6.684-5.396,15.087-9.033,25.218-10.895c3.811-0.688,6.726-0.559,8.697,0.417c1.167-1.054,2.259-1.565,3.214-1.847
					c2.096-0.614,9.403-0.488,8.148,1.162c-4.62,6.22-13.921,18.911-13.921,18.911c-1.532,2.098-2.227,3.531-2.078,4.284
					c0.189,1.092,1.499,1.403,3.898,0.97c2.803-0.513,13.992-7.583,13.992-7.583L595.617,33.306z M580.208,17.496
					c-0.23-1.305-1.502-1.745-3.794-1.321c-6.423,1.183-12.619,5.227-18.551,12.117c-5.291,6.166-7.674,10.711-7.125,13.653
					c0.332,1.811,1.566,2.498,3.756,2.099c4.362-0.793,8.349-3.38,11.928-7.772C575.794,24.734,580.401,18.477,580.208,17.496z"/>
			</g>
		</g>
		<g>
			<g>
				<path fill="#623E30" d="M360.23,19.51c-7.02,9.054-13.499,15.457-19.464,19.219c-2.453,1.522-4.125,2.35-5.046,2.546
					c0.987-3.353,1.661-5.729,1.997-7.111c0.774-3.07,1.02-6.24,0.718-9.535c-0.475-5.464-2.235-9.969-5.242-13.527
					c-3-3.545-6.545-5.199-10.604-4.973c-9.903,0.545-18.496,5.726-25.871,15.544c-7.338,9.827-10.501,20.565-9.457,32.185
					c0.438,4.789,1.973,8.955,4.638,12.528c2.91,3.951,6.373,5.833,10.309,5.592c6.402-0.346,12.725-3.301,19.002-8.873
					c5.844-5.261,10.237-11.487,13.222-18.653c12.829-5.379,23.891-17.612,27.338-23.581L360.23,19.51z M322.589,41.377
					c-3.653-0.473-7.166-5.787-7.166-5.787l-4.532-1.597c0,0,3.88,7.414,10.498,9.525c-6.901,16.873-13.375,25.469-19.414,25.805
					c-2.225,0.122-3.523-2.078-3.915-6.6c-0.668-7.285,1.763-17.843,7.304-31.648c5.805-14.809,11.437-22.361,16.907-22.649
					c2.787-0.169,4.342,1.472,4.644,4.922C327.529,20.368,326.102,29.712,322.589,41.377z"/>
			</g>
		</g>
	</g>
	<g>
		<g>
			<path fill="#623E30" d="M272.696,205.323l-4.707,16.409c-0.918-0.224-2.028-0.484-3.333-0.749l0.083-0.277
				c1.429,0.006,2.503-1.214,3.212-3.654l2.331-8.122c0.62-2.139,0.318-3.634-0.88-4.457l0.083-0.291
				C270.527,204.598,271.603,204.984,272.696,205.323z M269.134,222.068l4.729-16.427l2.72,0.58
				c1.305,0.366,2.259,1.102,2.788,2.129c0.513,1.07,0.604,2.221,0.246,3.492c-0.475,1.605-1.5,2.568-3.083,2.867
				c2.097,1.158,2.803,2.941,2.097,5.361c-0.336,1.204-1.021,2.162-2.014,2.854c-1.02,0.703-2.347,0.814-4.025,0.323
				c-0.597-0.163-1.25-0.384-1.958-0.671C270.015,222.334,269.506,222.169,269.134,222.068z M274.251,214.952l-1.556-0.458
				l-0.809,2.811c-0.563,1.97-0.701,3.268-0.44,3.905c0.284,0.383,0.799,0.69,1.517,0.897c1.217,0.34,2.187,0.238,2.912-0.318
				c0.707-0.559,1.182-1.305,1.466-2.264c0.211-0.75,0.229-1.444,0.073-2.075c-0.18-0.647-0.479-1.159-0.905-1.521
				C276.036,215.576,275.279,215.254,274.251,214.952z M273.917,210.258l-0.92,3.143l1.198,0.335
				c1.008,0.298,1.857,0.237,2.544-0.143c0.707-0.379,1.198-1.087,1.481-2.102c0.302-1.061,0.246-1.938-0.171-2.65
				c-0.425-0.702-1.042-1.173-1.857-1.403c-0.441-0.136-0.831-0.129-1.183,0.01C274.675,207.959,274.308,208.885,273.917,210.258z
				 M277.217,223.911c1.25-0.719,2.104-1.885,2.544-3.45c0.473-1.672,0.385-3.184-0.318-4.506c1.762,1.285,2.381,2.882,1.817,4.816
				c-0.266,0.937-0.797,1.695-1.532,2.266C278.946,223.627,278.116,223.911,277.217,223.911z M278.98,214.875
				c0.865-0.658,1.466-1.54,1.802-2.699c0.25-0.888,0.316-1.762,0.161-2.582c-0.161-0.83-0.424-1.438-0.831-1.834
				c0.971,0.519,1.624,1.196,1.973,2.02c0.375,0.824,0.425,1.647,0.196,2.469c-0.211,0.725-0.635,1.345-1.271,1.861
				C280.358,214.596,279.688,214.862,278.98,214.875z"/>
		</g>
		<g>
			<path fill="#623E30" d="M290.734,211.83c-1.549,1.526-2.642,3.702-3.278,6.488c-0.569,2.521-0.514,4.854,0.173,6.959
				c-1.819-1.895-2.381-4.369-1.673-7.447C286.659,214.651,288.265,212.655,290.734,211.83z M302.527,221.61
				c-0.448,1.936-1.115,3.512-1.996,4.719c-0.887,1.203-1.907,1.989-3.124,2.372c-1.169,0.417-2.453,0.472-3.831,0.163
				c-2.184-0.506-3.707-1.664-4.556-3.501c-0.847-1.858-0.969-4.143-0.351-6.901c0.652-2.851,1.768-4.901,3.334-6.156
				c1.556-1.233,3.408-1.603,5.527-1.132c2.167,0.481,3.702,1.631,4.604,3.417C303.051,216.369,303.178,218.708,302.527,221.61z
				 M301.044,221.298c1.125-5.05-0.124-7.986-3.798-8.827c-3.597-0.816-5.982,1.367-7.148,6.553
				c-1.093,4.874,0.163,7.704,3.813,8.528C297.532,228.368,299.912,226.281,301.044,221.298z M300.424,228.274
				c1.5-1.312,2.593-3.532,3.318-6.681c0.618-2.759,0.545-5.048-0.251-6.847c1.89,1.77,2.477,4.244,1.768,7.389
				C304.551,225.231,302.946,227.274,300.424,228.274z"/>
		</g>
		<g>
			<path fill="#623E30" d="M310.5,214.373l3.357,0.759l-2.844,16.85l-0.988-0.155c-0.617-0.126-1.415-0.18-2.418-0.217l0.056-0.292
				c0.83-0.173,1.444-0.587,1.851-1.21c0.407-0.654,0.742-1.739,1.003-3.254l1.288-7.641c0.268-1.634,0.234-2.746-0.1-3.336
				c-0.357-0.619-0.764-1.002-1.238-1.209L310.5,214.373z M319.572,233.419l-7.416-1.237l2.843-16.85
				c0.726,0.092,1.557,0.2,2.455,0.278c0.83,0.102,1.222,0.139,1.149,0.122l-0.036,0.287c-0.862,0.092-1.522,0.404-1.96,0.974
				c-0.458,0.593-0.792,1.538-1.006,2.81l-1.164,6.952c-0.178,1.044-0.285,1.986-0.316,2.824c-0.058,0.873-0.017,1.402,0.088,1.542
				c0.09,0.152,0.385,0.274,0.898,0.359l3.358,0.556c1.181,0.2,2.184,0.189,3.032-0.078c0.847-0.217,1.656-0.854,2.398-1.841
				l0.339,0.044c-0.162,0.505-0.529,1.262-1.132,2.298c-0.39,0.672-0.651,1.208-0.792,1.617
				C321.461,233.809,320.543,233.585,319.572,233.419z"/>
		</g>
		<g>
			<path fill="#623E30" d="M331.661,219.468c-1.395,1.701-2.242,3.973-2.576,6.813c-0.302,2.576,0.017,4.874,0.918,6.895
				c-1.995-1.685-2.808-4.095-2.459-7.233C327.919,222.705,329.297,220.549,331.661,219.468z M344.417,227.938
				c-0.205,1.97-0.703,3.597-1.46,4.901c-0.743,1.278-1.694,2.187-2.844,2.706c-1.125,0.528-2.396,0.725-3.813,0.549
				c-2.22-0.244-3.864-1.248-4.906-2.986c-1.037-1.746-1.39-4.004-1.054-6.827c0.317-2.904,1.2-5.061,2.625-6.478
				c1.434-1.383,3.235-1.963,5.382-1.695c2.207,0.234,3.852,1.211,4.961,2.896C344.402,222.67,344.773,224.983,344.417,227.938z
				 M342.918,227.776c0.601-5.152-0.987-7.938-4.712-8.362c-3.669-0.413-5.804,2.007-6.407,7.28
				c-0.564,4.963,0.994,7.661,4.695,8.077C340.185,235.192,342.337,232.86,342.918,227.776z M343.063,234.781
				c1.338-1.461,2.202-3.793,2.574-6.996c0.319-2.803,0-5.088-0.969-6.789c2.047,1.58,2.895,3.949,2.52,7.158
				C346.821,231.318,345.442,233.525,343.063,234.781z"/>
		</g>
		<g>
			<path fill="#623E30" d="M351.287,231.528l0.367,0.018c-0.015,1.396,0.458,2.572,1.429,3.531c0.969,0.952,2.102,1.481,3.407,1.569
				c1.025,0.064,1.873-0.166,2.542-0.705c0.669-0.524,1.042-1.196,1.076-1.985c0.073-0.838-0.211-1.516-0.774-2.011
				c-0.569-0.498-1.695-1.092-3.407-1.783c-1.378-0.556-2.349-0.996-2.912-1.343c-0.675-0.396-1.182-0.925-1.517-1.545
				c-0.39-0.651-0.553-1.359-0.497-2.118c0.051-0.848,0.392-1.661,1.005-2.45c-0.155,0.409-0.246,0.789-0.262,1.094
				c-0.051,0.844,0.107,1.597,0.458,2.247c0.373,0.692,0.83,1.228,1.41,1.587c0.587,0.4,1.573,0.851,2.951,1.394
				c1.8,0.681,3.105,1.393,3.862,2.118c0.759,0.719,1.093,1.627,1.027,2.731c-0.09,1.081-0.568,2.055-1.434,2.878
				c-0.896,0.848-2.15,1.214-3.813,1.105c-0.669-0.044-1.583-0.24-2.749-0.57c-1.025-0.291-1.802-0.443-2.315-0.481l-0.103-0.142
				c0.015-0.187,0.037-0.427,0.071-0.715c0.017-0.346,0.017-0.875,0-1.597c0-0.745,0-1.281,0.032-1.627
				C351.182,232.253,351.213,231.864,351.287,231.528z M363.147,225.531l-0.339-0.03c0.07-1.248-0.353-2.206-1.306-2.878
				c-0.92-0.645-2.064-1.03-3.44-1.115c-1.079-0.081-1.997,0.102-2.717,0.519c-0.748,0.413-1.13,0.933-1.188,1.601
				c-0.033,0.681,0.218,1.24,0.747,1.674c0.548,0.481,1.658,1.071,3.335,1.773c1.551,0.657,2.644,1.168,3.246,1.548
				c0.669,0.435,1.198,1.004,1.605,1.753c0.406,0.746,0.564,1.569,0.513,2.454c-0.09,1.325-0.652,2.362-1.695,3.064
				c0.39-0.488,0.619-1.187,0.687-2.085c0.054-0.868-0.084-1.647-0.441-2.352c-0.369-0.703-0.864-1.271-1.444-1.716
				c-0.603-0.454-1.59-0.956-2.967-1.529c-2.08-0.826-3.424-1.519-4.042-2.054c-0.619-0.552-0.881-1.369-0.809-2.43
				c0.083-1.238,0.63-2.163,1.673-2.807c1.042-0.6,2.468-0.844,4.287-0.723c1.254,0.086,2.737,0.383,4.5,0.93v0.118l-0.01,0.616
				c-0.023,0.326-0.041,0.715-0.041,1.174c0,0.552-0.039,1.036-0.055,1.471C363.229,224.776,363.198,225.121,363.147,225.531z"/>
		</g>
		<g>
			<path fill="#623E30" d="M380.811,223.695c-1.222,1.583-1.835,3.701-1.835,6.335c0,3.088,0.753,5.41,2.293,6.959
				c-1.167-0.472-2.081-1.349-2.771-2.634c-0.693-1.261-1.027-2.698-1.027-4.281c0-1.088,0.178-2.092,0.545-3.01
				c0.341-0.905,0.726-1.624,1.188-2.118C379.63,224.453,380.175,224.04,380.811,223.695z M394.293,234.957h0.318l-0.498,2.74
				c-1.011,0.39-1.973,0.681-2.908,0.863c-0.922,0.19-1.82,0.271-2.685,0.271c-2.63,0-4.66-0.753-6.144-2.274
				c-1.478-1.516-2.219-3.709-2.219-6.6c0-2.867,0.774-5.063,2.379-6.586c1.573-1.529,3.654-2.281,6.248-2.281
				c1.87,0,3.779,0.336,5.701,1.021c-0.088,1.373-0.122,2.162-0.122,2.409c0,0.221,0,0.462,0.017,0.676v0.379
				c0,0.572-0.037,1.091-0.088,1.61h-0.284c-0.669-3.274-2.52-4.895-5.594-4.895c-2.084,0-3.738,0.668-4.962,2.026
				c-1.231,1.339-1.851,3.271-1.851,5.8c0,2.213,0.579,4.027,1.712,5.4c1.114,1.386,2.819,2.061,5.101,2.061
				c1.23,0,2.383-0.244,3.424-0.732C392.866,236.365,393.673,235.738,394.293,234.957z"/>
		</g>
		<g>
			<path fill="#623E30" d="M411.747,233.809l-1.591-2.942l-6.104,0.329l-1.396,3.078l-0.055,0.217c-0.017,0-0.084,0.173-0.23,0.467
				c-0.193,0.482-0.295,0.95-0.261,1.417c0.051,0.82,0.532,1.394,1.443,1.669l0.024,0.305c-0.18,0.01-0.516,0-0.956-0.034
				c-0.651-0.03-1.221-0.044-1.732-0.01c-0.457,0.01-1.021,0.088-1.705,0.196c-0.464,0.07-0.766,0.128-0.921,0.128l-0.018-0.28
				c1.166-0.668,2.17-1.983,3.051-3.912l4.816-10.741c-0.44-0.813-1.037-1.424-1.8-1.841c-0.723-0.41-1.59-0.613-2.553-0.613v-0.288
				l0.563-0.03c0.512-0.014,1.199-0.027,2.095-0.014c0.922,0.014,1.538,0.014,1.803,0l9.071,16.626
				c-1.045,0.078-2.292,0.207-3.76,0.403l-0.017-0.292c0.81-0.189,1.217-0.657,1.166-1.393
				C412.648,235.704,412.342,234.89,411.747,233.809z M404.622,229.925l4.881-0.241l-2.61-4.807L404.622,229.925z M416.596,237.49
				l-9.073-16.65l1.593-0.068c0.251,0.547,0.583,1.228,1.023,2.059c0.476,0.898,0.743,1.427,0.808,1.596
				c0.058,0.095,0.115,0.207,0.162,0.326l4.217,7.697c1.464,2.664,2.969,4.24,4.505,4.762l0.01,0.285
				C418.363,237.449,417.265,237.436,416.596,237.49z"/>
		</g>
		<g>
			<path fill="#623E30" d="M423.481,231.274l0.369-0.034c0.217,1.365,0.885,2.441,1.997,3.24c1.107,0.772,2.312,1.105,3.619,0.97
				c1.004-0.092,1.8-0.458,2.381-1.095c0.579-0.627,0.83-1.35,0.741-2.146c-0.071-0.841-0.443-1.455-1.102-1.858
				c-0.644-0.393-1.864-0.789-3.65-1.186c-1.444-0.329-2.484-0.621-3.102-0.848c-0.725-0.284-1.308-0.708-1.749-1.277
				c-0.475-0.587-0.759-1.228-0.83-1.996c-0.085-0.849,0.104-1.716,0.6-2.597c-0.088,0.434-0.122,0.8-0.088,1.125
				c0.074,0.823,0.359,1.549,0.813,2.142c0.475,0.617,1.023,1.058,1.675,1.333c0.617,0.295,1.66,0.586,3.125,0.891
				c1.885,0.362,3.281,0.848,4.169,1.455c0.841,0.579,1.322,1.416,1.444,2.515c0.105,1.098-0.214,2.118-0.939,3.091
				c-0.756,0.977-1.938,1.532-3.579,1.691c-0.675,0.082-1.603,0.041-2.82-0.088c-1.047-0.115-1.82-0.149-2.349-0.115l-0.129-0.112
				c0-0.179-0.011-0.423-0.048-0.714c-0.04-0.333-0.122-0.876-0.243-1.584c-0.149-0.711-0.221-1.247-0.255-1.617
				C423.481,232.002,423.481,231.61,423.481,231.274z M434.192,223.416l-0.332,0.024c-0.122-1.251-0.726-2.122-1.749-2.62
				c-1.024-0.506-2.227-0.691-3.583-0.535c-1.074,0.088-1.956,0.42-2.593,0.945c-0.685,0.524-0.97,1.115-0.919,1.756
				c0.071,0.708,0.407,1.209,1.004,1.559c0.62,0.366,1.816,0.773,3.603,1.187c1.644,0.39,2.787,0.722,3.457,1.007
				c0.706,0.309,1.326,0.793,1.858,1.447c0.528,0.678,0.819,1.464,0.915,2.346c0.143,1.332-0.265,2.443-1.187,3.287
				c0.318-0.531,0.447-1.258,0.359-2.162c-0.088-0.871-0.376-1.617-0.834-2.247c-0.495-0.624-1.058-1.119-1.708-1.454
				c-0.671-0.346-1.716-0.682-3.18-0.993c-2.187-0.509-3.634-0.97-4.322-1.387c-0.69-0.443-1.094-1.2-1.182-2.261
				c-0.143-1.227,0.267-2.24,1.182-3.029c0.937-0.784,2.292-1.262,4.111-1.448c1.234-0.118,2.771-0.048,4.587,0.207l0.017,0.111
				l0.089,0.604c0.04,0.321,0.074,0.726,0.163,1.163c0.081,0.549,0.139,1.023,0.172,1.447
				C434.155,222.651,434.178,222.987,434.192,223.416z"/>
		</g>
		<g>
			<path fill="#623E30" d="M441.096,217.84l0.539-0.064l2.373,16.907l-1.078,0.163c-0.355,0.058-1.146,0.213-2.332,0.512
				l-0.054-0.281c0.563-0.23,0.969-0.576,1.206-1.003c0.258-0.454,0.4-0.942,0.435-1.485c0.037-0.563-0.068-1.756-0.313-3.559
				l-0.955-6.729c-0.211-1.557-0.569-2.569-1.078-3.102c-0.495-0.521-1.041-0.799-1.641-0.857l-0.021-0.277
				C438.833,218.003,439.805,217.939,441.096,217.84z M451.581,233.629l-6.427,0.905l-2.369-16.911l4.681-0.664
				c0.861-0.132,2.521-0.424,4.938-0.891c0.037,0.322,0.037,0.559,0.071,0.725c0.034,0.21,0.122,0.712,0.278,1.48
				c0.115,0.525,0.163,0.805,0.187,0.852l0.051,0.4l-0.271,0.037c-0.529-0.875-1.04-1.393-1.569-1.604
				c-0.532-0.184-1.478-0.173-2.837,0.01l-2.542,0.35c-0.407,0.057-0.776,0.143-1.111,0.236c-0.14,0.391-0.14,1.282,0.017,2.655
				l0.125,1.091l0.366,2.621l3.461-0.496c1.305-0.173,2.17-0.41,2.56-0.688c0.402-0.281,0.67-0.875,0.792-1.749l0.353-0.051
				c0.055,0.97,0.126,1.807,0.23,2.515c0.068,0.458,0.177,1.038,0.34,1.749c0.048,0.214,0.156,0.631,0.258,1.262l-0.35,0.058
				c-0.228-0.939-0.601-1.539-1.108-1.827c-0.528-0.292-1.306-0.359-2.349-0.217l-4.021,0.559l0.491,3.502
				c0.173,1.355,0.424,2.531,0.702,3.524c0.478,0,0.959-0.033,1.467-0.111l2.434-0.347c1.322-0.183,2.313-0.478,2.946-0.863
				c0.675-0.42,1.257-1.2,1.8-2.366l0.319-0.04c-0.048,0.505-0.14,1.084-0.299,1.769c-0.155,0.878-0.265,1.634-0.318,2.262
				C453.641,233.409,452.526,233.484,451.581,233.629z"/>
		</g>
		<g>
			<path fill="#623E30" d="M460.983,214.79l2.979,16.819c-0.759,0.132-1.922,0.416-3.457,0.8l-0.051-0.288
				c0.776-0.34,1.268-0.912,1.461-1.682c0.193-0.756,0.125-2.044-0.214-3.895l-1.261-7.132c-0.251-1.384-0.59-2.376-1.033-2.956
				c-0.438-0.58-1.068-0.908-1.902-0.952l-0.051-0.292C458.759,215.109,459.943,214.952,460.983,214.79z M465.166,231.396
				l-2.996-16.815c1.319-0.24,2.484-0.51,3.472-0.82l0.054,0.287c-0.601,0.23-1.064,0.662-1.376,1.289
				c-0.318,0.674-0.318,1.915,0.017,3.742l1.339,7.615c0.299,1.641,0.709,2.699,1.254,3.19c0.55,0.467,1.133,0.738,1.729,0.782
				l0.055,0.288C467.688,231.023,466.504,231.155,465.166,231.396z"/>
		</g>
		<g>
			<path fill="#623E30" d="M473.212,212.506l3.726,16.666l-0.691,0.163c-0.261,0.04-0.668,0.183-1.217,0.372
				c-0.479,0.166-1.044,0.332-1.695,0.479l-0.067-0.288c0.672-0.23,1.146-0.691,1.464-1.367c0.299-0.708,0.265-1.881-0.091-3.585
				l-1.834-8.118c-0.495-2.298-1.573-3.438-3.213-3.427l-0.048-0.278C470.23,213.044,471.463,212.838,473.212,212.506z
				 M478.542,228.819l-0.454,0.092l-3.709-16.67c0.617-0.143,1.305-0.322,2.014-0.528c0.793-0.258,1.457-0.434,1.973-0.556
				c1.443-0.329,2.61-0.129,3.512,0.607c0.915,0.734,1.502,1.721,1.783,2.999c0.494,2.196-0.109,3.792-1.817,4.816
				c0.939-0.078,1.763,0.027,2.488,0.302c0.773,0.318,1.973,1,3.62,2.064c2.519,1.627,4.427,2.298,5.731,2.017
				c0.261-0.064,0.512-0.224,0.742-0.461l0.122,0.271c-0.278,0.646-0.81,1.051-1.565,1.217c-0.801,0.18-1.698,0.071-2.698-0.347
				c-0.956-0.386-2.444-1.227-4.454-2.531c-2.394-1.584-4.532-2.163-6.406-1.752c1.251,0.098,3.074,0.959,5.488,2.582
				c1.694,1.122,3.04,1.912,4.01,2.383c0.985,0.468,1.867,0.617,2.65,0.434l0.03,0.153c-0.335,0.21-0.667,0.339-1.027,0.42
				c-1.003,0.24-1.955,0.17-2.837-0.173c-0.464-0.207-1.061-0.535-1.8-0.962c-0.742-0.455-1.66-1.045-2.738-1.78
				c-1.566-1.07-2.715-1.772-3.424-2.118c-0.772-0.356-1.48-0.56-2.152-0.634l0.848,3.755c0.565,2.522,1.623,3.716,3.176,3.604
				l0.067,0.277C480.426,228.481,479.351,228.622,478.542,228.819z M476.654,216.301l0.775,3.441
				c0.658,0.017,1.343-0.052,2.061-0.217c2.373-0.525,3.292-2.037,2.739-4.484c-0.516-2.318-1.938-3.217-4.288-2.699
				c-0.776,0.19-1.321,0.462-1.677,0.861C476.155,213.668,476.297,214.701,476.654,216.301z M484.575,218.125
				c0.44-1.244,0.529-2.515,0.247-3.83c-0.277-1.173-0.932-2.299-1.989-3.305c1.989,0.349,3.155,1.375,3.524,3.027
				C486.731,215.688,486.133,217.051,484.575,218.125z"/>
		</g>
		<g>
			<path fill="#623E30" d="M494.744,209.044c-0.672,2.092-0.624,4.516,0.159,7.292c0.688,2.484,1.833,4.498,3.44,6.033
				c-2.495-0.804-4.149-2.732-5.014-5.775C492.482,213.448,492.94,210.943,494.744,209.044z M509.739,212.098
				c0.516,1.92,0.678,3.617,0.461,5.103c-0.192,1.464-0.739,2.66-1.604,3.585c-0.847,0.902-1.955,1.549-3.318,1.93
				c-2.169,0.6-4.057,0.287-5.681-0.926c-1.606-1.24-2.786-3.197-3.546-5.912c-0.799-2.833-0.779-5.165,0.011-7.002
				c0.797-1.824,2.247-3.033,4.342-3.6c2.139-0.607,4.027-0.325,5.685,0.813C507.726,207.218,508.932,209.241,509.739,212.098z
				 M508.282,212.532c-1.397-4.996-3.889-6.993-7.525-5.989c-3.545,0.982-4.623,4.027-3.192,9.145
				c1.324,4.814,3.796,6.726,7.396,5.722C508.539,220.42,509.634,217.45,508.282,212.532z M511.027,218.955
				c0.709-1.864,0.645-4.346-0.228-7.426c-0.759-2.742-1.901-4.735-3.457-5.949c2.485,0.686,4.165,2.58,5.047,5.681
				C513.237,214.323,512.779,216.881,511.027,218.955z"/>
		</g>
		<g>
			<path fill="#623E30" d="M517.457,212.868l0.35-0.122c0.495,1.291,1.396,2.196,2.668,2.725c1.229,0.529,2.471,0.573,3.725,0.149
				c0.97-0.298,1.674-0.83,2.095-1.583c0.428-0.735,0.516-1.488,0.251-2.248c-0.251-0.796-0.739-1.32-1.484-1.576
				c-0.705-0.24-1.979-0.361-3.811-0.346c-1.484-0.016-2.563-0.066-3.213-0.158c-0.773-0.122-1.427-0.417-1.996-0.868
				c-0.598-0.458-1.004-1.036-1.251-1.772c-0.265-0.811-0.251-1.695,0.02-2.654c0.014,0.435,0.071,0.8,0.177,1.105
				c0.265,0.789,0.685,1.443,1.248,1.918c0.603,0.494,1.239,0.813,1.925,0.936c0.691,0.146,1.769,0.207,3.254,0.2
				c1.938-0.064,3.383,0.112,4.393,0.502c0.93,0.38,1.604,1.104,1.956,2.142c0.335,1.045,0.244,2.105-0.247,3.211
				c-0.512,1.114-1.554,1.918-3.122,2.453c-0.642,0.2-1.556,0.37-2.76,0.502c-1.074,0.122-1.827,0.268-2.325,0.406l-0.155-0.084
				c-0.038-0.177-0.112-0.4-0.193-0.672c-0.108-0.342-0.318-0.834-0.604-1.491c-0.277-0.681-0.481-1.177-0.583-1.524
				C517.629,213.579,517.524,213.203,517.457,212.868z M526.188,202.831l-0.315,0.122c-0.403-1.184-1.162-1.908-2.277-2.187
				c-1.111-0.257-2.309-0.176-3.62,0.244c-1.017,0.36-1.792,0.851-2.325,1.505c-0.532,0.658-0.705,1.318-0.495,1.933
				c0.207,0.657,0.651,1.085,1.306,1.292c0.691,0.223,1.942,0.348,3.759,0.379c1.694,0.01,2.895,0.088,3.62,0.214
				c0.773,0.173,1.481,0.501,2.135,1.013c0.635,0.549,1.109,1.237,1.377,2.074c0.44,1.292,0.298,2.451-0.406,3.502
				c0.192-0.604,0.139-1.342-0.143-2.22c-0.285-0.817-0.706-1.481-1.302-1.99c-0.604-0.511-1.278-0.864-1.979-1.044
				c-0.726-0.21-1.838-0.299-3.318-0.288c-2.241,0-3.759-0.132-4.52-0.406c-0.771-0.295-1.341-0.925-1.674-1.942
				c-0.394-1.166-0.213-2.247,0.509-3.227c0.726-0.96,1.979-1.719,3.688-2.299c1.206-0.379,2.704-0.65,4.555-0.8l0.014,0.108
				l0.23,0.57c0.108,0.311,0.23,0.671,0.394,1.091c0.21,0.515,0.365,0.983,0.508,1.376
				C525.999,202.116,526.083,202.442,526.188,202.831z"/>
		</g>
	</g>
	<g>
		<polygon fill="#623E30" points="144.777,79.638 135.722,-50.315 136.352,-50.352 145.413,79.594 		"/>
	</g>
	<g>
		<polygon fill="#623E30" points="191.551,73.151 191.536,-58.897 192.172,-58.897 192.182,73.151 		"/>
	</g>
	<g>
		<polygon fill="#623E30" points="150.041,76.228 141.275,-45.827 141.906,-45.872 150.677,76.18 		"/>
	</g>
	<g>
		
			<rect x="96.255" y="16.043" transform="matrix(0.0626 0.998 -0.998 0.0626 160.5319 -138.1926)" fill="#623E30" width="115.148" height="0.632"/>
	</g>
	<g>
		<polygon fill="#623E30" points="166.354,72.553 157.144,-61.897 157.772,-61.941 166.99,72.513 		"/>
	</g>
	<g>
		<polygon fill="#623E30" points="176.842,72.536 170.392,-62.779 171.027,-62.805 177.478,72.499 		"/>
	</g>
	<g>
		
			<rect x="622.782" y="-48.702" transform="matrix(0.9976 0.0696 -0.0696 0.9976 2.5797 -43.3293)" fill="#623E30" width="0.631" height="128.118"/>
	</g>
	<g>
		<rect x="571.435" y="49.932" fill="#623E30" width="0.639" height="22.873"/>
	</g>
	<g>
		<rect x="571.446" y="-59.344" fill="#623E30" width="0.634" height="64.452"/>
	</g>
	<g>
		<polygon fill="#623E30" points="613.683,76.14 613.046,76.092 621.619,-43.105 622.249,-43.061 		"/>
	</g>
	<g>
		<polygon fill="#623E30" points="606.606,73.896 605.971,73.852 614.842,-41.618 615.481,-41.567 		"/>
	</g>
	<g>
		<polygon fill="#623E30" points="597.345,72.727 596.711,72.683 605.982,-62.542 606.613,-62.505 		"/>
	</g>
	<g>
		<polygon fill="#623E30" points="586.841,72.527 586.208,72.489 587.319,49.057 587.957,49.084 		"/>
	</g>
	<g>
		<polygon fill="#623E30" points="590.254,0.908 589.625,0.874 592.626,-62.199 593.265,-62.172 		"/>
	</g>
</g>
</svg>
