<?xml version="1.0" encoding="utf-8"?>
<!-- Generator: Adobe Illustrator 16.0.3, SVG Export Plug-In . SVG Version: 6.00 Build 0)  -->
<!DOCTYPE svg PUBLIC "-//W3C//DTD SVG 1.1//EN" "http://www.w3.org/Graphics/SVG/1.1/DTD/svg11.dtd">
<svg version="1.1" id="Livello_1" xmlns="http://www.w3.org/2000/svg" xmlns:xlink="http://www.w3.org/1999/xlink" x="0px" y="0px"
	 width="762.55px" height="284.77px" viewBox="0 0 762.55 284.77" enable-background="new 0 0 762.55 284.77" xml:space="preserve">
<g>
	<path fill="#00A19B" d="M40.61,243.976v-19.791h13.252v1.93H43.208v6.932h7.326v1.929h-7.326v7.043h10.888v1.959L40.61,243.976
		L40.61,243.976z"/>
	<path fill="#00A19B" d="M81,243.976l-16.615-16.103v16.103h-2.597v-19.791h2.097c1.509,1.508,2.975,2.965,4.396,4.36
		c1.42,1.398,2.864,2.775,4.329,4.138c1.332,1.229,2.652,2.477,3.962,3.744c1.31,1.268,2.63,2.563,3.962,3.887v-16.129h2.597v19.791
		H81L81,243.976z"/>
	<path fill="#00A19B" d="M110.601,243.052c-0.666,0.225-1.354,0.43-2.064,0.614c-1.51,0.371-2.908,0.56-4.195,0.56
		c-3.707,0-6.76-0.949-9.157-2.851c-2.419-1.899-3.629-4.334-3.629-7.297c0-2.908,1.21-5.319,3.629-7.238
		c2.397-1.938,5.416-2.907,9.057-2.907c1.243,0,2.564,0.149,3.962,0.446c0.733,0.15,1.426,0.328,2.082,0.531
		c0.654,0.207,1.326,0.457,2.013,0.756v2.488c-0.843-0.43-1.598-0.762-2.263-0.994c-0.666-0.231-1.344-0.442-2.031-0.629
		c-1.265-0.354-2.62-0.531-4.062-0.531c-1.398,0-2.664,0.195-3.796,0.588c-1.132,0.392-2.165,0.97-3.096,1.732
		c-1.843,1.547-2.764,3.467-2.764,5.758c0,2.404,0.899,4.344,2.697,5.816c1.842,1.506,4.195,2.264,7.059,2.264
		c1.598,0,3.051-0.207,4.362-0.615c0.688-0.205,1.354-0.434,1.998-0.686s1.365-0.564,2.164-0.938v2.32
		C111.921,242.558,111.266,242.827,110.601,243.052z"/>
	<path fill="#00A19B" d="M142.1,234.079c0,2.89-1.2,5.293-3.597,7.213c-2.396,1.955-5.35,2.935-8.856,2.935
		c-3.507,0-6.449-0.97-8.824-2.906c-1.199-0.969-2.098-2.059-2.697-3.271c-0.6-1.209-0.899-2.53-0.899-3.969
		c0-2.889,1.188-5.293,3.563-7.209c2.397-1.959,5.35-2.938,8.857-2.938c3.529,0,6.481,0.971,8.856,2.907
		C140.9,228.778,142.1,231.19,142.1,234.079z M139.369,234.079c0-2.197-0.954-4.1-2.863-5.701c-1.864-1.584-4.151-2.377-6.859-2.377
		c-2.687,0-4.973,0.793-6.859,2.377c-1.888,1.584-2.831,3.484-2.831,5.701c0,2.236,0.933,4.137,2.797,5.703
		c1.887,1.582,4.184,2.377,6.893,2.377c2.708,0,4.995-0.795,6.859-2.377C138.415,238.179,139.369,236.278,139.369,234.079z"/>
	<path fill="#00A19B" d="M170.068,243.976l-16.615-16.103v16.103h-2.596v-19.791h2.097c1.51,1.508,2.975,2.965,4.396,4.36
		c1.42,1.398,2.863,2.775,4.329,4.138c1.332,1.229,2.652,2.477,3.962,3.744c1.309,1.268,2.631,2.563,3.963,3.887v-16.129h2.597
		v19.791H170.068L170.068,243.976z"/>
	<path fill="#00A19B" d="M191.312,226.114v17.861h-2.598v-17.834h-8.523v-1.957h19.645v1.93H191.312z"/>
	<path fill="#00A19B" d="M213.187,232.905c1.776,0,3.142-0.299,4.097-0.893c0.931-0.562,1.397-1.398,1.397-2.519
		c0-1.1-0.455-1.918-1.364-2.459c-0.978-0.615-2.299-0.922-3.964-0.922h-3.529v17.861h-2.597v-19.791h6.16
		c1.244,0,2.354,0.106,3.329,0.319c0.978,0.218,1.82,0.556,2.53,1.021c1.443,0.932,2.164,2.264,2.164,3.998
		c0,1.305-0.466,2.375-1.398,3.213c-0.775,0.672-1.619,1.156-2.529,1.455c0.244,0.147,0.488,0.334,0.731,0.559
		c0.245,0.224,0.5,0.494,0.767,0.812c0.354,0.41,0.688,0.811,1,1.201c0.311,0.391,0.621,0.782,0.931,1.174l4.696,6.039h-3.064
		l-4.129-5.396c-0.399-0.541-0.787-1.039-1.165-1.496c-0.378-0.455-0.767-0.871-1.165-1.244c-0.354-0.315-0.794-0.567-1.315-0.754
		c-0.521-0.188-1.582-0.278-1.582-0.278L213.187,232.905L213.187,232.905z"/>
	<path fill="#00A19B" d="M233.164,243.976v-19.791h13.252v1.93h-10.654v6.932h7.324v1.929h-7.324v7.043h10.888v1.959
		L233.164,243.976L233.164,243.976z"/>
	<path fill="#00A19B" d="M294.629,234.079c0,2.89-1.199,5.293-3.597,7.213c-2.396,1.955-5.35,2.935-8.857,2.935
		c-3.506,0-6.448-0.97-8.822-2.906c-1.199-0.969-2.098-2.059-2.697-3.271c-0.6-1.209-0.898-2.53-0.898-3.969
		c0-2.889,1.187-5.293,3.563-7.209c2.396-1.959,5.35-2.938,8.855-2.938c3.529,0,6.482,0.971,8.857,2.907
		C293.43,228.778,294.629,231.19,294.629,234.079z M291.898,234.079c0-2.197-0.954-4.1-2.863-5.701
		c-1.864-1.584-4.15-2.377-6.859-2.377c-2.687,0-4.972,0.793-6.857,2.377c-1.888,1.584-2.83,3.484-2.83,5.701
		c0,2.236,0.931,4.137,2.796,5.703c1.888,1.582,4.185,2.377,6.892,2.377c2.709,0,4.995-0.795,6.859-2.377
		C290.944,238.179,291.898,236.278,291.898,234.079z"/>
	<path fill="#00A19B" d="M331.255,238.776c0,1.488-0.678,2.768-2.031,3.828c-1.354,1.082-2.953,1.621-4.796,1.621
		c-1.375,0-2.63-0.224-3.762-0.668c-0.556-0.207-1.049-0.402-1.482-0.59c-0.432-0.187-0.814-0.39-1.147-0.613v-2.601
		c0.888,0.56,1.604,0.978,2.147,1.259c0.544,0.278,1.038,0.502,1.481,0.668c0.865,0.317,1.687,0.479,2.465,0.479
		c1.242,0,2.296-0.338,3.162-1.008c0.844-0.652,1.266-1.471,1.266-2.459c0-1.025-0.388-1.81-1.166-2.348
		c-0.887-0.597-2.219-1.156-3.996-1.679c-0.952-0.262-1.784-0.563-2.496-0.908c-0.709-0.346-1.286-0.702-1.731-1.075
		c-0.953-0.802-1.431-1.939-1.431-3.41c0-1.453,0.677-2.703,2.029-3.746c1.354-1.062,2.977-1.594,4.862-1.594
		c1.331,0,2.52,0.168,3.563,0.504c0.978,0.315,1.688,0.604,2.131,0.867l0.066,2.432c-0.577-0.279-1.07-0.51-1.481-0.687
		c-0.41-0.176-0.837-0.358-1.281-0.545c-0.843-0.334-1.776-0.504-2.796-0.504c-0.646,0-1.216,0.08-1.716,0.238
		c-0.499,0.16-0.96,0.396-1.382,0.713c-0.845,0.652-1.267,1.406-1.267,2.264c0,0.914,0.322,1.613,0.967,2.099
		c0.71,0.502,1.908,1.014,3.597,1.537c1.153,0.352,2.143,0.723,2.962,1.104c0.823,0.381,1.454,0.787,1.898,1.215
		C330.8,236.01,331.255,237.212,331.255,238.776z"/>
	<path fill="#00A19B" d="M338.747,243.976v-19.791h13.252v1.93h-10.654v6.932h7.325v1.929h-7.325v7.043h10.889v1.959
		L338.747,243.976L338.747,243.976z"/>
	<path fill="#00A19B" d="M376.639,241.681c-1.82,1.696-4.208,2.545-7.161,2.545c-2.905,0-5.293-0.812-7.156-2.433
		c-1.844-1.619-2.765-3.727-2.765-6.315v-11.293h2.598v11.182c0,2.104,0.653,3.766,1.965,4.976c1.332,1.213,3.129,1.817,5.394,1.817
		c2.221,0,3.985-0.625,5.295-1.873c0.645-0.635,1.138-1.365,1.482-2.195c0.343-0.827,0.516-1.784,0.516-2.864v-11.041h2.598v11.151
		C379.402,237.909,378.481,240.024,376.639,241.681z"/>
	<path fill="#00A19B" d="M406.005,246.28c-0.223,0.717-0.588,1.318-1.1,1.803c-0.488,0.467-1.043,0.83-1.664,1.09
		c-0.621,0.263-1.32,0.373-2.1,0.336l-1.465-0.057l-0.268-2.123l1.566,0.14c0.887,0,1.553-0.31,1.996-0.923
		c0.244-0.354,0.434-0.782,0.566-1.284c0.133-0.503,0.199-1.091,0.199-1.763v-19.313h2.598v19.621
		C406.337,244.737,406.226,245.563,406.005,246.28z"/>
	<path fill="#00A19B" d="M414.462,243.976v-19.791h13.252v1.93H417.06v6.932h7.324v1.929h-7.324v7.043h10.889v1.959L414.462,243.976
		L414.462,243.976z"/>
	<path fill="#00A19B" d="M435.171,243.976v-19.791h2.564v19.791H435.171z"/>
	<path fill="#00A19B" d="M456.382,226.114v17.861h-2.598v-17.834h-8.523v-1.957h19.646v1.93H456.382z"/>
	<path fill="#00A19B" d="M492.943,234.079c0,2.89-1.197,5.293-3.596,7.213c-2.396,1.955-5.352,2.935-8.857,2.935
		c-3.508,0-6.447-0.97-8.824-2.906c-1.197-0.969-2.096-2.059-2.695-3.271c-0.602-1.209-0.898-2.53-0.898-3.969
		c0-2.889,1.188-5.293,3.563-7.209c2.396-1.959,5.35-2.938,8.855-2.938c3.531,0,6.48,0.971,8.857,2.907
		C491.746,228.778,492.943,231.19,492.943,234.079z M490.212,234.079c0-2.197-0.955-4.1-2.863-5.701
		c-1.863-1.584-4.152-2.377-6.859-2.377c-2.688,0-4.973,0.793-6.857,2.377c-1.887,1.584-2.832,3.484-2.832,5.701
		c0,2.236,0.934,4.137,2.797,5.703c1.889,1.582,4.186,2.377,6.893,2.377c2.709,0,4.996-0.795,6.859-2.377
		C489.257,238.179,490.212,236.278,490.212,234.079z"/>
	<path fill="#00A19B" d="M538.326,234.108c0,2.889-1.1,5.254-3.295,7.1c-2.199,1.845-5.23,2.769-9.09,2.769h-8.76v-19.791h8.492
		c3.861,0,6.938,0.887,9.221,2.655C537.181,228.63,538.326,231.052,538.326,234.108z M535.595,234.108
		c0-2.387-0.912-4.314-2.73-5.787s-4.262-2.207-7.324-2.207h-5.76v15.932h5.66c3.063,0,5.525-0.727,7.391-2.18
		C534.673,238.431,535.595,236.513,535.595,234.108z"/>
	<path fill="#00A19B" d="M546.583,243.976v-19.791h13.252v1.93h-10.656v6.932h7.326v1.929h-7.326v7.043h10.889v1.959
		L546.583,243.976L546.583,243.976z"/>
	<path fill="#00A19B" d="M583.576,243.976v-19.791h2.563v19.791H583.576z"/>
	<path fill="#00A19B" d="M613.976,243.976l-16.615-16.103v16.103h-2.598v-19.791h2.098c1.51,1.508,2.975,2.965,4.395,4.36
		c1.422,1.398,2.863,2.775,4.33,4.138c1.33,1.229,2.652,2.477,3.961,3.744c1.311,1.267,2.631,2.563,3.963,3.887v-16.129h2.598
		v19.791H613.976L613.976,243.976z"/>
	<path fill="#00A19B" d="M649.736,234.079c0,2.89-1.197,5.293-3.596,7.213c-2.396,1.955-5.35,2.935-8.857,2.935
		c-3.506,0-6.447-0.97-8.824-2.906c-1.197-0.969-2.096-2.059-2.697-3.271c-0.598-1.209-0.896-2.53-0.896-3.969
		c0-2.889,1.188-5.293,3.563-7.209c2.398-1.959,5.35-2.938,8.857-2.938c3.529,0,6.48,0.971,8.857,2.907
		C648.539,228.778,649.736,231.19,649.736,234.079z M647.005,234.079c0-2.197-0.955-4.1-2.863-5.701
		c-1.863-1.584-4.152-2.377-6.859-2.377c-2.686,0-4.973,0.793-6.859,2.377c-1.885,1.584-2.83,3.484-2.83,5.701
		c0,2.236,0.934,4.137,2.797,5.703c1.889,1.582,4.186,2.377,6.895,2.377c2.707,0,4.994-0.795,6.857-2.377
		C646.05,238.179,647.005,236.278,647.005,234.079z"/>
	<path fill="#00A19B" d="M665.318,244.171h-1.064l-9.891-19.985h2.664l7.758,15.598l7.727-15.598h2.73L665.318,244.171z"/>
	<path fill="#00A19B" d="M685.962,227.651l-8.855,16.324h-2.766l10.889-19.933h1.498l10.82,19.933h-2.697"/>
	<path fill="#00A19B" d="M710.767,232.905c0,0,3.143-0.299,4.098-0.893c0.932-0.562,1.396-1.398,1.396-2.519
		c0-1.1-0.455-1.918-1.363-2.459c-0.979-0.615-2.299-0.922-3.965-0.922h-3.527v18.861l-2.598-1v-19.791h6.16
		c1.242,0,2.352,0.106,3.328,0.319c0.979,0.218,1.82,0.556,2.531,1.021c1.441,0.932,2.164,2.264,2.164,3.998
		c0,1.305-0.467,2.375-1.398,3.213c-0.775,0.672-1.621,1.156-2.529,1.455c0.242,0.147,0.486,0.334,0.73,0.559
		c0.244,0.224,0.5,0.494,0.768,0.812c0.355,0.41,0.688,0.811,0.998,1.201c0.313,0.391,0.621,0.782,0.934,1.174l4.693,6.039h-3.063
		l-4.129-5.396c-0.4-0.541-0.789-1.039-1.166-1.496c-0.377-0.455-0.766-0.871-1.164-1.244c-0.355-0.315-0.795-0.567-1.316-0.754
		c-0.521-0.188-1.582-0.278-1.582-0.278V232.905z"/>
</g>
<rect x="40.61" y="175.135" fill="#00A19B" width="464.386" height="32.594"/>
<g>
	<path fill="#300E0F" d="M552.191,207.722v-2.433h0.445c0.479,0,0.896-0.031,1.264-0.09c0.363-0.061,0.664-0.18,0.902-0.356
		c0.238-0.181,0.416-0.437,0.535-0.771c0.121-0.334,0.18-0.777,0.18-1.326v-23.153l-9.221,28.131h-3.104l-9.67-28.131v22.729
		c0,0.656,0.078,1.176,0.234,1.563c0.156,0.389,0.379,0.686,0.672,0.893c0.289,0.209,0.643,0.348,1.061,0.414
		c0.416,0.065,0.895,0.102,1.428,0.102h0.27v2.433h-11.344v-2.433h1.922c0.326,0,0.631-0.03,0.916-0.09
		c0.279-0.061,0.529-0.184,0.746-0.369c0.215-0.185,0.385-0.461,0.502-0.825c0.121-0.365,0.18-0.847,0.18-1.439v-22.283
		c0-0.608-0.059-1.098-0.18-1.463c-0.117-0.363-0.287-0.643-0.502-0.836c-0.217-0.193-0.467-0.326-0.746-0.393
		c-0.285-0.066-0.59-0.101-0.916-0.101h-1.922v-2.412h13.172l7.594,22.082l7.277-22.082h12.93v2.412h-1.92
		c-0.328,0-0.635,0.033-0.916,0.101c-0.283,0.065-0.527,0.204-0.738,0.414c-0.207,0.209-0.371,0.506-0.488,0.895
		c-0.121,0.385-0.18,0.908-0.18,1.561v21.859c0,0.656,0.059,1.176,0.18,1.563c0.117,0.389,0.281,0.686,0.488,0.893
		c0.211,0.209,0.455,0.348,0.738,0.414c0.281,0.066,0.588,0.102,0.916,0.102h1.92v2.433h-14.625V207.722z"/>
	<g>
		<path fill="#300E0F" d="M601.896,191.356c0,2.516-0.342,4.809-1.018,6.877c-0.678,2.068-1.676,3.84-2.992,5.313
			s-2.932,2.613-4.846,3.414c-1.912,0.806-4.111,1.207-6.598,1.207c-2.605,0-4.879-0.401-6.82-1.207
			c-1.943-0.801-3.555-1.94-4.834-3.414c-1.281-1.475-2.24-3.248-2.881-5.325c-0.641-2.076-0.959-4.38-0.959-6.91
			c0-2.529,0.318-4.826,0.959-6.888c0.641-2.063,1.604-3.819,2.893-5.28c1.287-1.459,2.9-2.586,4.846-3.383
			c1.943-0.798,4.223-1.195,6.842-1.195c2.473,0,4.664,0.397,6.576,1.195c1.912,0.797,3.521,1.928,4.836,3.395
			c1.307,1.465,2.301,3.23,2.979,5.291C601.554,186.507,601.896,188.812,601.896,191.356z M578.628,191.356
			c0,2.188,0.143,4.139,0.426,5.85c0.281,1.711,0.734,3.16,1.359,4.342c0.627,1.185,1.434,2.089,2.424,2.716
			c0.99,0.625,2.191,0.938,3.605,0.938c1.428,0,2.639-0.313,3.631-0.938c0.986-0.627,1.787-1.531,2.396-2.716
			c0.611-1.182,1.055-2.631,1.33-4.342c0.273-1.711,0.412-3.66,0.412-5.85c0-2.188-0.139-4.139-0.412-5.851
			c-0.275-1.711-0.719-3.157-1.33-4.342c-0.609-1.186-1.404-2.086-2.387-2.703c-0.984-0.614-2.182-0.926-3.598-0.926
			c-1.43,0-2.643,0.312-3.639,0.926c-0.998,0.617-1.809,1.519-2.436,2.703c-0.625,1.185-1.078,2.631-1.359,4.342
			C578.771,187.219,578.628,189.169,578.628,191.356z M583.296,171.864c0.326-0.43,0.695-0.93,1.104-1.496
			c0.41-0.563,0.822-1.149,1.238-1.752c0.416-0.604,0.809-1.205,1.174-1.811c0.363-0.601,0.664-1.154,0.902-1.662h7.189v0.469
			c-0.283,0.402-0.752,0.904-1.406,1.508c-0.654,0.604-1.389,1.232-2.199,1.887s-1.65,1.291-2.521,1.91
			c-0.871,0.617-1.664,1.136-2.379,1.551h-3.104v-0.604H583.296z"/>
	</g>
	<path fill="#300E0F" d="M636.908,177.491h-2.211c-0.207,0-0.393,0.045-0.559,0.135c-0.164,0.09-0.326,0.256-0.49,0.502
		c-0.164,0.244-0.336,0.584-0.514,1.017c-0.18,0.432-0.389,0.998-0.625,1.696l-9.334,26.882h-4.576l-9.734-28.021
		c-0.15-0.432-0.34-0.793-0.57-1.084c-0.229-0.289-0.475-0.518-0.736-0.682c-0.26-0.162-0.523-0.279-0.791-0.347
		c-0.27-0.065-0.514-0.1-0.736-0.1h-1.051v-2.412h15.096v2.412h-2.1c-0.225,0-0.439,0.027-0.648,0.078
		c-0.209,0.053-0.398,0.137-0.57,0.256c-0.17,0.121-0.309,0.275-0.412,0.471c-0.104,0.191-0.154,0.431-0.154,0.713
		c0,0.3,0.045,0.638,0.133,1.019c0.09,0.379,0.18,0.695,0.268,0.947l4.666,14.09c0.119,0.342,0.244,0.744,0.371,1.205
		c0.125,0.461,0.248,0.942,0.367,1.448c0.119,0.509,0.227,1.013,0.324,1.511c0.096,0.5,0.168,0.955,0.211,1.373
		c0.045-0.252,0.125-0.601,0.234-1.039c0.111-0.438,0.242-0.914,0.391-1.431c0.148-0.512,0.303-1.024,0.457-1.539
		c0.156-0.512,0.303-0.979,0.436-1.396l4.713-13.91c0.059-0.162,0.123-0.346,0.189-0.547s0.125-0.404,0.178-0.613
		s0.098-0.407,0.135-0.602s0.059-0.353,0.059-0.469c0-0.507-0.17-0.896-0.506-1.164c-0.334-0.267-0.777-0.4-1.326-0.4h-2.391v-2.412
		h11.813v2.412H636.908z"/>
	<path fill="#300E0F" d="M654.503,204.933h9.152c0.463,0,0.855-0.086,1.184-0.261c0.328-0.168,0.609-0.409,0.852-0.723
		c0.236-0.313,0.426-0.682,0.566-1.106c0.145-0.425,0.25-0.888,0.324-1.396l0.357-2.143h3.17l-0.334,8.416h-26.793v-2.433h1.92
		c0.326,0,0.633-0.031,0.916-0.09c0.281-0.061,0.531-0.184,0.748-0.369c0.215-0.185,0.383-0.461,0.502-0.826
		c0.117-0.364,0.178-0.846,0.178-1.438V180.46c0-0.651-0.061-1.176-0.178-1.561c-0.119-0.389-0.281-0.687-0.492-0.896
		c-0.207-0.209-0.453-0.348-0.738-0.414c-0.281-0.065-0.594-0.1-0.936-0.1h-1.92v-2.412h25.387l0.176,8.418h-3.189l-0.225-2.166
		c-0.119-1.115-0.402-1.971-0.85-2.565c-0.447-0.596-1.139-0.896-2.076-0.896h-7.701v11.433h10.852v2.747h-10.852V204.933z"/>
	<path fill="#300E0F" d="M677.634,207.722v-2.433h1.92c0.344,0,0.654-0.035,0.938-0.102c0.285-0.066,0.529-0.205,0.736-0.414
		c0.209-0.207,0.373-0.504,0.492-0.894c0.119-0.387,0.18-0.905,0.18-1.563v-21.834c0-0.656-0.061-1.178-0.18-1.566
		c-0.119-0.385-0.283-0.682-0.492-0.893c-0.207-0.209-0.451-0.346-0.736-0.412c-0.281-0.066-0.594-0.1-0.938-0.1h-1.92v-2.437
		h15.787v2.437H691.5c-0.328,0-0.635,0.032-0.928,0.1c-0.289,0.066-0.537,0.203-0.748,0.412c-0.207,0.211-0.371,0.508-0.49,0.893
		c-0.119,0.39-0.178,0.91-0.178,1.566v21.834c0,0.656,0.059,1.176,0.178,1.563c0.119,0.39,0.283,0.687,0.49,0.894
		c0.211,0.209,0.459,0.348,0.748,0.414c0.293,0.065,0.6,0.102,0.928,0.102h1.922v2.433H677.634z"/>
	<path fill="#300E0F" d="M707.496,204.774c1.365,1,3.256,1.42,4.938,1.42c2.523,0,4.834-1.471,4.834-4.572
		c0-2.783-1.418-4.36-6.252-7.305c-4.521-2.732-8.094-5.254-8.094-10.51c0-5.99,4.939-9.302,10.879-9.302
		c3.939,0,6.096,0.685,8.564,0.894c-0.42,1.893-0.736,4.52-0.893,7.619c-0.266,0.266-1.525,0.266-1.734,0.053
		c-0.475-3.152-1.053-4.676-2.314-5.57c-1.154-0.84-2.467-1.155-4.098-1.155c-3.047,0-4.834,2.26-4.834,4.78
		c0,2.42,1.209,3.892,3.361,5.361c2.207,1.418,3.996,2.313,6.098,3.627c3.469,2.154,5.412,4.465,5.412,8.25
		c0,5.412-4.416,9.932-12.297,9.932c-3.467,0-6.674-0.998-7.934-1.682c-0.527-0.787-1.525-6.412-1.631-8.25
		c0.158-0.314,1.471-0.684,1.734-0.525C704.339,201.308,705.601,203.409,707.496,204.774z"/>
</g>
<g>
	<g>
		<polygon fill="#300E0F" points="495.779,40.185 479.435,40.185 462.701,72.315 479,72.315 		"/>
		<rect x="40.185" y="40.185" fill="#300E0F" width="15.34" height="32.131"/>
		<path fill="#300E0F" d="M94.536,61.177l12.49,11.139h19.777c-2.743-2.433-5.474-4.871-8.183-7.326
			c-8.785-7.951-17.843-16.219-27.176-24.805H78.479v32.131h16.058L94.536,61.177L94.536,61.177z"/>
		<rect x="194.365" y="40.185" fill="#300E0F" width="16.057" height="32.131"/>
		<path fill="#300E0F" d="M257.499,64.032c11.287-9.008,24.967-13.514,41.039-13.514c16.207,0,29.887,4.506,41.043,13.514
			c3.277,2.619,6.068,5.383,8.402,8.283h18.813c-3.559-6.252-8.637-11.93-15.262-17.025c-14.217-11.024-31.875-16.539-52.998-16.539
			c-20.984,0-38.648,5.564-52.992,16.697c-6.551,5.033-11.574,10.658-15.1,16.867h18.695
			C251.459,69.405,254.233,66.64,257.499,64.032z"/>
		<polygon fill="#300E0F" points="386.794,40.185 370.86,40.185 387.582,72.315 403.607,72.315 		"/>
		<polygon fill="#300E0F" points="530.037,59.901 537.148,72.315 553.425,72.315 534.625,39.388 525.658,39.388 506.738,72.315 
			522.955,72.315 		"/>
		<path fill="#300E0F" d="M628.458,51.153h21.115c9.963,0,17.859,1.75,23.709,5.252c5.449,3.072,8.17,7.734,8.17,13.994
			c0,0.658-0.041,1.291-0.102,1.916h16.375c0.035-0.58,0.063-1.164,0.063-1.76c0-9.861-4.314-17.437-12.943-22.74
			c-4.258-2.648-9.301-4.584-15.146-5.803c-5.844-1.222-12.484-1.828-19.926-1.828h-36.85v32.131h15.535V51.153L628.458,51.153z"/>
	</g>
	<g>
		<rect x="40.185" y="120.638" fill="#300E0F" width="15.34" height="32.135"/>
		<rect x="78.479" y="120.638" fill="#300E0F" width="16.058" height="32.135"/>
		<path fill="#300E0F" d="M194.365,131.938c-4.171-3.813-8.318-7.57-12.453-11.301h-20.701l36.032,32.135h13.179v-32.135h-16.057
			V131.938L194.365,131.938z"/>
		<path fill="#300E0F" d="M339.581,128.915c-11.156,9.017-24.836,13.521-41.043,13.521s-29.951-4.506-41.236-13.521
			c-3.252-2.594-6.012-5.356-8.313-8.276h-18.496c3.564,6.264,8.633,11.94,15.252,17.026c14.211,11.025,31.809,16.537,52.793,16.537
			c20.988,0,38.65-5.563,52.998-16.697c6.611-5.03,11.682-10.657,15.238-16.866h-18.791
			C345.649,123.536,342.86,126.3,339.581,128.915z"/>
		<polygon fill="#300E0F" points="433.216,128.915 428.886,120.638 412.73,120.638 430.031,153.885 436.406,153.885 
			453.765,120.638 437.531,120.638 		"/>
		<polygon fill="#300E0F" points="583.236,152.772 599.373,152.772 581.021,120.638 564.828,120.638 		"/>
		<polygon fill="#300E0F" points="460.509,152.772 477.048,152.772 495.382,120.638 478.972,120.638 		"/>
		<rect x="612.921" y="120.638" fill="#300E0F" width="15.535" height="32.135"/>
		<path fill="#300E0F" d="M704.568,152.772h18.324c0,0-16.422-20.033-26.355-32.135h-17.873
			C687.861,131.995,704.568,152.772,704.568,152.772z"/>
	</g>
</g>
<g>
	<g>
		<rect x="627.21" y="80.415" fill="#00A19B" width="10.313" height="32.215"/>
		<path fill="#00A19B" d="M683.5,80.415h-10.867c-0.344,3.59-2.17,6.332-5.492,8.226c-3.789,2.254-9.211,3.379-16.262,3.379v7.176
			c0,0,4.209,0.354,6.279,1.057c2.072,0.705,3.813,1.654,5.225,2.851c1.588,1.405,3.129,2.973,4.631,4.694
			c0.375,0.435,1.891,2.295,3.947,4.834h11.865c-2.645-3.219-4.619-5.623-4.973-6.045c-1.234-1.479-2.557-2.991-3.971-4.541
			c-1.057-1.192-2.066-2.215-3.039-3.059c-0.973-0.846-1.941-1.549-2.908-2.111c3.611-1.125,6.969-2.957,10.049-5.489
			C681.39,88.472,683.224,84.815,683.5,80.415z"/>
	</g>
	<rect x="42.764" y="80.415" fill="#00A19B" width="10.181" height="32.215"/>
	<g>
		<rect x="94.536" y="80.415" fill="#00A19B" width="10.658" height="32.215"/>
		<rect x="183.708" y="80.415" fill="#00A19B" width="10.657" height="32.215"/>
		<path fill="#00A19B" d="M145.122,91.175c-4.155-3.549-8.25-7.145-12.315-10.76h-13.142l36.124,32.215h13.744
			c-2.73-2.465-5.45-4.903-8.157-7.313C156,100.534,150.583,95.815,145.122,91.175z"/>
	</g>
	<g>
		<path fill="#00A19B" d="M347.895,80.415h-12.485c3.852,4.775,5.789,10.119,5.789,16.035c0,5.979-1.976,11.369-5.904,16.18H347.8
			c2.82-4.852,4.242-10.241,4.242-16.18C352.042,90.585,350.651,85.243,347.895,80.415z"/>
		<path fill="#00A19B" d="M261.526,80.415H249.12c-2.74,4.814-4.123,10.158-4.123,16.035c0,5.42,1.191,10.414,3.572,14.988
			c0.209,0.401,0.439,0.797,0.666,1.19h12.305c-3.795-4.746-5.701-10.137-5.701-16.18C255.838,90.501,257.743,85.159,261.526,80.415
			z"/>
	</g>
	<g>
		<polygon fill="#00A19B" points="452.767,80.415 435.988,112.63 446.761,112.63 463.583,80.415 		"/>
		<polygon fill="#00A19B" points="402.912,80.415 419.673,112.63 430.402,112.63 413.544,80.415 		"/>
	</g>
	<g>
		<polygon fill="#00A19B" points="534.796,80.415 553.25,112.63 564,112.63 545.601,80.415 		"/>
		<polygon fill="#00A19B" points="514.615,80.415 496.105,112.63 506.998,112.63 525.375,80.415 		"/>
	</g>
</g>
</svg>
