<?xml version="1.0" encoding="utf-8"?>
<!-- Generator: Adobe Illustrator 16.0.3, SVG Export Plug-In . SVG Version: 6.00 Build 0)  -->
<!DOCTYPE svg PUBLIC "-//W3C//DTD SVG 1.1//EN" "http://www.w3.org/Graphics/SVG/1.1/DTD/svg11.dtd">
<svg version="1.1" id="Livello_1" xmlns="http://www.w3.org/2000/svg" xmlns:xlink="http://www.w3.org/1999/xlink" x="0px" y="0px"
	 width="762.55px" height="616.364px" viewBox="0 -331.594 762.55 616.364" enable-background="new 0 -331.594 762.55 616.364"
	 xml:space="preserve">
<g>
	<g>
		<path fill="#1D1D1B" d="M191.281,77.122c0.125,0.889,0.421,1.622,0.881,2.195c0.459,0.565,1.071,1.014,1.838,1.333v0.547
			c-0.877-0.16-1.637-0.273-2.286-0.346c-0.649-0.061-1.265-0.095-1.834-0.095c-0.642,0-1.299,0.027-1.952,0.083
			c-0.665,0.057-1.462,0.164-2.4,0.323v-0.479c0-0.202,0.183-0.444,0.547-0.718c0.251-0.209,0.456-0.399,0.593-0.566
			c0.137-0.175,0.205-0.414,0.205-0.737c0-0.019-0.015-0.057-0.034-0.106v-0.133L184.92,63.25l-6.748,17.469
			c-0.064,0.091-0.171,0.197-0.338,0.308c-0.152,0.114-0.342,0.171-0.555,0.171c-0.281,0-0.482-0.046-0.607-0.137
			c-0.129-0.091-0.247-0.225-0.357-0.41c-0.083-0.179-0.175-0.384-0.281-0.6c-0.106-0.217-0.235-0.49-0.402-0.824
			c-0.16-0.327-0.448-0.964-0.862-1.899c-0.414-0.938-1.06-2.385-1.933-4.348c-2.453-5.483-3.927-8.753-4.413-9.828l-1.694,13.94
			c-0.023,0.114-0.03,0.342-0.03,0.68c0,0.71,0.129,1.288,0.395,1.732c0.266,0.444,0.706,0.801,1.298,1.079l0.22,0.581
			c-0.744-0.114-1.507-0.202-2.282-0.255c-0.778-0.061-1.443-0.087-2.001-0.087c-0.494,0-0.999,0.026-1.534,0.068
			c-0.532,0.045-1.223,0.137-2.074,0.273l0.41-0.547c0.707-0.255,1.276-0.764,1.713-1.542c0.437-0.775,0.721-1.709,0.839-2.807
			l2.537-19.937c0-1.345-0.653-2.507-1.952-3.494v-0.41c0.805,0.091,1.504,0.152,2.074,0.175c0.573,0.019,1.306,0.034,2.18,0.034
			l9.106,21.304l6.813-17.233l1.595-4.071c0.471,0,0.874-0.007,1.2-0.019c0.334-0.011,0.881-0.038,1.645-0.083
			c0.642-0.049,1.113-0.083,1.409-0.106v0.41c-0.554,0.323-0.995,0.805-1.329,1.458c-0.327,0.649-0.486,1.306-0.486,1.971
			c0,0.065,0,0.16,0,0.273c0.015,0.114,0.026,0.194,0.026,0.239L191.281,77.122z"/>
		<path fill="#1D1D1B" d="M204.03,80.924c-1.071-0.183-2.077-0.563-3.038-1.14c-0.961-0.581-1.751-1.458-2.37-2.632
			c-0.615-1.169-0.934-2.673-0.957-4.519l-0.03-2.389c-0.046-1.455-0.061-2.423-0.061-2.901c0-0.661,0.015-1.876,0.061-3.649
			c0.022-1.618,0.03-2.913,0.03-3.889c0-0.729-0.019-1.754-0.061-3.072c-0.045-0.843-0.189-1.58-0.433-2.207
			c-0.243-0.619-0.722-1.185-1.42-1.682v-0.41c1.002,0.087,1.785,0.16,2.362,0.201c0.578,0.046,1.128,0.072,1.664,0.072
			c0.425,0,1.121-0.038,2.074-0.106c0.835-0.068,1.466-0.11,1.891-0.137v0.414c-0.577,0.319-0.995,0.835-1.245,1.553
			c-0.255,0.71-0.418,1.515-0.482,2.4c-0.061,0.87-0.103,1.766-0.11,2.7c-0.011,0.934-0.022,2.115-0.022,3.547v4.06
			c0,0.684,0.011,1.375,0.022,2.066c0.008,0.691,0.034,1.637,0.076,2.814c0.045,1.568,0.228,2.84,0.547,3.805
			c0.319,0.969,0.737,1.694,1.246,2.184c0.513,0.49,1.082,0.813,1.712,0.976c0.627,0.156,1.379,0.239,2.252,0.239
			c1.196,0,2.172-0.095,2.924-0.277c0.759-0.179,1.397-0.547,1.921-1.094c0.524-0.547,0.919-1.348,1.215-2.419
			c0.289-1.067,0.456-2.48,0.49-4.23c0.027-0.638,0.034-1.409,0.034-2.32v-1.641c0-0.296,0.012-1.318,0.03-3.068
			c0-1.185,0-2.267,0-3.243c0-1.891-0.019-3.289-0.064-4.196c-0.034-1.071-0.182-1.861-0.429-2.37
			c-0.243-0.517-0.782-1.01-1.61-1.485v-0.414c0.554,0.027,1.169,0.068,1.846,0.137c0.581,0.049,0.979,0.068,1.192,0.068
			c0.402,0,1.082-0.034,2.043-0.103c0.828-0.068,1.481-0.114,1.952-0.133v0.41c-0.661,0.364-1.109,0.813-1.345,1.348
			c-0.235,0.532-0.376,1.401-0.417,2.605c-0.065,1.436-0.099,2.951-0.106,4.557c-0.015,1.603-0.019,3.52-0.019,5.75
			c0,0.186,0,0.668,0,1.47c-0.019,0.816-0.034,1.317-0.034,1.5c0,2.483-0.25,4.477-0.756,5.992
			c-0.494,1.512-1.188,2.632-2.073,3.357c-0.885,0.729-1.887,1.204-3.019,1.435c-1.132,0.228-2.495,0.338-4.094,0.338
			C206.225,81.198,205.093,81.106,204.03,80.924z"/>
		<path fill="#1D1D1B" d="M227.209,81.03c-0.638-0.137-1.413-0.353-2.332-0.649c-0.387-0.114-0.638-0.197-0.771-0.243
			c-0.573-0.179-0.945-0.448-1.131-0.805c-0.186-0.35-0.27-0.839-0.27-1.455c0-0.023-0.015-0.137-0.038-0.346
			c-0.061-0.319-0.114-0.691-0.16-1.112c-0.045-0.422-0.061-0.816-0.061-1.185c0-0.292,0.091-0.592,0.27-0.889
			c0.182-0.296,0.49-0.444,0.908-0.444c0.197,0,0.357,0.11,0.494,0.327c0.144,0.22,0.319,0.577,0.531,1.079
			c0.319,0.801,0.597,1.348,0.832,1.644c0.558,0.688,1.272,1.257,2.161,1.717c0.885,0.456,1.641,0.684,2.279,0.684
			c0.497,0,0.987-0.099,1.488-0.289c0.505-0.197,0.98-0.493,1.428-0.896c0.444-0.399,0.802-0.908,1.071-1.523
			c0.266-0.619,0.402-1.313,0.402-2.088c0-0.759-0.145-1.451-0.418-2.089c-0.273-0.642-0.661-1.23-1.139-1.766
			c-0.479-0.54-0.995-1.033-1.549-1.496c-0.554-0.452-1.269-0.999-2.138-1.641c-0.938-0.688-1.705-1.272-2.305-1.766
			c-0.596-0.49-1.155-1.044-1.679-1.663c-0.52-0.615-0.942-1.295-1.246-2.039c-0.312-0.741-0.463-1.546-0.463-2.412
			c0-0.87,0.148-1.724,0.448-2.571c0.296-0.843,0.745-1.622,1.359-2.332c0.604-0.706,1.382-1.279,2.317-1.712
			c0.938-0.433,2.027-0.649,3.258-0.649c0.555,0,1.337,0.099,2.336,0.308c0.813,0.178,1.386,0.273,1.728,0.273
			c0.023,0,0.061-0.023,0.129-0.068c0.167-0.095,0.357-0.167,0.563-0.22c0.197-0.061,0.479-0.091,0.843-0.091
			c0.304,0,0.505,0.061,0.623,0.175c0.118,0.11,0.175,0.216,0.175,0.308c0,0.57,0.053,1.405,0.163,2.502
			c0.083,1.002,0.125,1.754,0.125,2.26c0,0.137-0.061,0.296-0.189,0.482c-0.129,0.182-0.346,0.27-0.638,0.27
			c-0.327,0-0.6-0.152-0.835-0.46s-0.501-0.748-0.797-1.321c-0.296-0.543-0.513-0.893-0.638-1.025
			c-0.596-0.547-1.246-0.949-1.937-1.2c-0.691-0.25-1.367-0.379-2.032-0.379c-0.805,0-1.568,0.364-2.267,1.101
			c-0.703,0.729-1.056,1.587-1.056,2.567c0,1.211,0.417,2.278,1.23,3.205c0.82,0.926,2.081,2.039,3.79,3.342
			c0.957,0.729,1.747,1.367,2.377,1.898c0.634,0.54,1.234,1.151,1.808,1.834c0.577,0.687,1.033,1.432,1.378,2.248
			c0.338,0.809,0.521,1.678,0.543,2.617c0,1.029-0.182,2.027-0.543,3c-0.361,0.968-0.915,1.845-1.652,2.624
			c-0.733,0.774-1.663,1.397-2.78,1.864c-1.117,0.471-2.404,0.703-3.843,0.703C228.562,81.235,227.848,81.171,227.209,81.03z"/>
		<path fill="#1D1D1B" d="M246.266,80.878c-0.585,0.046-1.371,0.125-2.343,0.239c-0.11,0-0.281,0.015-0.52,0.038v-0.76
			c0.266-0.159,0.52-0.379,0.79-0.672c0.266-0.285,0.517-0.623,0.752-1.014c0.509-0.851,0.775-1.629,0.802-2.339
			c0.038-1.743,0.061-3.186,0.061-4.317c0-1.136,0-2.75,0-4.834c0-1.743-0.023-3.52-0.061-5.332c-0.046-1.812-0.11-3.57-0.194-5.268
			c-0.042-0.755-0.258-1.45-0.638-2.081c-0.391-0.63-0.987-1.166-1.792-1.595l-0.099-0.592l0.517,0.034
			c1.23,0.137,2.267,0.243,3.099,0.308c0.828,0.072,1.474,0.106,1.914,0.106c0.349,0,0.805-0.012,1.394-0.034
			c0.589-0.023,1.295-0.053,2.126-0.106c0.407-0.019,0.714-0.042,0.927-0.064c1.576-0.11,2.692-0.175,3.354-0.175
			c0.471,0,0.889,0.007,1.253,0.019c0.361,0.011,0.737,0.045,1.12,0.106c0.38,0.057,0.703,0.148,0.953,0.273
			c0.258,0.125,0.388,0.292,0.388,0.497c0,0.577,0.053,1.219,0.159,1.929c0.064,0.528,0.095,0.938,0.095,1.238
			c0,0.064-0.072,0.159-0.209,0.273c-0.137,0.114-0.334,0.175-0.592,0.175c-0.319,0-0.547-0.072-0.684-0.205
			c-0.141-0.137-0.266-0.334-0.372-0.588c-0.061-0.114-0.106-0.182-0.122-0.205c-0.346-0.551-0.866-0.976-1.572-1.272
			c-0.703-0.296-1.8-0.448-3.292-0.448c-0.444,0-1.211,0.045-2.305,0.137l-1.021,0.103c-0.061,0.254-0.103,0.744-0.125,1.481
			c-0.019,0.296-0.042,0.558-0.061,0.793c-0.087,1.284-0.129,3.323-0.129,6.122v2.441c1.534,0.046,2.65,0.068,3.349,0.068
			c0.646,0,1.124-0.011,1.443-0.034c0.683-0.022,1.253-0.152,1.708-0.395c0.463-0.239,0.935-0.76,1.424-1.565h1.344
			c-0.022,0.319-0.049,0.68-0.095,1.067c-0.091,0.756-0.129,1.424-0.129,1.994c0,0.619,0,1.048,0,1.291
			c0,0.239,0.023,0.729,0.061,1.462h-1.375c-0.319-0.665-0.744-1.124-1.276-1.375s-1.169-0.414-1.914-0.482
			c-0.964-0.091-2.476-0.141-4.542-0.141c0,1.61,0.019,3.061,0.061,4.356c0.046,1.295,0.11,2.894,0.194,4.8
			c0.019,0.574,0.186,1.052,0.498,1.428c0.304,0.379,0.702,0.672,1.185,0.881c0.479,0.201,0.98,0.342,1.515,0.41
			c0.532,0.072,1.109,0.103,1.728,0.103c0.911,0,1.671-0.072,2.271-0.205c0.592-0.141,1.177-0.459,1.758-0.964
			c0.315-0.277,0.763-0.779,1.34-1.516c0.425-0.524,0.767-0.915,1.021-1.169c0.254-0.25,0.513-0.38,0.771-0.38
			c0.25,0,0.467,0.068,0.63,0.19c0.175,0.125,0.266,0.224,0.266,0.296c0,0.273-0.228,0.835-0.676,1.682
			c-0.532,0.983-0.862,1.743-0.991,2.271l-0.026,0.068c-0.114,0.437-0.312,0.782-0.612,1.033c-0.3,0.255-0.915,0.384-1.849,0.384
			h-4.77c-1.322,0-2.495-0.019-3.517-0.038c-1.386,0-2.332,0-2.848,0C247.359,80.81,246.854,80.829,246.266,80.878z"/>
		<path fill="#1D1D1B" d="M285.373,53.479c1.739,0.748,3.205,1.785,4.397,3.099c1.192,1.318,2.1,2.844,2.723,4.568
			c0.615,1.728,0.927,3.578,0.927,5.56c0,2.021-0.361,3.923-1.075,5.704c-0.714,1.785-1.709,3.331-2.993,4.637
			c-1.276,1.306-2.757,2.32-4.458,3.034c-1.69,0.714-3.486,1.075-5.389,1.075c-1.895,0-3.691-0.38-5.389-1.128
			c-1.694-0.748-3.175-1.792-4.455-3.133c-1.28-1.341-2.275-2.886-2.989-4.633c-0.718-1.755-1.071-3.582-1.071-5.491
			c0-1.91,0.353-3.737,1.071-5.488c0.714-1.75,1.709-3.296,2.989-4.652c1.28-1.352,2.761-2.404,4.455-3.152
			c1.697-0.752,3.494-1.128,5.389-1.128C281.681,52.351,283.641,52.727,285.373,53.479z M275.784,55.184
			c-1.135,0.543-2.134,1.321-2.974,2.332c-0.843,1.014-1.492,2.229-1.944,3.649c-0.463,1.42-0.695,2.992-0.695,4.717
			c0,1.731,0.239,3.395,0.71,4.994c0.463,1.606,1.124,3.03,1.975,4.276c0.858,1.257,1.853,2.229,2.992,2.936
			c1.14,0.702,2.362,1.052,3.657,1.052c1.363,0,2.632-0.25,3.79-0.763c1.162-0.509,2.184-1.253,3.057-2.229
			c0.874-0.976,1.55-2.161,2.028-3.547c0.482-1.386,0.721-2.932,0.721-4.637c0-2.138-0.239-4.048-0.721-5.742
			c-0.479-1.69-1.155-3.125-2.028-4.295c-0.873-1.17-1.895-2.058-3.057-2.658c-1.158-0.604-2.427-0.904-3.79-0.904
			C278.165,54.364,276.927,54.637,275.784,55.184z"/>
		<path fill="#1D1D1B" d="M320.735,63.178c-0.623-1.489-1.344-3.228-2.18-5.226l-0.539-1.261l-0.099-0.205
			c-0.338-0.881-0.691-1.591-1.063-2.123c-0.38-0.536-0.98-1.025-1.815-1.485l-0.091-0.475l0.926,0.106
			c1.511,0.133,2.567,0.201,3.167,0.201c0.744,0,2.024-0.057,3.835-0.167l0.221,0.437c-0.463,0.323-0.699,0.911-0.699,1.773
			c0,0.748,0.106,1.428,0.319,2.039c0.509,1.458,1.109,3.099,1.808,4.937c0.688,1.834,1.355,3.607,1.998,5.309
			c0.554,1.522,1.451,3.801,2.685,6.839l0.125,0.273c0.684-1.838,1.451-3.858,2.301-6.057c0.425-1.177,0.904-2.521,1.42-4.033
			c0.524-1.508,1.139-3.33,1.838-5.461c0.175-0.501,0.357-1.056,0.547-1.671c0.296-0.774,0.448-1.484,0.448-2.142
			c0-0.498-0.106-0.896-0.319-1.188c-0.212-0.296-0.623-0.513-1.223-0.649l0.228-0.547c1.641,0.182,2.901,0.273,3.775,0.273
			c0.425,0,1.139-0.034,2.142-0.103c0.854-0.064,1.526-0.114,2.021-0.133l-0.198,0.437c-0.703,0.319-1.306,0.816-1.823,1.496
			c-0.509,0.684-1.003,1.515-1.466,2.491c-0.494,1.136-0.983,2.328-1.474,3.589c-0.494,1.257-1.063,2.795-1.731,4.61
			c-0.342,0.954-0.593,1.645-0.764,2.074c-0.277,0.733-0.74,1.876-1.371,3.44c-0.684,1.656-1.33,3.262-1.937,4.819
			c-0.607,1.553-1.283,3.326-2.027,5.324c-0.05,0.095-0.156,0.194-0.319,0.304c-0.167,0.114-0.384,0.171-0.642,0.171
			c-0.262,0-0.482-0.065-0.672-0.202c-0.198-0.137-0.319-0.273-0.387-0.41c-0.334-0.953-0.76-2.07-1.276-3.353
			c-0.509-1.284-1.215-2.996-2.111-5.157c-0.486-1.158-0.866-2.077-1.146-2.753c-0.281-0.684-0.547-1.341-0.805-1.979
			C321.897,66.056,321.346,64.663,320.735,63.178z"/>
		<path fill="#1D1D1B" d="M349.703,81.075c-0.585,0.031-1.322,0.099-2.218,0.187v-0.479c0.577-0.327,1.018-0.733,1.344-1.227
			c0.319-0.494,0.486-1.113,0.505-1.85c0.049-2.297,0.065-5.738,0.065-10.314c0-1.75-0.016-3.532-0.065-5.351
			c-0.042-1.819-0.103-3.577-0.186-5.282c-0.046-0.847-0.19-1.591-0.418-2.225c-0.235-0.63-0.706-1.2-1.412-1.709v-0.41
			c0.987,0.091,1.762,0.156,2.339,0.201c0.573,0.049,1.128,0.076,1.66,0.076c0.406,0,1.09-0.038,2.047-0.11
			c0.835-0.068,1.481-0.11,1.952-0.133v0.414c-0.596,0.319-1.025,0.843-1.279,1.568c-0.255,0.721-0.418,1.534-0.475,2.434
			c-0.068,0.874-0.106,1.785-0.118,2.727c-0.011,0.942-0.019,2.138-0.019,3.585v4.113c0,3.171,0.091,6.577,0.258,10.211
			c0.064,1.561,0.695,2.658,1.891,3.281v0.479c-1.006-0.087-1.808-0.156-2.415-0.187c-0.608-0.038-1.2-0.053-1.777-0.053
			C350.849,81.023,350.291,81.038,349.703,81.075z"/>
		<path fill="#1D1D1B" d="M367.612,52.598c1.275-0.087,2.232-0.137,2.878-0.137c0.79,0,1.694,0.122,2.712,0.361
			c1.025,0.239,1.838,0.57,2.438,0.984c1.147,0.736,2.005,1.689,2.56,2.863c0.547,1.177,0.828,2.37,0.828,3.588
			c0,1.314-0.296,2.563-0.881,3.749c-0.585,1.181-1.413,2.164-2.48,2.95c-0.425,0.296-0.832,0.517-1.211,0.657
			c0.296,0.505,0.774,1.333,1.436,2.479c0.896,1.568,1.679,2.894,2.332,3.988c0.665,1.093,1.378,2.126,2.13,3.106
			c0.756,0.976,1.53,1.759,2.32,2.347c0.786,0.588,1.554,0.881,2.302,0.881c0.121,0,0.304-0.015,0.547-0.034
			c0.372-0.049,0.676-0.072,0.889-0.072c0.197,0,0.371,0.042,0.531,0.121c0.163,0.084,0.266,0.156,0.33,0.224
			c0,0.186-0.125,0.365-0.376,0.536c-0.258,0.175-0.592,0.33-1.002,0.482c-0.396,0.152-0.806,0.266-1.216,0.345
			c-0.402,0.08-0.729,0.122-0.983,0.122c-1.257,0-2.404-0.247-3.444-0.74c-1.029-0.498-1.952-1.155-2.772-1.986
			c-0.82-0.828-1.553-1.713-2.191-2.654c-0.646-0.949-1.394-2.142-2.275-3.593c-0.698-1.15-1.291-2.096-1.77-2.848
			c-0.482-0.745-0.987-1.432-1.519-2.051h-1.276c-0.277,0-0.714,0.03-1.313,0.103l-0.388,0.038c0,3.193,0.076,6.197,0.228,9.004
			c0.065,0.968,0.229,1.667,0.494,2.107c0.266,0.437,0.744,0.813,1.42,1.135v0.482c-0.995-0.087-1.808-0.152-2.43-0.186
			c-0.615-0.034-1.208-0.049-1.792-0.049c-1.272,0-2.704,0.072-4.276,0.235v-0.482c0.653-0.365,1.192-0.793,1.595-1.276
			c0.402-0.482,0.619-1.071,0.642-1.762c0.038-2.298,0.064-5.75,0.064-10.353c0-1.747-0.026-3.531-0.064-5.351
			c-0.046-1.812-0.11-3.573-0.194-5.278c-0.045-0.828-0.19-1.534-0.448-2.119c-0.251-0.589-0.752-1.09-1.504-1.504v-0.517
			c1.834,0.183,3.212,0.273,4.132,0.273C365.31,52.769,366.313,52.712,367.612,52.598z M366.746,62.571v3.832
			c0.346,0,0.813-0.011,1.417-0.034c0.482,0,0.793,0,0.923,0c2.081,0,3.532-0.49,4.329-1.466c0.797-0.98,1.2-2.605,1.2-4.884
			c0-0.968-0.197-1.906-0.592-2.81c-0.396-0.911-0.904-1.595-1.516-2.058c-0.497-0.365-1.037-0.604-1.633-0.707
			s-1.303-0.152-2.107-0.152c-0.35,0-0.885,0.045-1.633,0.137h-0.095c-0.087,0.273-0.129,0.756-0.129,1.447
			c0,0.395-0.011,0.691-0.03,0.9C366.795,57.994,366.746,59.927,366.746,62.571z"/>
		<path fill="#1D1D1B" d="M407.645,54.725c-0.509,1.109-0.82,1.906-0.927,2.407c-0.022,0.133-0.159,0.255-0.402,0.354
			s-0.448,0.152-0.585,0.152c-0.312,0-0.505-0.099-0.615-0.308c-0.103-0.198-0.179-0.494-0.22-0.881
			c-0.023-0.202-0.046-0.323-0.068-0.369c-0.062-0.319-0.187-0.551-0.365-0.695c-0.182-0.148-0.38-0.232-0.592-0.254
			c-0.51-0.019-1.322-0.038-2.431-0.038h-2.529l-0.159,2.207c-0.1,1.469-0.16,3.319-0.16,5.56c0,0.744,0.008,1.572,0.038,2.472
			c0,1.265,0,2.001,0,2.199c0,3.122,0.084,6.463,0.251,10.037c0.068,1.534,0.691,2.609,1.884,3.217v0.475
			c-0.995-0.087-1.8-0.152-2.408-0.183c-0.607-0.038-1.2-0.053-1.777-0.053c-0.527,0-1.086,0.015-1.679,0.053
			c-0.584,0.031-1.321,0.095-2.217,0.183v-0.475c0.577-0.312,1.018-0.718,1.336-1.2c0.319-0.486,0.494-1.09,0.517-1.815
			c0.038-2.259,0.062-5.635,0.062-10.132c0-2.373,0-4.359,0-5.966c0-1.606-0.023-3.231-0.062-4.88l-0.03-1.697
			c-1.108,0-2.1,0.038-2.977,0.103c-0.874,0.068-1.74,0.205-2.591,0.41c-0.254,0.068-0.558,0.19-0.907,0.372
			c-0.354,0.179-0.722,0.44-1.105,0.778c-0.045,0.023-0.121,0.091-0.224,0.205c-0.235,0.225-0.46,0.407-0.672,0.54
			c-0.213,0.137-0.456,0.205-0.737,0.205c-0.182,0-0.379-0.049-0.577-0.152c-0.189-0.103-0.288-0.175-0.288-0.224
			c0.026-0.178,0.216-0.54,0.577-1.083c0.387-0.562,0.646-0.991,0.767-1.287c0.023-0.064,0.099-0.235,0.229-0.509
			c0.364-0.722,0.6-1.322,0.702-1.796h1.341c0.216,0.25,0.402,0.406,0.577,0.475c0.167,0.068,0.471,0.114,0.896,0.141
			c1.747,0.019,4.359,0.027,7.835,0.027c1.15,0,2.95-0.042,5.403-0.133c0.87-0.023,1.759-0.045,2.65-0.068
			c0.342-0.019,0.798-0.144,1.375-0.368c0.277-0.118,0.486-0.194,0.639-0.235h1.086C408.443,52.917,408.154,53.661,407.645,54.725z"
			/>
		<path fill="#1D1D1B" d="M421.605,80.924c-1.067-0.183-2.082-0.563-3.038-1.144c-0.961-0.581-1.751-1.458-2.37-2.631
			c-0.615-1.17-0.934-2.673-0.957-4.519l-0.03-2.389c-0.046-1.458-0.061-2.423-0.061-2.905c0-0.657,0.015-1.876,0.061-3.653
			c0.022-1.614,0.03-2.909,0.03-3.889c0-0.729-0.022-1.754-0.061-3.072c-0.046-0.843-0.189-1.58-0.433-2.206
			c-0.243-0.623-0.714-1.185-1.425-1.69V52.42c0.999,0.091,1.789,0.16,2.366,0.201c0.577,0.049,1.128,0.072,1.663,0.072
			c0.426,0,1.117-0.038,2.081-0.103c0.828-0.068,1.458-0.114,1.88-0.137v0.41c-0.573,0.319-0.987,0.832-1.242,1.553
			c-0.258,0.718-0.417,1.519-0.479,2.407c-0.068,0.866-0.098,1.759-0.121,2.696c-0.008,0.935-0.008,2.115-0.008,3.551v4.063
			c0,0.684,0,1.371,0.008,2.066c0.023,0.691,0.046,1.633,0.084,2.814c0.045,1.572,0.228,2.84,0.547,3.805
			c0.318,0.968,0.732,1.697,1.241,2.187c0.513,0.49,1.09,0.813,1.713,0.973c0.63,0.159,1.379,0.243,2.256,0.243
			c1.192,0,2.172-0.095,2.924-0.277c0.76-0.183,1.397-0.547,1.918-1.094s0.931-1.352,1.219-2.423c0.289-1.071,0.448-2.48,0.494-4.23
			c0.022-0.638,0.038-1.417,0.038-2.324v-1.637c0-0.296,0.008-1.321,0.022-3.072c0-1.185,0-2.267,0-3.247
			c0-1.887-0.015-3.288-0.061-4.196c-0.046-1.07-0.19-1.86-0.433-2.373c-0.244-0.513-0.783-1.01-1.61-1.485v-0.41
			c0.554,0.023,1.169,0.068,1.845,0.137c0.578,0.045,0.977,0.064,1.193,0.064c0.398,0,1.078-0.034,2.035-0.095
			c0.836-0.068,1.488-0.118,1.959-0.141v0.406c-0.66,0.369-1.108,0.816-1.344,1.352c-0.235,0.535-0.372,1.405-0.418,2.609
			c-0.061,1.439-0.106,2.955-0.113,4.561c-0.008,1.603-0.008,3.524-0.008,5.753c0,0.179,0,0.672,0,1.466
			c-0.027,0.82-0.038,1.321-0.038,1.504c0,2.479-0.251,4.477-0.752,5.989c-0.501,1.519-1.192,2.635-2.081,3.365
			c-0.881,0.729-1.888,1.204-3.02,1.435c-1.127,0.228-2.487,0.338-4.09,0.338C423.799,81.198,422.667,81.106,421.605,80.924z"/>
		<path fill="#1D1D1B" d="M462.131,77.206c0.319,0.888,0.707,1.614,1.162,2.161c0.464,0.547,1.033,0.983,1.717,1.302v0.551
			c-0.874-0.163-1.641-0.281-2.286-0.346c-0.653-0.072-1.253-0.103-1.808-0.103c-0.661,0-1.321,0.027-1.982,0.087
			c-0.661,0.057-1.458,0.164-2.399,0.323v-0.479c0-0.163,0.144-0.437,0.417-0.824c0.403-0.57,0.608-1.033,0.608-1.371
			c0-0.228-0.027-0.475-0.084-0.737c-0.046-0.262-0.099-0.444-0.137-0.535l-2.465-7.204c-1.348-0.114-2.541-0.171-3.581-0.171
			c-1.474,0-2.734,0.057-3.774,0.171l-2.811,7.823v0.034c-0.151,0.365-0.25,0.646-0.288,0.839c-0.046,0.197-0.062,0.418-0.062,0.672
			c0,0.524,0.19,0.983,0.57,1.371v0.41c-0.722-0.114-1.337-0.189-1.819-0.243c-0.497-0.038-0.949-0.064-1.378-0.064
			c-0.486,0-1.007,0.027-1.535,0.064c-0.531,0.054-1.223,0.145-2.08,0.281l0.421-0.551c0.786-0.3,1.462-0.733,2.024-1.302
			c0.565-0.57,1.044-1.352,1.428-2.332l7.606-19.835c0.05-0.091,0.064-0.25,0.064-0.479c0-0.687-0.22-1.367-0.653-2.043
			c-0.44-0.672-1.025-1.287-1.747-1.834l-0.129-0.41c1.648,0.16,3.137,0.235,4.481,0.235h1.375l1.533,4.086L462.131,77.206z
			 M454.168,68.179v-0.103l-2.814-7.956l-3.007,7.956v0.103c1.279,0.045,2.244,0.072,2.878,0.072
			C451.871,68.251,452.851,68.225,454.168,68.179z"/>
		<path fill="#1D1D1B" d="M469.856,81.133l-0.034-0.584c0.254-0.133,0.509-0.354,0.771-0.649c0.255-0.292,0.494-0.653,0.718-1.063
			c0.229-0.41,0.402-0.832,0.543-1.269c0.137-0.437,0.205-0.82,0.205-1.158c0.046-1.735,0.068-3.175,0.068-4.303
			c0-1.131,0-2.734,0-4.811c0-1.732-0.022-3.505-0.068-5.309c-0.037-1.8-0.105-3.551-0.189-5.237
			c-0.046-0.847-0.189-1.58-0.434-2.21c-0.242-0.626-0.717-1.193-1.416-1.694v-0.414c0.999,0.091,1.789,0.16,2.366,0.205
			c0.569,0.046,1.124,0.072,1.655,0.072c0.43,0,1.124-0.038,2.081-0.106c0.828-0.068,1.454-0.11,1.888-0.137v0.414
			c-0.573,0.319-0.991,0.835-1.25,1.557c-0.258,0.717-0.417,1.522-0.479,2.411c-0.061,0.87-0.098,1.77-0.113,2.708
			c-0.016,0.935-0.016,2.123-0.016,3.559v4.079c0,1.622,0.023,3.08,0.068,4.367c0.038,1.288,0.1,2.894,0.19,4.812
			c0.068,1.144,0.425,1.922,1.101,2.347c0.676,0.421,1.596,0.634,2.765,0.634c0.79,0,1.588-0.125,2.4-0.38
			c0.806-0.251,1.519-0.638,2.142-1.162c0.365-0.296,0.813-0.893,1.345-1.785c0.319-0.524,0.589-0.916,0.813-1.181
			c0.224-0.258,0.475-0.391,0.756-0.391c0.338,0,0.558,0.068,0.664,0.205s0.16,0.277,0.16,0.414c0,0.179-0.046,0.418-0.141,0.718
			c-0.091,0.296-0.259,0.718-0.494,1.265c-0.429,1.029-0.702,1.792-0.831,2.298c-0.088,0.338-0.27,0.668-0.563,0.991
			c-0.281,0.322-0.706,0.493-1.261,0.509c-0.083,0-0.501,0.026-1.245,0.072c-1.284,0.091-2.241,0.137-2.879,0.137
			c-0.744,0-1.39-0.008-1.937-0.031c-0.543-0.023-1.23-0.061-2.066-0.106c-1.275-0.072-2.286-0.099-3.03-0.099
			C473.342,80.825,471.925,80.924,469.856,81.133z"/>
		<path fill="#1D1D1B" d="M495.36,80.878c-0.593,0.046-1.374,0.125-2.354,0.239c-0.103,0-0.273,0.015-0.509,0.038v-0.76
			c0.251-0.159,0.517-0.383,0.782-0.672c0.266-0.285,0.509-0.623,0.752-1.014c0.509-0.851,0.774-1.629,0.798-2.339
			c0.042-1.743,0.061-3.186,0.061-4.317c0-1.136,0-2.75,0-4.834c0-1.747-0.019-3.524-0.061-5.339
			c-0.038-1.808-0.106-3.566-0.19-5.263c-0.045-0.756-0.258-1.451-0.638-2.081c-0.388-0.63-0.987-1.162-1.792-1.599l-0.096-0.588
			l0.506,0.034c1.237,0.137,2.271,0.239,3.105,0.312c0.828,0.068,1.467,0.106,1.914,0.106c0.35,0,0.806-0.015,1.397-0.038
			c0.585-0.027,1.292-0.057,2.119-0.106c0.41-0.019,0.714-0.042,0.927-0.068c1.58-0.11,2.7-0.167,3.357-0.167
			c0.471,0,0.889,0,1.245,0.015c0.364,0.008,0.744,0.049,1.128,0.103c0.38,0.057,0.703,0.148,0.957,0.277
			c0.258,0.129,0.384,0.289,0.384,0.497c0,0.574,0.053,1.215,0.159,1.926c0.064,0.531,0.091,0.941,0.091,1.242
			c0,0.068-0.068,0.156-0.204,0.277c-0.141,0.11-0.335,0.171-0.589,0.171c-0.323,0-0.551-0.072-0.688-0.205
			c-0.141-0.14-0.267-0.334-0.368-0.592c-0.064-0.106-0.11-0.178-0.126-0.205c-0.342-0.546-0.865-0.968-1.572-1.268
			c-0.698-0.3-1.796-0.452-3.288-0.452c-0.448,0-1.223,0.049-2.302,0.145l-1.028,0.099c-0.062,0.254-0.104,0.748-0.126,1.477
			c-0.022,0.304-0.046,0.562-0.064,0.797c-0.087,1.284-0.125,3.327-0.125,6.122v2.441c1.53,0.046,2.65,0.072,3.356,0.072
			c0.639,0,1.113-0.011,1.436-0.034c0.68-0.022,1.254-0.152,1.717-0.398c0.455-0.243,0.927-0.76,1.42-1.565h1.341
			c-0.022,0.323-0.058,0.68-0.095,1.071c-0.088,0.752-0.129,1.42-0.129,1.994c0,0.619,0,1.048,0,1.291
			c0,0.239,0.019,0.726,0.064,1.458h-1.379c-0.319-0.661-0.744-1.12-1.283-1.375c-0.524-0.25-1.162-0.41-1.906-0.482
			c-0.965-0.087-2.477-0.137-4.542-0.137c0,1.606,0.019,3.061,0.061,4.356s0.106,2.894,0.193,4.8
			c0.016,0.574,0.183,1.052,0.498,1.428c0.308,0.379,0.702,0.672,1.177,0.881c0.486,0.201,0.987,0.342,1.526,0.41
			c0.528,0.072,1.102,0.103,1.721,0.103c0.919,0,1.675-0.072,2.267-0.205c0.601-0.141,1.189-0.459,1.767-0.964
			c0.315-0.277,0.763-0.779,1.34-1.516c0.426-0.528,0.768-0.915,1.019-1.169c0.266-0.25,0.516-0.38,0.774-0.38
			c0.254,0,0.459,0.068,0.638,0.19c0.171,0.125,0.255,0.224,0.255,0.292c0,0.277-0.225,0.839-0.673,1.686
			c-0.531,0.983-0.865,1.743-0.994,2.271l-0.023,0.068c-0.113,0.437-0.312,0.782-0.615,1.033c-0.296,0.255-0.915,0.384-1.854,0.384
			h-4.754c-1.329,0-2.499-0.019-3.524-0.038c-1.39,0-2.331,0-2.848,0C496.446,80.81,495.941,80.829,495.36,80.878z"/>
		<path fill="#1D1D1B" d="M546.938,63.85c-0.016-0.683-0.038-1.257-0.046-1.705c-0.008-0.452-0.061-1.34-0.145-2.669l-0.061-1.242
			c-0.045-0.877-0.213-1.603-0.497-2.168c-0.289-0.573-0.832-0.926-1.648-1.067v-0.319c0.171-0.216,0.433-0.383,0.768-0.501
			c0.345-0.118,0.778-0.235,1.31-0.354c0.448-0.095,0.752-0.167,0.896-0.216c0.175-0.072,0.372-0.19,0.607-0.353
			c0.35-0.266,0.729-0.456,1.17-0.589c0.437-0.129,1.139-0.193,2.127-0.193v0.391c-0.092,0.167-0.152,0.775-0.213,1.831
			c-0.054,1.056-0.092,2.206-0.125,3.452c-0.035,1.238-0.05,2.624-0.065,4.135c-0.007,1.523-0.015,2.955-0.015,4.307
			c0,3.296,0.083,6.809,0.258,10.527c0.016,0.425,0.053,0.687,0.076,0.782c0.03,0.095,0.137,0.141,0.304,0.141
			c0.046,0,0.167-0.031,0.356-0.103c0.464-0.194,0.866-0.289,1.178-0.289c0.388,0,0.653,0.11,0.801,0.323
			c0.152,0.212,0.225,0.429,0.225,0.638c0,0.239-0.189,0.509-0.559,0.801c-0.372,0.296-0.805,0.562-1.295,0.801
			c-0.387,0.209-0.813,0.387-1.283,0.517c-0.463,0.125-0.893,0.194-1.276,0.194c-0.493,0-0.964-0.091-1.42-0.285
			c-0.456-0.186-0.82-0.497-1.071-0.923c-0.6,0.426-1.271,0.771-2.016,1.029c-0.741,0.262-1.478,0.395-2.207,0.395
			c-1.025,0-1.993-0.25-2.908-0.748c-0.92-0.498-1.717-1.181-2.396-2.047c-0.684-0.866-1.212-1.85-1.599-2.947
			c-0.38-1.105-0.577-2.248-0.577-3.433c0-1.211,0.182-2.343,0.543-3.399c0.364-1.056,0.889-1.982,1.568-2.791
			c0.676-0.805,1.526-1.436,2.529-1.884c0.994-0.452,2.126-0.676,3.387-0.676C544.941,63.212,546.049,63.425,546.938,63.85z
			 M541.01,66.82c-0.749,1.056-1.136,2.484-1.136,4.284c0,0.927,0.106,1.815,0.304,2.67c0.205,0.854,0.509,1.629,0.931,2.328
			c0.414,0.703,0.923,1.253,1.53,1.656c0.615,0.403,1.306,0.604,2.097,0.604c0.516,0,0.93-0.061,1.249-0.194
			c0.315-0.133,0.619-0.349,0.893-0.657v-0.183c0.045-2.297,0.061-5.806,0.061-10.526c-0.357-0.547-0.748-0.938-1.162-1.189
			c-0.418-0.25-0.945-0.376-1.587-0.376C542.829,65.236,541.769,65.768,541.01,66.82z"/>
		<path fill="#1D1D1B" d="M571.744,70.701c-0.152,0.122-0.35,0.178-0.601,0.178c-0.129,0-0.296-0.011-0.482-0.034
			c-0.11-0.022-0.182-0.034-0.228-0.034h-9.718v0.319c0,0.972,0.106,1.91,0.326,2.814c0.205,0.904,0.524,1.712,0.935,2.442
			c0.418,0.725,0.931,1.295,1.534,1.712c0.615,0.41,1.291,0.619,2.032,0.619c0.558,0,1.066-0.114,1.537-0.357
			c0.464-0.232,0.949-0.57,1.436-0.995c0.175-0.145,0.448-0.44,0.836-0.893c0.36-0.429,0.668-0.748,0.911-0.964
			c0.243-0.212,0.482-0.319,0.718-0.319c0.346,0,0.573,0.144,0.702,0.429c0.13,0.285,0.19,0.585,0.19,0.893
			c-0.023,0.357-0.175,0.771-0.464,1.246c-0.288,0.479-0.63,0.877-1.032,1.215c-0.729,0.688-1.534,1.223-2.416,1.603
			c-0.885,0.38-1.937,0.566-3.151,0.566c-1.428,0-2.662-0.239-3.706-0.726c-1.049-0.49-1.892-1.154-2.545-1.998
			c-0.653-0.843-1.128-1.815-1.439-2.924c-0.308-1.102-0.463-2.271-0.463-3.509c0-1.215,0.186-2.351,0.559-3.422
			c0.375-1.067,0.93-2.009,1.678-2.817c0.744-0.805,1.656-1.436,2.738-1.888c1.074-0.448,2.298-0.68,3.657-0.68
			c0.597,0,1.269,0.133,2.013,0.395s1.48,0.661,2.195,1.211c0.713,0.547,1.299,1.265,1.77,2.157
			c0.471,0.893,0.706,1.944,0.706,3.156C571.971,70.382,571.895,70.579,571.744,70.701z M561.042,68.776h6.577
			c-0.129-0.019-0.197-0.091-0.22-0.213v-0.034c-0.087-0.881-0.356-1.606-0.813-2.176c-0.464-0.57-1.109-0.854-1.968-0.854
			c-0.918,0-1.655,0.224-2.225,0.676c-0.566,0.452-1.007,1.177-1.322,2.172c-0.022,0.076-0.03,0.19-0.03,0.361V68.776z"/>
		<path fill="#1D1D1B" d="M577.136,80.935c-0.593,0.034-1.33,0.103-2.226,0.201v-0.505c0.577-0.334,1.025-0.763,1.344-1.275
			c0.319-0.517,0.486-1.155,0.509-1.922c0.038-2.377,0.061-5.958,0.061-10.751c0-1.344-0.007-2.453-0.029-3.33
			c-0.023-0.87-0.076-2.123-0.16-3.752l-0.061-1.478c-0.046-0.885-0.213-1.614-0.494-2.191c-0.296-0.574-0.835-0.934-1.651-1.079
			v-0.327c0.175-0.212,0.421-0.379,0.752-0.498c0.33-0.121,0.771-0.243,1.325-0.36c0.448-0.099,0.744-0.171,0.904-0.217
			c0.166-0.072,0.353-0.193,0.569-0.36c0.342-0.239,0.736-0.433,1.185-0.578c0.444-0.14,1.162-0.212,2.142-0.212v0.391
			c-0.091,0.175-0.159,0.767-0.228,1.785c-0.061,1.018-0.114,2.222-0.145,3.611c-0.03,1.39-0.053,2.811-0.061,4.261
			c-0.008,1.451-0.016,2.856-0.016,4.227c0,3.327,0.084,6.874,0.259,10.637c0.061,1.629,0.684,2.769,1.88,3.417v0.505
			c-0.999-0.099-1.805-0.167-2.412-0.201s-1.199-0.049-1.777-0.049C578.275,80.886,577.72,80.901,577.136,80.935z"/>
		<path fill="#1D1D1B" d="M588.749,80.935c-0.593,0.034-1.325,0.103-2.222,0.201v-0.505c0.573-0.334,1.021-0.763,1.341-1.275
			c0.319-0.517,0.485-1.155,0.509-1.922c0.045-2.377,0.068-5.958,0.068-10.751c0-1.344-0.012-2.453-0.038-3.33
			c-0.015-0.87-0.068-2.123-0.151-3.752l-0.068-1.478c-0.042-0.885-0.205-1.614-0.494-2.191c-0.289-0.574-0.84-0.934-1.648-1.079
			v-0.327c0.171-0.212,0.422-0.379,0.752-0.498c0.33-0.121,0.775-0.243,1.329-0.36c0.448-0.099,0.745-0.171,0.889-0.217
			c0.175-0.072,0.364-0.193,0.585-0.36c0.334-0.239,0.729-0.433,1.174-0.578c0.451-0.14,1.162-0.212,2.146-0.212v0.391
			c-0.084,0.175-0.159,0.767-0.221,1.785c-0.068,1.018-0.114,2.222-0.151,3.611c-0.031,1.39-0.054,2.811-0.061,4.261
			c-0.008,1.451-0.016,2.856-0.016,4.227c0,3.327,0.084,6.874,0.258,10.637c0.068,1.629,0.691,2.769,1.884,3.417v0.505
			c-0.995-0.099-1.808-0.167-2.415-0.201c-0.604-0.034-1.196-0.049-1.77-0.049C589.888,80.886,589.333,80.901,588.749,80.935z"/>
		<path fill="#1D1D1B" d="M600.65,52.727c0.251,0.197,0.456,0.456,0.607,0.767c0.152,0.308,0.251,0.634,0.297,0.976
			c0.061,0.338,0.083,0.649,0.083,0.926c0,0.896-0.121,1.564-0.372,2.013c-0.243,0.448-0.722,0.885-1.451,1.314l-1.336-0.771
			c0.356-0.254,0.539-0.554,0.539-0.896c0-0.042,0-0.106,0-0.19c-0.023-0.129-0.034-0.213-0.034-0.258h-0.22
			c-0.726,0-1.28-0.216-1.645-0.653c-0.373-0.437-0.563-0.935-0.563-1.485c0-0.258,0.092-0.505,0.281-0.756
			c0.197-0.239,0.448-0.459,0.774-0.653c0.319-0.19,0.669-0.345,1.033-0.463c0.376-0.114,0.726-0.178,1.044-0.178
			C600.069,52.42,600.392,52.522,600.65,52.727z"/>
	</g>
	<g>
		<path fill="#FF5000" d="M195.098,184.823c2.836,1.292,5.248,3.062,7.238,5.317c1.982,2.259,3.494,4.818,4.511,7.709
			c1.025,2.878,1.534,5.894,1.534,9.041c0,2.586-0.345,5.04-1.037,7.367c-0.695,2.336-1.674,4.459-2.962,6.373
			c-1.28,1.91-2.795,3.573-4.557,4.975c-1.766,1.408-3.722,2.521-5.867,3.353c2.252,0.798,5.431,2.074,9.551,3.813
			c5.32,2.274,9.76,3.972,13.326,5.088c3.562,1.128,7.238,1.683,11.051,1.683c1.526,0,2.905-0.228,4.147-0.68
			c1.253-0.46,2.51-1.253,3.793-2.396c0.064-0.038,0.247-0.125,0.543-0.258c0.296-0.129,0.562-0.194,0.805-0.194
			c0.38,0,0.76,0.118,1.136,0.346l0.053,0.058c0,0.034-0.064,0.141-0.208,0.312c-0.129,0.167-0.38,0.402-0.722,0.714
			c-2.047,1.963-4.458,3.55-7.238,4.743c-2.788,1.195-5.579,1.792-8.385,1.792c-4.109,0-7.967-0.706-11.56-2.13
			c-3.6-1.425-7.61-3.445-12.031-6.058c-2.772-1.637-5.146-2.882-7.112-3.76c-1.971-0.869-4.067-1.386-6.277-1.53
			c-3.114-0.193-6.031-0.858-8.765-2.023c-2.734-1.151-5.131-2.738-7.185-4.747c-2.058-2.013-3.665-4.409-4.823-7.196
			c-1.158-2.791-1.739-5.829-1.739-9.126c0-3.186,0.604-6.266,1.815-9.251c1.211-2.973,2.901-5.608,5.081-7.906
			c2.18-2.286,4.675-4.09,7.497-5.399c2.817-1.311,5.765-1.964,8.84-1.964C189.083,182.887,192.265,183.532,195.098,184.823z
			 M170.927,214.376c0.797,2.594,1.925,4.854,3.402,6.767c1.462,1.914,3.194,3.403,5.184,4.463c1.99,1.06,4.147,1.595,6.463,1.595
			c4.599,0,8.268-1.735,11.021-5.206c2.742-3.464,4.124-8.256,4.124-14.359c0-3.413-0.41-6.471-1.215-9.163
			c-0.816-2.688-1.952-4.937-3.403-6.74c-1.451-1.796-3.122-3.156-5.005-4.067c-1.883-0.903-3.9-1.359-6.045-1.359
			c-2.351,0-4.496,0.463-6.437,1.39c-1.933,0.931-3.596,2.264-4.982,4.011c-1.378,1.75-2.442,3.824-3.183,6.228
			c-0.74,2.411-1.113,5.073-1.113,7.994C169.738,208.961,170.129,211.775,170.927,214.376z"/>
		<path fill="#FF5000" d="M228.592,230.2c-1.731-0.308-3.372-0.935-4.933-1.902c-1.553-0.961-2.837-2.411-3.839-4.359
			c-1.003-1.93-1.519-4.436-1.55-7.497l-0.053-3.957c-0.072-2.407-0.103-4.018-0.103-4.808c0-1.094,0.03-3.113,0.103-6.057
			c0.03-2.678,0.053-4.831,0.053-6.456c0-1.203-0.038-2.897-0.102-5.085c-0.08-1.397-0.308-2.612-0.707-3.657
			c-0.398-1.032-1.173-1.963-2.309-2.795v-0.684c1.625,0.156,2.913,0.267,3.847,0.342c0.919,0.076,1.823,0.11,2.688,0.11
			c0.691,0,1.823-0.049,3.376-0.171c1.345-0.106,2.362-0.182,3.064-0.22v0.676c-0.934,0.527-1.614,1.39-2.027,2.574
			c-0.414,1.189-0.68,2.522-0.783,3.991c-0.099,1.436-0.159,2.921-0.178,4.47c-0.019,1.554-0.027,3.509-0.027,5.887v6.729
			c0,1.135,0.008,2.278,0.027,3.425c0.019,1.154,0.057,2.708,0.125,4.675c0.076,2.602,0.369,4.701,0.889,6.308
			c0.509,1.603,1.188,2.811,2.028,3.619c0.82,0.809,1.754,1.352,2.764,1.614c1.029,0.262,2.241,0.398,3.657,0.398
			c1.94,0,3.524-0.156,4.75-0.46c1.23-0.3,2.264-0.899,3.114-1.804c0.851-0.911,1.504-2.248,1.975-4.021
			c0.459-1.777,0.733-4.112,0.797-7.014c0.034-1.063,0.049-2.344,0.049-3.854v-2.712c0-0.489,0.019-2.19,0.053-5.092
			c0-1.964,0-3.752,0-5.378c0-3.129-0.034-5.445-0.103-6.957c-0.064-1.773-0.296-3.087-0.699-3.938
			c-0.402-0.843-1.269-1.667-2.62-2.461v-0.676c0.904,0.038,1.906,0.113,3.007,0.22c0.934,0.076,1.572,0.122,1.922,0.122
			c0.653,0,1.762-0.062,3.323-0.171c1.344-0.114,2.396-0.19,3.163-0.232v0.684c-1.075,0.597-1.8,1.345-2.18,2.229
			c-0.383,0.889-0.607,2.336-0.676,4.337c-0.103,2.373-0.16,4.891-0.183,7.553c-0.022,2.658-0.026,5.837-0.026,9.528
			c0,0.308,0,1.116,0,2.438c-0.034,1.359-0.049,2.188-0.049,2.487c0,4.112-0.41,7.428-1.223,9.931
			c-0.809,2.514-1.937,4.37-3.365,5.574c-1.443,1.208-3.072,1.998-4.899,2.377c-1.842,0.38-4.056,0.563-6.649,0.563
			C232.15,230.645,230.316,230.5,228.592,230.2z"/>
		<path fill="#FF5000" d="M293.047,184.805c2.817,1.242,5.191,2.951,7.136,5.131c1.929,2.176,3.398,4.689,4.401,7.545
			c0.999,2.855,1.504,5.917,1.504,9.187c0,3.342-0.574,6.49-1.732,9.433c-1.166,2.955-2.783,5.507-4.853,7.66
			c-2.07,2.164-4.496,3.839-7.234,5.021c-2.757,1.185-5.666,1.77-8.75,1.77c-3.072,0-5.984-0.615-8.742-1.861
			c-2.75-1.233-5.157-2.962-7.234-5.176c-2.077-2.218-3.684-4.77-4.849-7.667c-1.155-2.89-1.732-5.913-1.732-9.064
			c0-3.16,0.577-6.179,1.732-9.076c1.166-2.887,2.772-5.453,4.849-7.69c2.078-2.229,4.485-3.968,7.234-5.21
			c2.757-1.234,5.669-1.861,8.742-1.861C287.051,182.944,290.226,183.571,293.047,184.805z M277.485,187.626
			c-1.857,0.9-3.463,2.188-4.827,3.862c-1.367,1.667-2.419,3.676-3.167,6.02c-0.748,2.354-1.113,4.955-1.113,7.804
			c0,2.859,0.38,5.608,1.14,8.259c0.755,2.64,1.834,5.002,3.216,7.067c1.386,2.066,3,3.684,4.849,4.846
			c1.854,1.166,3.824,1.743,5.936,1.743c2.218,0,4.269-0.418,6.152-1.265s3.535-2.069,4.952-3.69c1.412-1.614,2.514-3.57,3.288-5.86
			c0.782-2.29,1.178-4.846,1.178-7.659c0-3.532-0.396-6.699-1.178-9.498c-0.774-2.795-1.876-5.164-3.288-7.098
			c-1.417-1.933-3.068-3.395-4.952-4.39c-1.884-0.999-3.935-1.496-6.152-1.496C281.347,186.271,279.327,186.719,277.485,187.626z"/>
		<path fill="#FF5000" d="M348.768,186.761c-0.835,1.834-1.329,3.155-1.508,3.979c-0.038,0.224-0.254,0.418-0.646,0.592
			c-0.402,0.164-0.718,0.251-0.96,0.251c-0.486,0-0.813-0.167-0.984-0.501c-0.178-0.342-0.296-0.824-0.368-1.462
			c-0.026-0.342-0.072-0.539-0.103-0.615c-0.11-0.521-0.3-0.904-0.596-1.147c-0.289-0.242-0.607-0.383-0.957-0.425
			c-0.836-0.026-2.149-0.057-3.95-0.057h-4.101l-0.251,3.646c-0.175,2.434-0.258,5.491-0.258,9.193c0,1.23,0.015,2.594,0.049,4.082
			c0,2.089,0,3.309,0,3.646c0,5.152,0.137,10.674,0.414,16.583c0.106,2.533,1.124,4.311,3.064,5.316v0.786
			c-1.629-0.151-2.936-0.25-3.923-0.311c-0.983-0.058-1.944-0.08-2.867-0.08c-0.873,0-1.781,0.022-2.73,0.08
			c-0.949,0.061-2.157,0.159-3.607,0.311v-0.786c0.942-0.52,1.66-1.185,2.172-1.985c0.528-0.806,0.805-1.801,0.839-2.996
			c0.072-3.737,0.103-9.323,0.103-16.748c0-3.934,0-7.215,0-9.857c0-2.658-0.03-5.348-0.103-8.074l-0.054-2.806
			c-1.796,0-3.406,0.057-4.822,0.167c-1.424,0.117-2.818,0.342-4.204,0.68c-0.414,0.109-0.904,0.322-1.485,0.615
			c-0.566,0.296-1.158,0.725-1.777,1.291c-0.076,0.03-0.202,0.148-0.369,0.33c-0.383,0.38-0.749,0.672-1.09,0.9
			c-0.346,0.224-0.749,0.334-1.193,0.334c-0.315,0-0.623-0.088-0.941-0.247c-0.304-0.167-0.456-0.292-0.456-0.364
			c0.027-0.304,0.338-0.9,0.931-1.804c0.623-0.927,1.033-1.637,1.246-2.123c0.031-0.11,0.152-0.395,0.357-0.839
			c0.596-1.192,0.976-2.184,1.147-2.966h2.176c0.345,0.41,0.656,0.668,0.938,0.782c0.273,0.117,0.76,0.186,1.447,0.224
			c2.84,0.042,7.074,0.057,12.71,0.057c1.872,0,4.796-0.079,8.772-0.224c1.413-0.038,2.855-0.076,4.306-0.117
			c0.551-0.031,1.292-0.236,2.225-0.608c0.448-0.189,0.798-0.326,1.037-0.395h1.773C350.067,183.776,349.6,185.014,348.768,186.761z
			"/>
		<path fill="#FF5000" d="M362.796,230.219c-0.946,0.058-2.146,0.168-3.608,0.315v-0.798c0.942-0.527,1.671-1.195,2.188-2.016
			c0.524-0.81,0.797-1.827,0.835-3.034c0.057-3.79,0.099-9.452,0.099-16.983c0-2.882-0.042-5.821-0.099-8.806
			c-0.076-2.996-0.175-5.894-0.312-8.696c-0.076-1.405-0.304-2.621-0.676-3.669c-0.388-1.036-1.14-1.971-2.286-2.806v-0.684
			c1.587,0.151,2.855,0.266,3.794,0.346c0.93,0.075,1.826,0.109,2.692,0.109c0.653,0,1.758-0.057,3.315-0.171
			c1.348-0.113,2.404-0.189,3.164-0.228v0.684c-0.957,0.527-1.656,1.39-2.066,2.582c-0.417,1.192-0.68,2.529-0.775,4.003
			c-0.114,1.442-0.175,2.939-0.186,4.492c-0.027,1.554-0.03,3.524-0.03,5.909v6.756c0,5.226,0.133,10.83,0.414,16.819
			c0.106,2.566,1.125,4.37,3.061,5.392v0.798c-1.622-0.147-2.935-0.258-3.912-0.315c-0.987-0.057-1.944-0.079-2.882-0.079
			C364.665,230.14,363.753,230.162,362.796,230.219z"/>
		<path fill="#FF5000" d="M412.734,184.497c2.817,1.025,5.297,2.507,7.42,4.447c2.127,1.948,3.782,4.257,4.982,6.923
			c1.192,2.666,1.785,5.56,1.785,8.677c0,3.661-0.607,7.075-1.815,10.257c-1.212,3.187-2.954,5.963-5.241,8.344
			c-2.281,2.381-5.005,4.227-8.16,5.54c-3.171,1.311-6.649,1.994-10.463,2.028c-1.173,0-3.105-0.095-5.802-0.289
			c-2.529-0.186-4.405-0.28-5.609-0.28c-0.968,0-2.062,0.026-3.288,0.083c-1.23,0.057-2.518,0.16-3.862,0.315v-0.862
			c0.964-0.527,1.838-1.359,2.64-2.479c0.793-1.128,1.203-2.274,1.241-3.456c0.03-1.902,0.054-4.591,0.054-8.055v-8.115
			c0-2.89-0.031-5.848-0.106-8.855c-0.076-3.004-0.167-5.92-0.312-8.738c-0.099-2.248-1.488-4.344-4.147-6.285v-0.626
			c1.349,0.145,2.712,0.262,4.124,0.338c1.405,0.076,2.586,0.118,3.555,0.118c1.041,0,2.021-0.016,2.928-0.062
			c0.916-0.034,2.032-0.113,3.35-0.228c1.557-0.076,2.883-0.145,3.965-0.197c1.09-0.061,2.381-0.088,3.873-0.088
			C406.95,182.951,409.912,183.464,412.734,184.497z M396.974,186.438c-1.801,0.11-2.901,0.323-3.357,0.631
			c-0.068,0.562-0.121,1.329-0.148,2.282c-0.041,0.345-0.057,0.607-0.057,0.801c-0.103,1.447-0.163,2.951-0.182,4.512
			c-0.023,1.561-0.027,3.543-0.027,5.939v6.801c0,5.294,0.137,10.93,0.414,16.907c0,0.083,0.02,0.254,0.054,0.516
			c0,0.194,0,0.38,0,0.57c0.79,0.691,1.975,1.158,3.523,1.401c1.565,0.25,3.775,0.376,6.649,0.376c2.104,0,4.113-0.517,6.038-1.546
			c1.922-1.029,3.608-2.476,5.085-4.349c1.466-1.86,2.605-4.052,3.426-6.562c0.813-2.518,1.215-5.18,1.215-8.001
			c0-2.932-0.425-5.841-1.269-8.704c-0.851-2.883-1.981-5.184-3.402-6.893c-1.481-1.751-3.141-3-4.982-3.744
			c-1.826-0.745-3.866-1.109-6.11-1.109C401.041,186.267,398.744,186.321,396.974,186.438z"/>
		<path fill="#FF5000" d="M438.101,230.261c-0.949,0.058-2.157,0.163-3.6,0.319v-0.798c0.934-0.535,1.655-1.207,2.172-2.024
			c0.517-0.816,0.801-1.826,0.832-3.045c0.064-3.794,0.102-9.471,0.102-17.021c0-2.883-0.037-5.829-0.102-8.825
			c-0.068-3-0.176-5.909-0.315-8.712c-0.068-1.405-0.289-2.632-0.669-3.676c-0.379-1.048-1.139-1.982-2.278-2.821v-0.688
			c1.587,0.159,2.849,0.277,3.778,0.35c0.931,0.075,1.842,0.113,2.7,0.113c0.661,0,1.763-0.061,3.315-0.175
			c1.359-0.11,2.407-0.186,3.175-0.22v0.68c-0.976,0.531-1.667,1.39-2.081,2.586c-0.418,1.2-0.676,2.537-0.778,4.018
			c-0.106,1.443-0.156,2.939-0.183,4.496c-0.022,1.562-0.022,3.528-0.022,5.921v6.778c0,5.233,0.137,10.85,0.413,16.854
			c0.104,2.582,1.132,4.386,3.058,5.411v0.798c-1.626-0.156-2.928-0.262-3.907-0.319c-0.992-0.053-1.952-0.083-2.891-0.083
			C439.961,230.178,439.058,230.208,438.101,230.261z"/>
		<path fill="#FF5000" d="M495.352,223.881c0.517,1.478,1.147,2.67,1.884,3.577c0.76,0.908,1.679,1.634,2.787,2.153v0.912
			c-1.424-0.263-2.662-0.452-3.714-0.57c-1.056-0.113-2.027-0.167-2.932-0.167c-1.07,0-2.149,0.042-3.205,0.145
			c-1.086,0.091-2.385,0.27-3.903,0.539v-0.798c0-0.27,0.228-0.721,0.684-1.363c0.646-0.949,0.972-1.705,0.972-2.274
			c0-0.372-0.038-0.778-0.121-1.219c-0.084-0.433-0.163-0.726-0.229-0.877l-3.999-11.925c-2.183-0.186-4.119-0.281-5.806-0.281
			c-2.393,0-4.432,0.096-6.13,0.281l-4.564,12.942v0.061c-0.235,0.604-0.391,1.071-0.463,1.394
			c-0.064,0.315-0.106,0.688-0.106,1.102c0,0.873,0.312,1.629,0.935,2.274v0.684c-1.178-0.193-2.161-0.326-2.955-0.398
			c-0.789-0.076-1.537-0.118-2.229-0.118c-0.794,0-1.626,0.042-2.495,0.118c-0.858,0.072-1.99,0.22-3.372,0.452l0.68-0.912
			c1.271-0.489,2.369-1.203,3.3-2.153c0.903-0.949,1.675-2.232,2.302-3.861l12.342-32.814c0.076-0.148,0.105-0.414,0.105-0.79
			c0-1.136-0.349-2.268-1.063-3.384c-0.707-1.116-1.652-2.127-2.829-3.034l-0.202-0.688c2.659,0.273,5.078,0.406,7.258,0.406h2.236
			l2.484,6.756L495.352,223.881z M482.425,208.949v-0.171l-4.549-13.17l-4.892,13.17v0.171c2.085,0.08,3.642,0.11,4.675,0.11
			C478.705,209.06,480.284,209.03,482.425,208.949z"/>
		<path fill="#FF5000" d="M542.662,183.544c0.729,0.114,1.215,0.171,1.459,0.171c0.652,0,1.762-0.057,3.314-0.171
			c1.355-0.114,2.396-0.19,3.118-0.228v0.68c-0.938,0.527-1.61,1.382-2.021,2.566c-0.422,1.189-0.684,2.515-0.778,3.977
			c-0.103,1.439-0.163,2.92-0.187,4.47c-0.015,1.546-0.033,3.493-0.033,5.867v6.718c0,1.397-0.012,3.41-0.05,6.049
			c-0.03,3.57-0.05,6.058-0.05,7.455c0,3.008,0.034,5.134,0.1,6.372l0.057,0.627c0.041,0.748,0.061,1.261,0.061,1.522
			c0,0.672-0.117,1.154-0.315,1.436c-0.209,0.289-0.611,0.429-1.2,0.429c-0.338,0-0.732-0.178-1.166-0.539
			c-0.429-0.356-0.797-0.756-1.112-1.211l-26.875-33.764v4.006v7.618c0,5.24,0.137,10.808,0.422,16.717
			c0.095,2.635,1.116,4.424,3.061,5.365v0.794c-1.591-0.151-2.897-0.255-3.923-0.312c-1.014-0.068-1.975-0.087-2.875-0.087
			c-0.551,0-1.074,0.019-1.549,0.057c-0.494,0.034-1.492,0.133-3.012,0.281v-0.79c0.896-0.49,1.603-1.146,2.127-1.975
			c0.516-0.832,0.797-1.846,0.828-3.05c0.068-3.729,0.098-9.353,0.098-16.884c0-1.207,0.02-3.106,0.058-5.703
			c0.03-2.666,0.05-4.69,0.05-6.038c0-2.602-0.023-4.52-0.107-5.765v-0.396c-0.098-1.237-0.375-2.347-0.831-3.326
			c-0.448-0.983-1.212-1.884-2.271-2.712l-0.267-0.793c0.167,0,0.422,0.022,0.726,0.061c1.553,0.182,2.761,0.308,3.607,0.364
			c0.848,0.061,1.713,0.106,2.621,0.141l26.977,34.667v-3.558v-6.999c0-2.859-0.037-5.783-0.105-8.753
			c-0.076-2.97-0.183-5.856-0.312-8.644v-0.053c-0.076-1.504-0.271-2.742-0.577-3.722c-0.308-0.983-1.015-1.868-2.123-2.658v-0.733
			C540.535,183.168,541.56,183.317,542.662,183.544z"/>
		<path fill="#FF5000" d="M595.372,224.003c0.524,1.477,1.154,2.673,1.891,3.573c0.745,0.919,1.675,1.633,2.78,2.16v0.908
			c-1.413-0.258-2.65-0.452-3.71-0.563c-1.052-0.117-2.032-0.171-2.921-0.171c-1.086,0-2.149,0.042-3.228,0.141
			c-1.063,0.095-2.37,0.273-3.885,0.54v-0.794c0-0.263,0.22-0.718,0.672-1.363c0.661-0.946,0.991-1.701,0.991-2.268
			c0-0.384-0.049-0.786-0.137-1.227c-0.088-0.437-0.159-0.732-0.231-0.877l-3.995-11.925c-2.176-0.189-4.116-0.284-5.811-0.284
			c-2.385,0-4.428,0.095-6.121,0.284l-4.564,12.95v0.049c-0.239,0.612-0.399,1.067-0.468,1.394
			c-0.071,0.323-0.103,0.688-0.103,1.109c0,0.869,0.319,1.625,0.927,2.271v0.681c-1.169-0.19-2.153-0.323-2.946-0.399
			c-0.802-0.072-1.542-0.11-2.233-0.11c-0.79,0-1.625,0.038-2.495,0.11c-0.869,0.076-1.986,0.225-3.36,0.452l0.668-0.908
			c1.284-0.489,2.37-1.203,3.296-2.16c0.916-0.941,1.687-2.229,2.31-3.854l12.342-32.818c0.068-0.155,0.106-0.418,0.106-0.794
			c0-1.135-0.357-2.263-1.067-3.383c-0.71-1.117-1.651-2.123-2.821-3.031l-0.213-0.684c2.666,0.271,5.085,0.403,7.265,0.403h2.229
			l2.491,6.752L595.372,224.003z M582.459,209.071v-0.17l-4.571-13.174l-4.873,13.174v0.17c2.077,0.076,3.639,0.11,4.671,0.11
			C578.715,209.181,580.322,209.147,582.459,209.071z"/>
	</g>
	<g>
		<path fill="#FF5000" d="M95.573,108.391c0.729,0.118,1.211,0.174,1.45,0.174c0.661,0,1.77-0.057,3.327-0.174
			c1.348-0.106,2.392-0.19,3.114-0.228v0.699c-0.934,0.54-1.61,1.413-2.024,2.628c-0.422,1.219-0.684,2.583-0.783,4.083
			c-0.102,1.47-0.163,2.996-0.178,4.58c-0.015,1.576-0.03,3.585-0.03,6.019v6.885c0,1.432-0.016,3.498-0.046,6.198
			c-0.034,3.665-0.053,6.212-0.053,7.641c0,3.091,0.034,5.271,0.099,6.539l0.053,0.638c0.038,0.771,0.054,1.291,0.054,1.561
			c0,0.699-0.106,1.188-0.312,1.481c-0.205,0.281-0.604,0.429-1.192,0.429c-0.342,0-0.737-0.179-1.162-0.551
			c-0.437-0.36-0.813-0.778-1.12-1.233l-26.872-34.626v4.109v7.815c0,5.366,0.141,11.081,0.421,17.139
			c0.099,2.696,1.117,4.534,3.053,5.502v0.806c-1.591-0.152-2.901-0.262-3.919-0.319c-1.014-0.057-1.975-0.087-2.878-0.087
			c-0.547,0-1.067,0.022-1.553,0.057c-0.482,0.042-1.485,0.141-3.011,0.293v-0.813c0.904-0.505,1.614-1.173,2.126-2.023
			c0.524-0.847,0.797-1.892,0.835-3.122c0.064-3.828,0.106-9.592,0.106-17.313c0-1.234,0.011-3.187,0.049-5.849
			c0.034-2.738,0.049-4.804,0.049-6.193c0-2.658-0.034-4.625-0.099-5.905v-0.402c-0.106-1.272-0.388-2.412-0.835-3.414
			c-0.456-1.006-1.208-1.933-2.286-2.78l-0.25-0.813c0.167,0,0.414,0.023,0.721,0.057c1.557,0.194,2.753,0.319,3.608,0.383
			c0.843,0.054,1.712,0.103,2.62,0.133l26.978,35.548v-3.649v-7.173c0-2.932-0.045-5.928-0.118-8.974
			c-0.064-3.045-0.171-6-0.308-8.86v-0.057c-0.061-1.538-0.254-2.814-0.554-3.816c-0.327-1.006-1.033-1.91-2.135-2.723v-0.752
			C93.446,108.008,94.471,108.163,95.573,108.391z"/>
		<path fill="#FF5000" d="M145.981,117.76c-0.3-0.327-0.699-0.836-1.215-1.523c-0.6-0.801-1.121-1.47-1.58-2.005
			c-0.471-0.535-1.021-0.972-1.648-1.317c-1.2-0.646-2.445-1.124-3.733-1.432c-1.272-0.308-2.658-0.456-4.143-0.456
			c-2.602,0-4.948,0.49-7.063,1.455c-2.104,0.98-3.904,2.362-5.393,4.158c-1.481,1.796-2.616,3.916-3.402,6.361
			c-0.774,2.442-1.154,5.115-1.154,8.017c0,2.863,0.433,5.636,1.313,8.309c0.889,2.673,2.081,5.04,3.615,7.101
			c1.512,2.059,3.266,3.68,5.264,4.842c1.982,1.166,4.052,1.747,6.197,1.747c1.071,0,2.188-0.084,3.346-0.254
			c1.158-0.172,2.32-0.452,3.505-0.832c2.688-0.881,4.796-2.139,6.312-3.778c0.178-0.152,0.41-0.444,0.684-0.87
			c0.41-0.565,0.782-1.006,1.093-1.311c0.304-0.307,0.634-0.459,0.984-0.459c0.414,0,0.718,0.076,0.926,0.235
			c0.213,0.152,0.331,0.277,0.373,0.398c0,0.19-0.129,0.615-0.391,1.292c-0.262,0.668-0.619,1.492-1.063,2.487
			c-0.281,0.607-0.471,1.044-0.57,1.317c-0.349,0.915-1.143,1.679-2.385,2.29c-2.05,1.108-4.215,1.91-6.517,2.407
			c-2.301,0.494-4.815,0.744-7.549,0.744c-3.072,0-5.985-0.634-8.734-1.891c-2.749-1.261-5.161-3.02-7.238-5.268
			c-2.074-2.259-3.691-4.856-4.854-7.8c-1.154-2.936-1.731-6.012-1.731-9.22c0-3.243,0.558-6.365,1.678-9.365
			c1.132-2.996,2.727-5.662,4.8-7.99c2.077-2.332,4.561-4.15,7.439-5.476c2.897-1.311,6.053-1.975,9.479-1.975
			c1.268,0,2.692,0.11,4.246,0.319c1.557,0.205,3.152,0.49,4.773,0.824c0.072,0,0.433,0.083,1.094,0.235
			c1.246,0.304,2.104,0.463,2.601,0.463c0-0.083,0.103-0.159,0.331-0.235c0.22-0.076,0.532-0.11,0.957-0.11
			c0.623,0,1.014,0.243,1.192,0.744c0.175,0.494,0.258,1.219,0.258,2.172c0,0.536,0.053,1.455,0.159,2.753
			c0.068,0.953,0.099,1.656,0.099,2.119c0,0.3-0.087,0.588-0.281,0.858c-0.186,0.266-0.562,0.403-1.109,0.403
			C146.592,118.246,146.27,118.086,145.981,117.76z"/>
		<path fill="#FF5000" d="M189.197,109.751c2.817,1.269,5.195,3.019,7.131,5.245c1.944,2.236,3.403,4.815,4.417,7.735
			c1.003,2.924,1.5,6.057,1.5,9.399c0,3.425-0.581,6.653-1.739,9.668c-1.158,3.019-2.772,5.632-4.842,7.838
			c-2.085,2.218-4.492,3.931-7.242,5.138c-2.75,1.22-5.666,1.819-8.742,1.819c-3.08,0-5.997-0.638-8.742-1.906
			c-2.749-1.261-5.157-3.038-7.234-5.302c-2.077-2.271-3.688-4.887-4.849-7.845c-1.162-2.962-1.739-6.061-1.739-9.289
			c0-3.232,0.577-6.327,1.739-9.293c1.162-2.958,2.772-5.582,4.849-7.872c2.077-2.282,4.485-4.067,7.234-5.335
			c2.746-1.272,5.662-1.899,8.742-1.899C183.208,107.852,186.379,108.479,189.197,109.751z M173.63,112.637
			c-1.849,0.923-3.452,2.24-4.815,3.949c-1.364,1.713-2.419,3.775-3.156,6.175c-0.756,2.4-1.128,5.07-1.128,7.986
			c0,2.924,0.376,5.75,1.143,8.453c0.759,2.711,1.831,5.119,3.22,7.238c1.375,2.119,2.996,3.774,4.842,4.963
			c1.853,1.188,3.835,1.789,5.943,1.789c2.214,0,4.261-0.433,6.141-1.299c1.891-0.866,3.535-2.123,4.963-3.774
			c1.417-1.66,2.514-3.661,3.292-6.004c0.779-2.339,1.166-4.956,1.166-7.842c0-3.615-0.387-6.858-1.166-9.725
			c-0.778-2.864-1.876-5.286-3.292-7.265c-1.428-1.982-3.072-3.482-4.963-4.497c-1.88-1.025-3.927-1.538-6.141-1.538
			C177.504,111.247,175.488,111.718,173.63,112.637z"/>
		<path fill="#FF5000" d="M242.476,108.274c0.729,0.118,1.219,0.178,1.451,0.178c0.661,0,1.762-0.061,3.319-0.178
			c1.352-0.118,2.396-0.19,3.121-0.228v0.691c-0.934,0.551-1.61,1.42-2.031,2.644c-0.414,1.219-0.672,2.582-0.775,4.094
			c-0.099,1.473-0.16,3.003-0.178,4.587c-0.016,1.591-0.023,3.604-0.023,6.038v6.908c0,1.432-0.027,3.505-0.057,6.213
			c-0.034,3.676-0.057,6.232-0.057,7.664c0,3.095,0.038,5.282,0.114,6.559l0.042,0.638c0.042,0.774,0.061,1.299,0.061,1.572
			c0,0.694-0.103,1.185-0.315,1.477c-0.208,0.293-0.607,0.438-1.192,0.438c-0.345,0-0.733-0.187-1.169-0.555
			c-0.433-0.368-0.801-0.782-1.117-1.246l-26.871-34.717v4.125v7.834c0,5.385,0.141,11.108,0.417,17.188
			c0.099,2.704,1.128,4.546,3.061,5.518v0.802c-1.591-0.148-2.894-0.255-3.915-0.312c-1.022-0.062-1.979-0.092-2.878-0.092
			c-0.555,0-1.075,0.023-1.561,0.058c-0.486,0.045-1.485,0.141-3.004,0.296v-0.813c0.893-0.505,1.606-1.182,2.123-2.036
			c0.524-0.851,0.802-1.895,0.836-3.129c0.068-3.839,0.099-9.623,0.099-17.358c0-1.246,0.022-3.193,0.053-5.871
			c0.038-2.745,0.057-4.819,0.057-6.209c0-2.673-0.034-4.644-0.11-5.92v-0.406c-0.099-1.28-0.384-2.419-0.824-3.429
			c-0.452-1.002-1.215-1.933-2.286-2.784l-0.262-0.809c0.182,0,0.417,0.015,0.729,0.053c1.557,0.19,2.753,0.315,3.607,0.376
			c0.843,0.057,1.716,0.103,2.617,0.145l26.981,35.647v-3.661v-7.2c0-2.936-0.042-5.936-0.11-8.992
			c-0.072-3.061-0.171-6.016-0.308-8.883v-0.057c-0.076-1.546-0.27-2.825-0.573-3.835c-0.315-1.002-1.021-1.914-2.13-2.727v-0.755
			C240.357,107.89,241.375,108.046,242.476,108.274z"/>
		<path fill="#FF5000" d="M263.75,156.293c-1.033-0.235-2.294-0.597-3.79-1.109c-0.623-0.189-1.033-0.33-1.238-0.402
			c-0.934-0.308-1.545-0.76-1.845-1.363c-0.296-0.6-0.433-1.424-0.433-2.468c0-0.038-0.022-0.225-0.053-0.581
			c-0.106-0.54-0.19-1.166-0.258-1.884s-0.106-1.386-0.106-2.001c0-0.506,0.14-1.007,0.437-1.512s0.786-0.748,1.485-0.748
			c0.308,0,0.577,0.171,0.794,0.543c0.228,0.368,0.516,0.983,0.862,1.83c0.517,1.355,0.957,2.286,1.344,2.787
			c0.904,1.158,2.073,2.127,3.505,2.901c1.436,0.775,2.674,1.158,3.714,1.158c0.786,0,1.599-0.167,2.408-0.493
			c0.816-0.326,1.58-0.832,2.301-1.508c0.733-0.676,1.31-1.538,1.743-2.586c0.44-1.041,0.653-2.222,0.653-3.535
			c0-1.284-0.228-2.461-0.676-3.54c-0.452-1.086-1.063-2.081-1.838-2.993c-0.782-0.907-1.618-1.75-2.521-2.525
			c-0.896-0.771-2.051-1.701-3.471-2.78c-1.523-1.166-2.765-2.165-3.741-2.996c-0.968-0.828-1.88-1.77-2.723-2.818
			c-0.847-1.041-1.519-2.191-2.017-3.444c-0.505-1.261-0.756-2.624-0.756-4.098c0-1.47,0.236-2.92,0.726-4.355
			c0.479-1.424,1.219-2.742,2.206-3.938c0.98-1.2,2.233-2.168,3.76-2.905c1.519-0.737,3.285-1.101,5.294-1.101
			c0.893,0,2.161,0.171,3.778,0.52c1.318,0.308,2.252,0.463,2.803,0.463c0.034,0,0.11-0.042,0.209-0.118
			c0.273-0.152,0.584-0.281,0.911-0.376c0.331-0.095,0.782-0.148,1.371-0.148c0.49,0,0.82,0.103,1.01,0.292
			c0.194,0.194,0.292,0.369,0.292,0.524c0,0.964,0.083,2.381,0.258,4.23c0.141,1.712,0.201,2.988,0.201,3.839
			c0,0.228-0.099,0.501-0.308,0.809c-0.205,0.312-0.547,0.471-1.04,0.471c-0.524,0-0.961-0.27-1.349-0.79
			c-0.383-0.521-0.813-1.265-1.295-2.237c-0.486-0.923-0.828-1.511-1.033-1.739c-0.972-0.927-2.02-1.603-3.137-2.032
			c-1.128-0.421-2.233-0.634-3.304-0.634c-1.314,0-2.537,0.619-3.68,1.85c-1.139,1.246-1.712,2.692-1.712,4.359
			c0,2.051,0.668,3.854,1.998,5.427c1.336,1.568,3.38,3.452,6.145,5.655c1.564,1.242,2.848,2.316,3.866,3.224
			c1.018,0.916,1.998,1.94,2.936,3.106c0.93,1.158,1.674,2.427,2.229,3.805c0.555,1.371,0.851,2.848,0.881,4.432
			c0,1.744-0.289,3.437-0.881,5.082c-0.585,1.644-1.481,3.125-2.673,4.442c-1.189,1.311-2.696,2.37-4.512,3.164
			c-1.808,0.79-3.896,1.188-6.254,1.188C265.944,156.639,264.786,156.525,263.75,156.293z"/>
		<path fill="#FF5000" d="M324.943,149.909c0.513,1.516,1.15,2.738,1.898,3.665c0.744,0.934,1.663,1.671,2.769,2.21v0.935
			c-1.409-0.273-2.647-0.472-3.703-0.582c-1.063-0.117-2.028-0.174-2.924-0.174c-1.078,0-2.157,0.049-3.228,0.144
			c-1.063,0.099-2.366,0.277-3.885,0.551v-0.813c0-0.273,0.224-0.736,0.672-1.397c0.653-0.969,0.987-1.747,0.987-2.328
			c0-0.383-0.045-0.805-0.137-1.245c-0.083-0.456-0.159-0.748-0.231-0.904l-3.995-12.22c-2.172-0.197-4.12-0.296-5.811-0.296
			c-2.381,0-4.424,0.099-6.114,0.296l-4.576,13.265v0.057c-0.232,0.623-0.392,1.102-0.46,1.428
			c-0.068,0.334-0.103,0.706-0.103,1.136c0,0.896,0.304,1.671,0.942,2.328v0.694c-1.186-0.193-2.169-0.326-2.962-0.41
			c-0.797-0.075-1.542-0.11-2.229-0.11c-0.802,0-1.629,0.035-2.499,0.11c-0.862,0.084-1.982,0.235-3.38,0.472l0.688-0.935
			c1.276-0.501,2.377-1.238,3.296-2.21c0.915-0.973,1.686-2.286,2.309-3.957l12.349-33.631c0.061-0.156,0.103-0.43,0.103-0.813
			c0-1.166-0.357-2.32-1.071-3.467c-0.71-1.139-1.652-2.176-2.821-3.11l-0.213-0.699c2.666,0.27,5.089,0.406,7.265,0.406h2.233
			l2.487,6.927L324.943,149.909z M312.031,134.606v-0.175l-4.572-13.497l-4.876,13.497v0.175c2.081,0.083,3.638,0.118,4.675,0.118
			C308.298,134.723,309.885,134.689,312.031,134.606z"/>
		<path fill="#FF5000" d="M347.196,108.107c2.138-0.156,3.707-0.232,4.717-0.232c1.246,0,2.662,0.224,4.249,0.676
			c1.595,0.444,2.905,1.025,3.946,1.724c1.868,1.295,3.27,2.917,4.2,4.872c0.934,1.956,1.401,3.95,1.401,5.978
			c0,2.161-0.558,4.288-1.656,6.395c-1.12,2.115-2.563,3.87-4.363,5.279c-1.314,1.06-2.784,1.743-4.432,2.058
			c-1.645,0.311-3.452,0.467-5.431,0.467c-0.615,0-1.287-0.05-2.013-0.145c-0.733-0.103-1.397-0.247-2.024-0.44
			c0,5.75,0.129,10.902,0.417,15.482c0.099,1.683,0.365,2.879,0.768,3.607c0.417,0.726,1.181,1.379,2.286,1.971v0.813
			c-1.595-0.151-2.89-0.262-3.919-0.318c-1.014-0.061-1.975-0.088-2.878-0.088c-2.069,0-4.382,0.141-6.942,0.406v-0.881
			c1.071-0.619,1.929-1.348,2.59-2.164c0.661-0.824,1.002-1.823,1.041-2.992c0.068-3.916,0.099-9.76,0.099-17.541
			c0-2.962-0.03-6-0.099-9.087c-0.08-3.091-0.179-6.08-0.315-8.978c-0.064-1.409-0.318-2.609-0.755-3.608
			c-0.433-0.995-1.257-1.845-2.461-2.552v-0.881c3.038,0.315,5.297,0.475,6.745,0.475
			C343.505,108.403,345.111,108.304,347.196,108.107z M345.814,119.693c-0.016,1.546-0.023,3.509-0.023,5.89v6.866
			c0.516,0,1.276,0.114,2.286,0.35c0.751,0.201,1.276,0.296,1.549,0.296c1.242-0.038,2.468-0.334,3.661-0.877
			c1.185-0.547,2.255-1.371,3.182-2.469c0.733-0.896,1.253-2.138,1.595-3.718c0.327-1.591,0.486-3.357,0.486-5.316
			c0-1.561-0.345-3.08-1.018-4.572c-0.676-1.481-1.508-2.616-2.514-3.402c-0.896-0.661-1.831-1.124-2.795-1.379
			c-0.969-0.25-2.021-0.379-3.16-0.379c-0.524,0-1.397,0.08-2.598,0.235h-0.16c-0.174,0.467-0.258,1.329-0.258,2.583
			c0,0.626-0.019,1.086-0.053,1.405C345.894,116.655,345.836,118.147,345.814,119.693z"/>
		<path fill="#FF5000" d="M377.85,156.073c-0.95,0.076-2.222,0.213-3.809,0.403c-0.178,0-0.459,0.026-0.832,0.057v-1.28
			c0.41-0.27,0.835-0.646,1.268-1.135c0.426-0.479,0.844-1.049,1.219-1.709c0.824-1.436,1.265-2.75,1.295-3.953
			c0.068-2.943,0.106-5.374,0.106-7.292c0-1.925,0-4.645,0-8.165c0-2.947-0.038-5.947-0.106-9.008
			c-0.068-3.064-0.167-6.023-0.304-8.894c-0.076-1.28-0.425-2.45-1.041-3.517c-0.623-1.06-1.587-1.963-2.909-2.704l-0.159-0.983
			l0.835,0.057c2.005,0.232,3.684,0.399,5.036,0.521c1.352,0.118,2.381,0.179,3.114,0.179c0.547,0,1.299-0.019,2.245-0.061
			c0.961-0.038,2.107-0.099,3.455-0.174c0.657-0.038,1.166-0.08,1.5-0.114c2.567-0.201,4.379-0.292,5.446-0.292
			c0.767,0,1.436,0.011,2.027,0.031c0.593,0.015,1.188,0.076,1.815,0.171c0.631,0.095,1.14,0.254,1.561,0.467
			c0.414,0.213,0.619,0.494,0.619,0.839c0,0.976,0.092,2.054,0.262,3.254c0.096,0.893,0.152,1.595,0.152,2.096
			c0,0.118-0.11,0.273-0.338,0.463c-0.221,0.197-0.539,0.292-0.953,0.292c-0.521,0-0.893-0.122-1.113-0.35
			c-0.234-0.235-0.433-0.562-0.607-0.987c-0.091-0.194-0.163-0.315-0.209-0.349c-0.547-0.935-1.39-1.648-2.528-2.153
			c-1.151-0.505-2.929-0.752-5.351-0.752c-0.726,0-1.968,0.08-3.737,0.228l-1.655,0.174c-0.106,0.429-0.171,1.261-0.209,2.503
			c-0.038,0.505-0.068,0.949-0.103,1.336c-0.137,2.168-0.213,5.621-0.213,10.348v4.121c2.495,0.08,4.311,0.122,5.449,0.122
			c1.041,0,1.812-0.027,2.336-0.061c1.104-0.042,2.027-0.258,2.776-0.668c0.736-0.406,1.515-1.287,2.305-2.65h2.188
			c-0.042,0.551-0.084,1.147-0.16,1.812c-0.137,1.276-0.205,2.396-0.205,3.368c0,1.052,0,1.766,0,2.184
			c0,0.402,0.027,1.227,0.092,2.465h-2.222c-0.517-1.124-1.212-1.903-2.073-2.328c-0.87-0.425-1.902-0.695-3.114-0.809
			c-1.554-0.16-4.011-0.236-7.371-0.236c0,2.711,0.038,5.161,0.114,7.352c0.064,2.191,0.163,4.892,0.304,8.107
			c0.038,0.965,0.312,1.773,0.805,2.412c0.501,0.642,1.144,1.135,1.918,1.484c0.778,0.354,1.599,0.581,2.468,0.695
			c0.862,0.11,1.793,0.171,2.807,0.171c1.485,0,2.712-0.11,3.676-0.342c0.965-0.231,1.914-0.778,2.856-1.633
			c0.517-0.46,1.245-1.314,2.176-2.553c0.688-0.892,1.241-1.553,1.659-1.979c0.414-0.429,0.832-0.642,1.246-0.642
			c0.41,0,0.756,0.11,1.025,0.323c0.288,0.209,0.425,0.38,0.425,0.497c0,0.46-0.364,1.409-1.078,2.849
			c-0.878,1.663-1.413,2.943-1.618,3.828l-0.053,0.121c-0.175,0.729-0.502,1.317-0.987,1.743c-0.479,0.425-1.481,0.638-3,0.638
			h-7.735c-2.143,0-4.045-0.019-5.7-0.057c-2.248,0-3.79,0-4.626,0C379.623,155.955,378.792,155.993,377.85,156.073z"/>
		<path fill="#FF5000" d="M417.343,126.111c-1.01-2.51-2.187-5.457-3.535-8.829l-0.881-2.135l-0.159-0.349
			c-0.547-1.489-1.132-2.692-1.729-3.596c-0.607-0.9-1.587-1.731-2.938-2.502l-0.152-0.805l1.504,0.171
			c2.461,0.231,4.166,0.35,5.131,0.35c1.219,0,3.288-0.099,6.231-0.289l0.356,0.745c-0.76,0.543-1.139,1.542-1.139,2.996
			c0,1.269,0.171,2.419,0.516,3.452c0.824,2.461,1.809,5.241,2.932,8.347c1.125,3.11,2.211,6.103,3.244,8.985
			c0.896,2.567,2.35,6.429,4.359,11.567l0.205,0.459c1.104-3.102,2.351-6.523,3.74-10.245c0.688-1.998,1.462-4.272,2.309-6.82
			c0.844-2.552,1.834-5.632,2.981-9.243c0.273-0.843,0.569-1.781,0.881-2.818c0.486-1.302,0.722-2.51,0.722-3.626
			c0-0.847-0.167-1.512-0.517-2.017c-0.342-0.494-1.01-0.862-1.975-1.094l0.372-0.919c2.658,0.308,4.693,0.456,6.11,0.456
			c0.702,0,1.853-0.053,3.482-0.167c1.382-0.118,2.476-0.194,3.273-0.228l-0.319,0.745c-1.143,0.539-2.119,1.382-2.954,2.537
			c-0.836,1.147-1.63,2.552-2.385,4.2c-0.802,1.917-1.603,3.949-2.389,6.072c-0.794,2.13-1.731,4.728-2.799,7.8
			c-0.559,1.61-0.976,2.784-1.238,3.513c-0.46,1.227-1.208,3.167-2.236,5.811c-1.109,2.802-2.149,5.518-3.141,8.146
			c-0.991,2.632-2.089,5.636-3.3,9.012c-0.062,0.151-0.24,0.322-0.517,0.521c-0.277,0.193-0.619,0.284-1.033,0.284
			c-0.422,0-0.778-0.11-1.086-0.346c-0.315-0.231-0.521-0.459-0.627-0.688c-0.554-1.609-1.249-3.505-2.081-5.669
			c-0.828-2.169-1.963-5.081-3.426-8.723c-0.789-1.959-1.412-3.513-1.856-4.66c-0.448-1.154-0.885-2.267-1.299-3.342
			C419.227,130.975,418.332,128.632,417.343,126.111z"/>
		<path fill="#FF5000" d="M487.12,109.751c2.81,1.269,5.188,3.019,7.124,5.245c1.94,2.236,3.41,4.815,4.408,7.735
			c1.003,2.924,1.5,6.057,1.5,9.399c0,3.425-0.569,6.653-1.728,9.668c-1.165,3.019-2.769,5.64-4.842,7.838
			c-2.081,2.218-4.496,3.931-7.241,5.138c-2.754,1.22-5.67,1.819-8.742,1.819c-3.084,0-5.996-0.638-8.742-1.906
			c-2.757-1.261-5.164-3.038-7.238-5.302c-2.069-2.271-3.688-4.887-4.85-7.845c-1.161-2.962-1.738-6.061-1.738-9.289
			c0-3.232,0.577-6.327,1.738-9.293c1.162-2.958,2.78-5.582,4.85-7.872c2.074-2.282,4.481-4.067,7.238-5.335
			c2.746-1.272,5.658-1.899,8.742-1.899C481.12,107.852,484.294,108.479,487.12,109.751z M471.553,112.637
			c-1.85,0.923-3.452,2.24-4.826,3.949c-1.367,1.713-2.419,3.775-3.163,6.175c-0.745,2.4-1.113,5.07-1.113,7.986
			c0,2.928,0.372,5.75,1.132,8.453c0.767,2.711,1.834,5.119,3.224,7.238c1.387,2.119,2.996,3.774,4.857,4.963
			c1.842,1.188,3.82,1.789,5.936,1.789c2.21,0,4.257-0.433,6.145-1.299c1.883-0.866,3.527-2.123,4.948-3.774
			c1.424-1.66,2.514-3.661,3.3-6.004c0.778-2.339,1.17-4.963,1.17-7.842c0-3.615-0.392-6.858-1.17-9.725
			c-0.786-2.864-1.876-5.286-3.3-7.265c-1.421-1.982-3.065-3.482-4.948-4.497c-1.888-1.025-3.935-1.538-6.145-1.538
			C475.419,111.247,473.407,111.718,471.553,112.637z"/>
		<path fill="#FF5000" d="M507.167,156.514l-0.058-0.988c0.422-0.231,0.836-0.604,1.246-1.104c0.418-0.505,0.805-1.113,1.17-1.808
			c0.364-0.699,0.653-1.417,0.881-2.153c0.221-0.744,0.338-1.405,0.338-1.982c0.068-2.954,0.099-5.396,0.099-7.318
			c0-1.925,0-4.648,0-8.184c0-2.958-0.03-5.966-0.099-9.038c-0.068-3.068-0.179-6.038-0.315-8.917
			c-0.068-1.436-0.3-2.688-0.698-3.763c-0.402-1.06-1.17-2.024-2.298-2.882v-0.703c1.618,0.16,2.894,0.277,3.828,0.357
			c0.931,0.076,1.826,0.114,2.696,0.114c0.691,0,1.822-0.053,3.376-0.174c1.352-0.118,2.377-0.194,3.057-0.232v0.695
			c-0.931,0.547-1.606,1.432-2.024,2.655c-0.409,1.223-0.676,2.593-0.774,4.113c-0.099,1.469-0.167,3.011-0.182,4.599
			c-0.016,1.603-0.03,3.611-0.03,6.064v6.935c0,2.757,0.037,5.233,0.113,7.432c0.061,2.191,0.171,4.922,0.304,8.188
			c0.106,1.944,0.706,3.266,1.785,3.995c1.094,0.718,2.59,1.074,4.488,1.074c1.284,0,2.583-0.213,3.896-0.646
			c1.313-0.421,2.469-1.082,3.475-1.971c0.593-0.509,1.317-1.522,2.18-3.038c0.517-0.893,0.961-1.561,1.325-2.009
			c0.361-0.452,0.76-0.672,1.224-0.672c0.546,0,0.911,0.117,1.086,0.345c0.171,0.236,0.262,0.472,0.262,0.703
			c0,0.315-0.087,0.718-0.239,1.23c-0.152,0.501-0.426,1.215-0.805,2.149c-0.691,1.75-1.14,3.057-1.345,3.907
			c-0.141,0.585-0.444,1.144-0.903,1.69c-0.475,0.55-1.154,0.835-2.059,0.873c-0.133,0-0.816,0.038-2.024,0.118
			c-2.069,0.155-3.626,0.235-4.667,0.235c-1.211,0-2.252-0.026-3.137-0.058c-0.877-0.037-2.005-0.103-3.342-0.178
			c-2.081-0.118-3.722-0.175-4.933-0.175C512.817,155.993,510.516,156.168,507.167,156.514z"/>
		<path fill="#FF5000" d="M547.583,156.073c-0.949,0.076-2.226,0.213-3.813,0.403c-0.168,0-0.448,0.026-0.836,0.057v-1.28
			c0.426-0.27,0.844-0.648,1.276-1.131c0.433-0.486,0.843-1.053,1.215-1.713c0.836-1.439,1.265-2.75,1.299-3.953
			c0.068-2.951,0.106-5.381,0.106-7.295c0-1.925,0-4.648,0-8.172c0-2.954-0.038-5.95-0.106-9.007
			c-0.068-3.069-0.179-6.035-0.312-8.902c-0.068-1.279-0.414-2.453-1.033-3.52c-0.622-1.063-1.583-1.963-2.916-2.696l-0.145-0.991
			l0.832,0.053c2.005,0.231,3.68,0.41,5.021,0.528c1.348,0.114,2.396,0.175,3.117,0.175c0.555,0,1.307-0.023,2.264-0.061
			c0.949-0.038,2.1-0.099,3.448-0.174c0.653-0.042,1.158-0.076,1.504-0.118c2.56-0.19,4.367-0.289,5.445-0.289
			c0.76,0,1.428,0.016,2.013,0.031c0.601,0.015,1.208,0.076,1.83,0.171c0.623,0.103,1.14,0.254,1.55,0.467
			c0.422,0.208,0.623,0.497,0.623,0.847c0,0.964,0.083,2.051,0.266,3.254c0.099,0.892,0.148,1.591,0.148,2.088
			c0,0.118-0.106,0.277-0.335,0.467c-0.22,0.198-0.543,0.292-0.96,0.292c-0.517,0-0.889-0.118-1.121-0.35
			c-0.22-0.231-0.414-0.565-0.588-0.987c-0.106-0.193-0.183-0.312-0.205-0.353c-0.559-0.93-1.409-1.644-2.553-2.149
			c-1.139-0.505-2.92-0.752-5.339-0.752c-0.729,0-1.971,0.076-3.737,0.224l-1.663,0.182c-0.091,0.425-0.175,1.261-0.205,2.495
			c-0.03,0.509-0.071,0.953-0.099,1.34c-0.145,2.168-0.205,5.621-0.205,10.345v4.135c2.484,0.072,4.303,0.114,5.445,0.114
			c1.033,0,1.813-0.019,2.332-0.061c1.109-0.038,2.035-0.262,2.772-0.665c0.744-0.41,1.515-1.291,2.309-2.651h2.188
			c-0.046,0.547-0.087,1.144-0.159,1.808c-0.145,1.276-0.205,2.4-0.205,3.373c0,1.044,0,1.77,0,2.18c0,0.403,0.03,1.23,0.099,2.472
			h-2.226c-0.527-1.124-1.215-1.895-2.077-2.328c-0.87-0.429-1.902-0.702-3.122-0.813c-1.553-0.156-4.01-0.235-7.355-0.235
			c0,2.715,0.03,5.168,0.103,7.359c0.062,2.188,0.171,4.896,0.315,8.108c0.022,0.968,0.296,1.776,0.794,2.415
			c0.505,0.642,1.143,1.132,1.925,1.48c0.771,0.354,1.596,0.585,2.457,0.695c0.87,0.114,1.804,0.175,2.807,0.175
			c1.484,0,2.711-0.11,3.684-0.35c0.965-0.231,1.922-0.771,2.855-1.625c0.506-0.46,1.246-1.314,2.172-2.556
			c0.691-0.893,1.25-1.55,1.664-1.982c0.418-0.426,0.832-0.635,1.241-0.635c0.422,0,0.756,0.103,1.045,0.315
			c0.266,0.217,0.41,0.384,0.41,0.498c0,0.463-0.357,1.416-1.087,2.848c-0.865,1.663-1.4,2.951-1.609,3.836l-0.05,0.117
			c-0.179,0.733-0.505,1.321-0.987,1.747c-0.482,0.425-1.484,0.638-3.012,0.638h-7.716c-2.157,0-4.056-0.019-5.712-0.057
			c-2.248,0-3.79,0-4.625,0C549.353,155.955,548.529,155.993,547.583,156.073z"/>
		<path fill="#FF5000" d="M595.44,156.354c-1.903,0.08-3.608,0.129-5.127,0.148c-1.534,0.012-3.995,0.03-7.42,0.03
			c-0.042,0-0.072,0-0.11,0c-0.209,0.034-0.384,0.053-0.517,0.053c-0.384,0-0.694-0.071-0.961-0.205
			c-0.258-0.137-0.388-0.398-0.388-0.79c0-0.068,0.213-0.413,0.654-1.014c0.433-0.607,1.557-2.168,3.395-4.693
			c2.407-3.308,4.314-5.901,5.681-7.785c1.363-1.883,3.068-4.227,5.108-7.033c2.039-2.795,4.45-6.121,7.234-9.964
			c2.779-3.854,6.049-8.381,9.774-13.587c-1.033-0.084-2.069-0.122-3.106-0.122s-2.34,0-3.896,0h-3.258
			c-3.604,0-6.521,0.167-8.772,0.498c-2.256,0.33-3.961,0.828-5.134,1.481c-0.486,0.319-0.859,0.668-1.117,1.056
			c-0.266,0.391-0.493,0.874-0.698,1.458c-0.205,0.543-0.403,0.934-0.601,1.166c-0.186,0.232-0.475,0.349-0.854,0.349
			c-0.444,0-0.801-0.186-1.06-0.554c-0.266-0.368-0.395-0.646-0.395-0.843c0-0.547,0.088-1.401,0.258-2.567
			c0.209-1.557,0.319-2.799,0.319-3.733c0-0.585,0.217-1.025,0.672-1.337c0.452-0.315,1.311-0.471,2.587-0.471
			c1.01,0,2.001,0.008,2.984,0.026c0.987,0.023,3.022,0.068,6.103,0.148c1.971,0.038,3.49,0.068,4.561,0.087
			c1.079,0.02,1.972,0.031,2.696,0.031c1.003,0,4.018,0.023,9.023,0.057c5.616,0.076,8.479,0.121,8.62,0.121
			c0.479,0,0.866,0.091,1.14,0.289c0.273,0.189,0.41,0.387,0.41,0.581c0,0.08-0.072,0.254-0.205,0.528l-0.05,0.11l-30.87,41.993
			l-0.053,0.113c-0.031,0.076-0.05,0.194-0.05,0.354c0,0.315,0.27,0.521,0.802,0.638c0.539,0.118,1.511,0.175,2.936,0.175
			c0.584,0,1.75-0.019,3.471-0.057l1.404-0.057c0.209,0,0.482-0.023,0.824-0.062c1.455-0.034,2.932-0.106,4.413-0.205
			c1.496-0.095,3.091-0.246,4.796-0.467c1.713-0.213,3.327-0.524,4.827-0.931c1.504-0.41,2.636-0.907,3.398-1.484
			c0.589-0.43,1.299-1.113,2.131-2.043c0.517-0.585,0.927-0.999,1.241-1.257c0.315-0.247,0.653-0.38,1.037-0.38
			c0.456,0,0.797,0.109,1.063,0.326c0.266,0.213,0.388,0.38,0.388,0.49c0,0.429-0.373,1.283-1.14,2.566
			c-0.486,0.783-0.866,1.463-1.162,2.044c-0.304,0.581-0.509,1.188-0.653,1.804c-0.061,0.273-0.179,0.577-0.33,0.907
			c-0.167,0.331-0.406,0.672-0.752,1.021c-0.354,0.35-0.816,0.638-1.379,0.87c-0.573,0.231-1.257,0.353-2.051,0.353
			c-0.623,0-3.338-0.053-8.146-0.171c-0.794-0.045-2.214-0.083-4.253-0.117c-2.039-0.046-3.392-0.064-4.045-0.064
			C599.214,156.278,597.411,156.316,595.44,156.354z"/>
		<path fill="#FF5000" d="M645.096,156.297c-1.902,0.072-3.615,0.125-5.142,0.145c-1.527,0.019-3.995,0.022-7.409,0.022
			c-0.046,0-0.068,0-0.118,0c-0.197,0.042-0.376,0.068-0.513,0.068c-0.38,0-0.694-0.072-0.96-0.209
			c-0.251-0.137-0.392-0.398-0.392-0.786c0-0.084,0.224-0.422,0.657-1.021c0.425-0.596,1.564-2.168,3.398-4.689
			c2.419-3.297,4.311-5.891,5.682-7.774c1.363-1.884,3.061-4.227,5.104-7.025c2.039-2.795,4.451-6.118,7.234-9.957
			c2.787-3.851,6.045-8.374,9.782-13.58c-1.033-0.072-2.073-0.114-3.114-0.114c-1.033,0-2.332,0-3.889,0h-3.273
			c-3.592,0-6.517,0.163-8.765,0.497c-2.24,0.331-3.957,0.824-5.134,1.481c-0.486,0.312-0.851,0.661-1.109,1.052
			c-0.258,0.387-0.493,0.874-0.702,1.455c-0.209,0.55-0.414,0.93-0.597,1.166c-0.189,0.232-0.479,0.35-0.861,0.35
			c-0.452,0-0.81-0.186-1.063-0.551c-0.263-0.372-0.384-0.653-0.384-0.851c0-0.543,0.084-1.397,0.251-2.56
			c0.212-1.557,0.315-2.799,0.315-3.729c0-0.589,0.228-1.029,0.68-1.34c0.439-0.308,1.31-0.464,2.597-0.464
			c0.995,0,1.994,0.008,2.974,0.031c0.991,0.011,3.016,0.061,6.096,0.14c1.967,0.038,3.489,0.072,4.564,0.091
			c1.078,0.019,1.975,0.023,2.695,0.023c1.011,0,4.015,0.019,9.027,0.064c5.609,0.076,8.473,0.114,8.624,0.114
			c0.471,0,0.851,0.099,1.132,0.296c0.273,0.19,0.414,0.38,0.414,0.581c0,0.068-0.064,0.25-0.209,0.521l-0.046,0.121l-30.874,41.943
			l-0.045,0.122c-0.03,0.072-0.046,0.189-0.046,0.346c0,0.312,0.259,0.527,0.798,0.638c0.539,0.122,1.504,0.175,2.928,0.175
			c0.592,0,1.75-0.02,3.471-0.053l1.413-0.058c0.193,0,0.471-0.022,0.823-0.064c1.451-0.038,2.917-0.106,4.413-0.205
			c1.485-0.091,3.08-0.251,4.796-0.463c1.721-0.209,3.313-0.524,4.827-0.931c1.504-0.406,2.636-0.908,3.392-1.488
			c0.588-0.426,1.303-1.105,2.13-2.032c0.517-0.593,0.931-1.003,1.249-1.261c0.305-0.251,0.653-0.38,1.037-0.38
			c0.44,0,0.798,0.114,1.063,0.323c0.251,0.216,0.388,0.38,0.388,0.497c0,0.426-0.388,1.28-1.147,2.56
			c-0.479,0.778-0.866,1.462-1.162,2.043s-0.517,1.186-0.653,1.808c-0.068,0.27-0.174,0.566-0.33,0.896
			c-0.159,0.338-0.414,0.672-0.756,1.025c-0.35,0.346-0.805,0.642-1.375,0.866c-0.573,0.242-1.249,0.36-2.05,0.36
			c-0.623,0-3.331-0.068-8.149-0.179c-0.79-0.038-2.207-0.076-4.25-0.117c-2.043-0.038-3.383-0.064-4.052-0.064
			C648.863,156.217,647.067,156.251,645.096,156.297z"/>
		<path fill="#FF5000" d="M718.217,149.849c0.528,1.511,1.154,2.723,1.898,3.657c0.745,0.923,1.667,1.663,2.776,2.198v0.927
			c-1.42-0.27-2.658-0.463-3.714-0.581c-1.063-0.118-2.028-0.171-2.925-0.171c-1.078,0-2.152,0.046-3.224,0.141
			c-1.067,0.103-2.37,0.289-3.893,0.551v-0.806c0-0.27,0.235-0.736,0.68-1.39c0.649-0.972,0.983-1.739,0.983-2.32
			c0-0.387-0.045-0.805-0.137-1.253c-0.075-0.44-0.159-0.74-0.22-0.896l-3.995-12.182c-2.188-0.19-4.124-0.285-5.818-0.285
			c-2.385,0-4.428,0.095-6.121,0.285l-4.564,13.227v0.053c-0.243,0.623-0.388,1.098-0.463,1.424
			c-0.068,0.331-0.106,0.706-0.106,1.132c0,0.889,0.312,1.659,0.93,2.32v0.691c-1.173-0.19-2.16-0.327-2.946-0.402
			c-0.809-0.076-1.546-0.118-2.24-0.118c-0.794,0-1.626,0.042-2.488,0.118c-0.861,0.075-1.997,0.235-3.368,0.463l0.673-0.927
			c1.275-0.497,2.377-1.234,3.292-2.198c0.911-0.973,1.687-2.29,2.309-3.946l12.35-33.524c0.072-0.151,0.103-0.417,0.103-0.813
			c0-1.15-0.357-2.309-1.063-3.444c-0.706-1.143-1.647-2.176-2.825-3.103l-0.209-0.703c2.662,0.281,5.078,0.41,7.265,0.41h2.222
			l2.499,6.9L718.217,149.849z M705.298,134.598v-0.175l-4.554-13.455l-4.884,13.455v0.175c2.074,0.076,3.631,0.11,4.664,0.11
			S703.156,134.674,705.298,134.598z"/>
		<path fill="#FF5000" d="M43.33,156.331c-0.953,0.064-2.153,0.171-3.604,0.322v-0.82c0.935-0.543,1.664-1.233,2.176-2.073
			c0.52-0.839,0.793-1.876,0.832-3.129c0.068-3.9,0.099-9.726,0.099-17.488c0-2.962-0.03-5.985-0.099-9.064
			c-0.072-3.08-0.175-6.061-0.312-8.947c-0.076-1.443-0.296-2.704-0.676-3.771c-0.38-1.074-1.139-2.043-2.278-2.897v-0.698
			c1.587,0.151,2.852,0.266,3.793,0.345c0.923,0.076,1.827,0.122,2.688,0.122c0.653,0,1.766-0.064,3.323-0.179
			c1.352-0.114,2.4-0.193,3.16-0.235v0.703c-0.964,0.543-1.656,1.432-2.073,2.662c-0.414,1.223-0.668,2.605-0.775,4.121
			c-0.099,1.484-0.167,3.026-0.182,4.625c-0.019,1.599-0.027,3.627-0.027,6.08v6.961c0,5.381,0.137,11.149,0.414,17.313
			c0.106,2.65,1.124,4.5,3.061,5.552v0.82c-1.625-0.151-2.932-0.258-3.919-0.322c-0.987-0.054-1.944-0.088-2.871-0.088
			C45.191,156.243,44.283,156.278,43.33,156.331z"/>
	</g>
	<g>
		<g>
			<g opacity="0.9">
				<path fill="#FFFFFF" d="M236.992-284.758c-3.296-3.688-8.066-6.023-13.413-6.023h-44.856c-9.942,0-18,8.07-18,18.004v257.536
					c0,9.809,7.831,17.765,17.583,17.985c0.145,0.011,36.707,0.011,36.851,0c9.752-0.22,17.59-8.176,17.59-17.985v-118.106
					c0-9.945,8.073-18.008,17.993-18.008c5.818,0,10.975,2.761,14.271,7.029l71.94,100.387v-100.053
					C336.951-143.992,237.945-283.691,236.992-284.758z"/>
				<path fill="#FFFFFF" d="M510.755-11.827L317.72-283.163c-3.258-4.61-8.635-7.618-14.697-7.618h-45.221
					c-4.937,0-8.924,4.002-8.924,8.943c0,1.91,0.592,3.691,1.618,5.138L443.197-5.633c3.247,4.664,8.659,7.732,14.78,7.732h45.351
					c4.925,0,8.939-4.006,8.939-8.939C512.267-8.686,511.705-10.406,510.755-11.827z"/>
			</g>
			<path fill="#FFFFFF" d="M525.353-3.279c3.3,3.695,8.081,6.023,13.412,6.023h44.864c9.957,0,18.008-8.059,18.008-18.004v-257.529
				c0-9.801-7.834-17.772-17.586-17.981c-0.141-0.011-36.719-0.011-36.848,0c-9.752,0.209-17.59,8.18-17.59,17.981v118.106
				c0,9.95-8.066,18.004-18.012,18.004c-5.814,0-10.972-2.753-14.26-7.029l-73-102.063v100.057
				C424.342-145.712,524.408-4.338,525.353-3.279z"/>
			<path fill="#FFFFFF" d="M424.342,0.23c0,0-55.067,0-55.364-0.007c-8.286-0.187-15.065-7.117-15.065-15.433v-104.561l-2.548-3.619
				v108.18c0,9.813,7.838,17.769,17.59,17.997c0.129,0,55.387,0,55.387,0V0.23z"/>
			<path fill="#FFFFFF" d="M394.278-288.206c0,0-25.003,0-25.299,0c-8.286,0.19-15.065,7.117-15.065,15.429v28.314l-2.548-3.585
				v-24.729c0-9.797,7.838-17.765,17.59-17.981c0.129,0,19.542,0,23.602,0L394.278-288.206z"/>
		</g>
		<linearGradient id="SVGID_1_" gradientUnits="userSpaceOnUse" x1="336.9507" y1="-143.9802" x2="160.7227" y2="-143.9802">
			<stop  offset="0" style="stop-color:#E8510E"/>
			<stop  offset="0.1108" style="stop-color:#E7470F"/>
			<stop  offset="0.3026" style="stop-color:#E52A11"/>
			<stop  offset="0.5048" style="stop-color:#E20613"/>
		</linearGradient>
		<path fill="url(#SVGID_1_)" d="M236.992-284.717c-3.296-3.691-8.066-6.03-13.413-6.03h-44.856c-9.942,0-18,8.073-18,18.012
			v257.532c0,9.805,7.831,17.761,17.583,17.989c0.145,0,36.707,0,36.851,0c9.752-0.228,17.59-8.184,17.59-17.989v-118.11
			c0-9.942,8.073-18.008,17.993-18.008c5.818,0,10.975,2.761,14.271,7.029l71.94,100.391v-100.057
			C336.951-143.958,237.945-283.661,236.992-284.717z"/>
		<path fill="#FF5000" d="M510.755-11.793L317.72-283.125c-3.258-4.614-8.635-7.622-14.697-7.622h-45.221
			c-4.937,0-8.924,4.002-8.924,8.943c0,1.906,0.592,3.691,1.618,5.138L443.197-5.603c3.247,4.675,8.659,7.736,14.78,7.736h45.351
			c4.925,0,8.939-4.003,8.939-8.947C512.267-8.652,511.705-10.372,510.755-11.793z"/>
		<linearGradient id="SVGID_2_" gradientUnits="userSpaceOnUse" x1="424.3423" y1="-143.9788" x2="601.6372" y2="-143.9788">
			<stop  offset="0" style="stop-color:#E8510E"/>
			<stop  offset="0.1108" style="stop-color:#E7470F"/>
			<stop  offset="0.3026" style="stop-color:#E52A11"/>
			<stop  offset="0.5048" style="stop-color:#E20613"/>
		</linearGradient>
		<path fill="url(#SVGID_2_)" d="M525.353-3.248c3.3,3.699,8.081,6.035,13.412,6.035h44.864c9.957,0,18.008-8.07,18.008-18.012
			v-257.533c0-9.801-7.834-17.769-17.586-17.978c-0.141-0.011-36.719-0.011-36.848,0c-9.752,0.209-17.59,8.176-17.59,17.978v118.114
			c0,9.946-8.066,18-18.012,18c-5.814,0-10.972-2.757-14.26-7.029l-73-102.059v100.053C424.342-145.678,524.408-4.3,525.353-3.248z"
			/>
		<path fill="#FF5000" d="M424.342,0.264c0,0-55.067,0-55.364-0.007c-8.286-0.183-15.065-7.113-15.065-15.43v-104.561l-2.548-3.627
			v108.188c0,9.802,7.838,17.769,17.59,17.989c0.129,0.004,55.387,0,55.387,0V0.264z"/>
		<path fill="#FF5000" d="M394.278-288.172c0,0-25.003,0-25.299,0c-8.286,0.194-15.065,7.113-15.065,15.429v28.314l-2.548-3.585
			v-24.729c0-9.801,7.838-17.761,17.59-17.981c0.129,0,19.542,0,23.602,0L394.278-288.172z"/>
	</g>
</g>
</svg>
