<?xml version="1.0" encoding="utf-8"?>
<!-- Generator: Adobe Illustrator 16.0.3, SVG Export Plug-In . SVG Version: 6.00 Build 0)  -->
<!DOCTYPE svg PUBLIC "-//W3C//DTD SVG 1.1//EN" "http://www.w3.org/Graphics/SVG/1.1/DTD/svg11.dtd">
<svg version="1.1" id="Livello_1" xmlns="http://www.w3.org/2000/svg" xmlns:xlink="http://www.w3.org/1999/xlink" x="0px" y="0px"
	 width="762.55px" height="217.457px" viewBox="0 67.313 762.55 217.457" enable-background="new 0 67.313 762.55 217.457"
	 xml:space="preserve">
<g>
	<path fill="#1D1D1B" d="M295.47,135.225c0.132,0.927,0.441,1.69,0.917,2.285c0.479,0.592,1.117,1.06,1.916,1.392v0.569
		c-0.913-0.166-1.704-0.284-2.382-0.357c-0.676-0.067-1.316-0.103-1.914-0.103c-0.666,0-1.35,0.027-2.034,0.087
		c-0.69,0.06-1.522,0.17-2.501,0.34v-0.502c0-0.21,0.194-0.463,0.571-0.749c0.261-0.214,0.473-0.412,0.615-0.588
		c0.146-0.182,0.216-0.433,0.216-0.769c0-0.02-0.012-0.058-0.034-0.107v-0.142l-2.001-15.813l-7.03,18.204
		c-0.065,0.095-0.182,0.204-0.35,0.32c-0.164,0.121-0.362,0.178-0.583,0.178c-0.289,0-0.5-0.047-0.633-0.142
		s-0.255-0.235-0.368-0.428c-0.087-0.188-0.186-0.401-0.296-0.624c-0.113-0.226-0.248-0.511-0.419-0.86
		c-0.166-0.342-0.464-1.004-0.897-1.977c-0.433-0.979-1.107-2.489-2.017-4.533c-2.556-5.714-4.088-9.124-4.598-10.243l-1.762,14.529
		c-0.023,0.118-0.034,0.354-0.034,0.707c0,0.741,0.137,1.343,0.413,1.806c0.279,0.462,0.732,0.836,1.351,1.125l0.233,0.606
		c-0.777-0.123-1.574-0.21-2.38-0.269c-0.811-0.06-1.504-0.091-2.084-0.091c-0.514,0-1.043,0.027-1.601,0.072
		c-0.556,0.048-1.277,0.143-2.163,0.287l0.429-0.573c0.737-0.263,1.331-0.795,1.785-1.605c0.455-0.809,0.751-1.783,0.878-2.924
		l2.639-20.776c0-1.403-0.68-2.615-2.034-3.642v-0.427c0.842,0.095,1.565,0.156,2.165,0.18c0.595,0.022,1.358,0.038,2.268,0.038
		l9.494,22.201l7.097-17.959l1.667-4.242c0.488,0,0.906-0.01,1.25-0.022c0.344-0.01,0.914-0.039,1.712-0.087
		c0.668-0.051,1.159-0.085,1.469-0.108v0.427c-0.578,0.334-1.04,0.839-1.384,1.519c-0.342,0.678-0.512,1.362-0.512,2.052
		c0,0.071,0,0.167,0,0.287c0.018,0.118,0.03,0.201,0.03,0.251L295.47,135.225z"/>
	<path fill="#1D1D1B" d="M308.755,139.187c-1.115-0.189-2.165-0.587-3.167-1.188c-1-0.604-1.823-1.519-2.465-2.74
		c-0.643-1.22-0.979-2.789-1.002-4.711l-0.032-2.489c-0.043-1.518-0.063-2.526-0.063-3.022c0-0.689,0.02-1.957,0.063-3.806
		c0.023-1.685,0.032-3.034,0.032-4.053c0-0.759-0.018-1.827-0.062-3.201c-0.047-0.879-0.198-1.645-0.455-2.297
		c-0.253-0.648-0.746-1.237-1.479-1.756v-0.427c1.044,0.093,1.862,0.166,2.465,0.212c0.599,0.045,1.174,0.071,1.734,0.071
		c0.441,0,1.165-0.036,2.161-0.107c0.866-0.071,1.526-0.118,1.967-0.144v0.431c-0.601,0.332-1.034,0.87-1.299,1.619
		c-0.263,0.741-0.433,1.579-0.5,2.503c-0.063,0.903-0.107,1.839-0.113,2.812c-0.014,0.973-0.024,2.204-0.024,3.698v4.229
		c0,0.712,0.01,1.432,0.024,2.153c0.006,0.722,0.034,1.704,0.079,2.934c0.045,1.635,0.233,2.96,0.565,3.964
		c0.332,1.011,0.771,1.768,1.299,2.277c0.536,0.509,1.129,0.847,1.787,1.015c0.65,0.164,1.435,0.249,2.347,0.249
		c1.246,0,2.262-0.097,3.048-0.285c0.787-0.188,1.453-0.571,2.001-1.141c0.545-0.569,0.96-1.407,1.267-2.522
		c0.298-1.113,0.473-2.584,0.51-4.408c0.029-0.666,0.033-1.469,0.033-2.418v-1.71c0-0.309,0.014-1.372,0.034-3.197
		c0-1.237,0-2.362,0-3.38c0-1.97-0.02-3.427-0.067-4.374c-0.038-1.114-0.19-1.938-0.445-2.469c-0.257-0.536-0.817-1.054-1.683-1.548
		v-0.431c0.577,0.025,1.222,0.072,1.928,0.144c0.603,0.05,1.016,0.071,1.237,0.071c0.419,0,1.131-0.035,2.129-0.106
		c0.868-0.071,1.544-0.119,2.034-0.141v0.427c-0.686,0.38-1.154,0.847-1.399,1.404c-0.246,0.554-0.39,1.461-0.435,2.718
		c-0.065,1.493-0.101,3.074-0.113,4.747s-0.018,3.669-0.018,5.992c0,0.193,0,0.698,0,1.53c-0.022,0.854-0.034,1.376-0.034,1.563
		c0,2.588-0.265,4.666-0.789,6.245c-0.514,1.576-1.237,2.744-2.161,3.498c-0.919,0.763-1.969,1.257-3.149,1.496
		c-1.176,0.239-2.598,0.354-4.26,0.354C311.041,139.471,309.864,139.378,308.755,139.187z"/>
	<path fill="#1D1D1B" d="M332.914,139.297c-0.666-0.142-1.475-0.369-2.434-0.678c-0.399-0.119-0.666-0.204-0.801-0.251
		c-0.597-0.188-0.988-0.469-1.18-0.839c-0.194-0.367-0.283-0.875-0.283-1.516c0-0.024-0.012-0.145-0.036-0.36
		c-0.063-0.332-0.121-0.72-0.166-1.16c-0.049-0.44-0.067-0.851-0.067-1.233c0-0.309,0.095-0.619,0.283-0.928
		c0.189-0.311,0.508-0.462,0.947-0.462c0.202,0,0.374,0.112,0.516,0.34c0.15,0.228,0.332,0.601,0.553,1.123
		c0.333,0.836,0.619,1.405,0.864,1.714c0.581,0.716,1.329,1.311,2.253,1.787c0.921,0.475,1.71,0.714,2.376,0.714
		c0.516,0,1.028-0.104,1.55-0.303c0.524-0.202,1.019-0.514,1.485-0.932c0.465-0.415,0.836-0.946,1.117-1.589
		c0.279-0.643,0.417-1.366,0.417-2.177c0-0.789-0.144-1.513-0.433-2.177c-0.287-0.668-0.688-1.281-1.186-1.841
		s-1.038-1.075-1.615-1.556c-0.575-0.473-1.32-1.044-2.228-1.712c-0.977-0.714-1.777-1.326-2.402-1.839
		c-0.621-0.512-1.204-1.087-1.748-1.733c-0.544-0.641-0.981-1.351-1.299-2.125c-0.325-0.773-0.484-1.611-0.484-2.516
		c0-0.905,0.156-1.795,0.464-2.679c0.314-0.879,0.781-1.688,1.417-2.428c0.631-0.739,1.441-1.334,2.416-1.785
		c0.979-0.45,2.113-0.678,3.398-0.678c0.575,0,1.388,0.104,2.432,0.318c0.846,0.189,1.443,0.288,1.799,0.288
		c0.024,0,0.067-0.023,0.137-0.07c0.176-0.1,0.372-0.177,0.583-0.231c0.208-0.063,0.502-0.093,0.884-0.093
		c0.311,0,0.524,0.061,0.646,0.178c0.123,0.118,0.184,0.228,0.184,0.322c0,0.595,0.054,1.465,0.168,2.607
		c0.087,1.048,0.129,1.831,0.129,2.356c0,0.141-0.063,0.311-0.194,0.502c-0.139,0.19-0.362,0.283-0.667,0.283
		c-0.338,0-0.625-0.162-0.872-0.482c-0.243-0.32-0.52-0.779-0.831-1.374c-0.31-0.569-0.534-0.93-0.666-1.069
		c-0.621-0.571-1.295-0.991-2.019-1.252c-0.718-0.261-1.425-0.394-2.115-0.394c-0.84,0-1.633,0.38-2.363,1.145
		c-0.733,0.76-1.101,1.655-1.101,2.677c0,1.264,0.433,2.375,1.283,3.34c0.854,0.965,2.171,2.127,3.948,3.485
		c0.999,0.757,1.825,1.423,2.481,1.979c0.658,0.56,1.283,1.198,1.882,1.908c0.603,0.716,1.076,1.494,1.436,2.345
		c0.354,0.842,0.542,1.751,0.565,2.729c0,1.071-0.188,2.113-0.565,3.125c-0.378,1.009-0.951,1.924-1.72,2.732
		c-0.765,0.811-1.732,1.457-2.898,1.945c-1.165,0.488-2.505,0.733-4.007,0.733C334.321,139.513,333.58,139.442,332.914,139.297z"/>
	<path fill="#1D1D1B" d="M352.772,139.139c-0.611,0.048-1.429,0.129-2.443,0.251c-0.115,0-0.293,0.013-0.54,0.036v-0.791
		c0.277-0.164,0.54-0.394,0.823-0.698c0.274-0.298,0.536-0.65,0.783-1.058c0.532-0.886,0.807-1.696,0.834-2.438
		c0.039-1.816,0.063-3.319,0.063-4.501c0-1.183,0-2.863,0-5.038c0-1.814-0.024-3.669-0.063-5.555
		c-0.048-1.891-0.113-3.721-0.204-5.488c-0.041-0.791-0.269-1.515-0.662-2.171c-0.407-0.658-1.028-1.212-1.87-1.664l-0.099-0.613
		l0.534,0.036c1.283,0.142,2.364,0.251,3.228,0.32c0.868,0.072,1.538,0.11,1.997,0.11c0.362,0,0.84-0.012,1.453-0.038
		c0.615-0.021,1.35-0.055,2.216-0.108c0.425-0.021,0.746-0.046,0.967-0.069c1.639-0.116,2.808-0.18,3.496-0.18
		c0.492,0,0.925,0.006,1.305,0.018c0.375,0.014,0.767,0.048,1.167,0.109c0.396,0.061,0.729,0.158,0.996,0.288
		c0.267,0.129,0.401,0.305,0.401,0.519c0,0.599,0.058,1.267,0.164,2.008c0.069,0.55,0.101,0.98,0.101,1.291
		c0,0.069-0.073,0.166-0.218,0.287c-0.142,0.118-0.348,0.18-0.617,0.18c-0.334,0-0.571-0.073-0.716-0.214
		c-0.144-0.144-0.272-0.35-0.385-0.61c-0.061-0.121-0.109-0.194-0.126-0.216c-0.36-0.575-0.901-1.018-1.637-1.328
		c-0.733-0.307-1.878-0.465-3.432-0.465c-0.465,0-1.264,0.046-2.4,0.145l-1.067,0.106c-0.063,0.263-0.107,0.775-0.128,1.542
		c-0.022,0.309-0.045,0.583-0.067,0.826c-0.089,1.339-0.132,3.464-0.132,6.38v2.547c1.597,0.047,2.762,0.071,3.493,0.071
		c0.67,0,1.167-0.013,1.502-0.036c0.71-0.025,1.307-0.16,1.779-0.413c0.484-0.249,0.977-0.793,1.485-1.629h1.4
		c-0.024,0.332-0.054,0.706-0.101,1.109c-0.091,0.788-0.132,1.486-0.132,2.079c0,0.646,0,1.094,0,1.345s0.023,0.761,0.067,1.524
		h-1.435c-0.33-0.692-0.773-1.171-1.329-1.432c-0.556-0.263-1.22-0.433-1.999-0.504c-1-0.095-2.576-0.145-4.731-0.145
		c0,1.675,0.02,3.188,0.065,4.537c0.046,1.351,0.113,3.017,0.2,5.002c0.022,0.599,0.196,1.095,0.516,1.49
		c0.322,0.394,0.735,0.698,1.236,0.916c0.498,0.211,1.026,0.355,1.582,0.427c0.553,0.075,1.154,0.108,1.799,0.108
		c0.953,0,1.744-0.073,2.367-0.215c0.619-0.145,1.228-0.477,1.833-1.005c0.328-0.286,0.799-0.811,1.397-1.577
		c0.443-0.548,0.801-0.957,1.066-1.22c0.267-0.264,0.532-0.394,0.801-0.394c0.265,0,0.488,0.067,0.662,0.195
		c0.182,0.133,0.271,0.233,0.271,0.309c0,0.284-0.235,0.872-0.702,1.754c-0.555,1.025-0.897,1.816-1.032,2.366l-0.032,0.073
		c-0.113,0.454-0.324,0.814-0.635,1.075c-0.31,0.265-0.955,0.397-1.929,0.397h-4.968c-1.376,0-2.6-0.016-3.666-0.038
		c-1.443,0-2.428,0-2.965,0C353.909,139.068,353.385,139.09,352.772,139.139z"/>
	<path fill="#1D1D1B" d="M393.529,110.584c1.811,0.78,3.337,1.86,4.583,3.229c1.241,1.376,2.187,2.966,2.835,4.761
		c0.641,1.802,0.965,3.729,0.965,5.793c0,2.105-0.372,4.09-1.119,5.946c-0.744,1.86-1.783,3.472-3.116,4.834
		c-1.332,1.36-2.878,2.414-4.646,3.159c-1.764,0.747-3.638,1.119-5.619,1.119c-1.977,0-3.847-0.392-5.613-1.173
		c-1.766-0.778-3.31-1.87-4.644-3.266c-1.333-1.397-2.372-3.009-3.118-4.83c-0.745-1.826-1.113-3.73-1.113-5.721
		c0-1.991,0.368-3.896,1.113-5.72c0.746-1.822,1.785-3.436,3.118-4.848c1.334-1.409,2.878-2.505,4.644-3.285
		c1.767-0.781,3.637-1.173,5.613-1.173C389.681,109.411,391.722,109.803,393.529,110.584z M383.533,112.36
		c-1.186,0.569-2.223,1.38-3.097,2.434c-0.879,1.056-1.556,2.32-2.03,3.802c-0.479,1.48-0.722,3.121-0.722,4.916
		c0,1.804,0.248,3.537,0.738,5.204c0.488,1.672,1.176,3.157,2.062,4.456c0.89,1.309,1.927,2.324,3.116,3.06
		c1.19,0.731,2.46,1.098,3.812,1.098c1.424,0,2.74-0.265,3.95-0.797c1.21-0.531,2.273-1.309,3.183-2.325
		c0.914-1.018,1.617-2.251,2.116-3.694c0.502-1.445,0.751-3.057,0.751-4.832c0-2.228-0.249-4.219-0.751-5.984
		c-0.499-1.764-1.202-3.256-2.116-4.476c-0.909-1.22-1.973-2.146-3.183-2.771c-1.21-0.627-2.526-0.941-3.95-0.941
		C386.016,111.507,384.723,111.791,383.533,112.36z"/>
	<path fill="#1D1D1B" d="M430.379,120.692c-0.648-1.55-1.403-3.362-2.27-5.446l-0.565-1.311l-0.103-0.214
		c-0.352-0.921-0.72-1.66-1.107-2.214c-0.396-0.558-1.02-1.069-1.89-1.546l-0.095-0.496l0.965,0.108
		c1.573,0.143,2.673,0.214,3.297,0.214c0.775,0,2.111-0.06,3.998-0.178l0.233,0.458c-0.486,0.334-0.731,0.947-0.731,1.849
		c0,0.779,0.11,1.488,0.332,2.125c0.533,1.517,1.158,3.227,1.886,5.143c0.716,1.913,1.411,3.762,2.08,5.533
		c0.577,1.586,1.51,3.96,2.799,7.129l0.131,0.283c0.712-1.914,1.511-4.02,2.4-6.313c0.442-1.228,0.937-2.628,1.479-4.203
		c0.545-1.57,1.186-3.468,1.918-5.689c0.178-0.522,0.371-1.102,0.564-1.74c0.313-0.807,0.467-1.548,0.467-2.232
		c0-0.521-0.11-0.937-0.332-1.241c-0.222-0.309-0.645-0.535-1.27-0.676l0.237-0.569c1.708,0.189,3.021,0.286,3.931,0.286
		c0.442,0,1.19-0.035,2.23-0.106c0.893-0.071,1.593-0.119,2.107-0.141l-0.206,0.457c-0.731,0.332-1.364,0.85-1.901,1.56
		c-0.53,0.71-1.04,1.576-1.526,2.594c-0.515,1.183-1.024,2.426-1.534,3.74c-0.515,1.312-1.107,2.914-1.804,4.807
		c-0.355,0.99-0.616,1.712-0.798,2.158c-0.285,0.764-0.768,1.954-1.428,3.587c-0.712,1.726-1.388,3.398-2.021,5.021
		c-0.629,1.619-1.337,3.468-2.111,5.547c-0.052,0.1-0.162,0.202-0.332,0.318c-0.178,0.121-0.399,0.178-0.669,0.178
		c-0.272,0-0.502-0.068-0.703-0.209c-0.202-0.145-0.332-0.287-0.399-0.429c-0.353-0.991-0.795-2.155-1.329-3.494
		c-0.533-1.336-1.269-3.123-2.202-5.373c-0.51-1.206-0.905-2.165-1.198-2.87c-0.288-0.712-0.569-1.396-0.834-2.061
		C431.589,123.692,431.016,122.242,430.379,120.692z"/>
	<path fill="#1D1D1B" d="M460.568,139.343c-0.612,0.035-1.38,0.104-2.313,0.197v-0.502c0.601-0.338,1.063-0.761,1.399-1.277
		c0.332-0.516,0.506-1.156,0.529-1.925c0.048-2.396,0.067-5.98,0.067-10.753c0-1.821-0.02-3.68-0.067-5.575
		c-0.043-1.895-0.11-3.729-0.197-5.504c-0.044-0.884-0.193-1.659-0.431-2.319c-0.245-0.658-0.74-1.249-1.472-1.779v-0.429
		c1.024,0.093,1.835,0.164,2.433,0.209c0.601,0.054,1.178,0.079,1.731,0.079c0.423,0,1.135-0.037,2.135-0.112
		c0.87-0.071,1.542-0.118,2.032-0.141v0.432c-0.62,0.332-1.067,0.88-1.332,1.635c-0.265,0.753-0.436,1.6-0.498,2.536
		c-0.071,0.909-0.107,1.858-0.119,2.841c-0.012,0.984-0.02,2.23-0.02,3.738v4.284c0,3.306,0.095,6.854,0.269,10.643
		c0.067,1.629,0.724,2.771,1.97,3.418v0.502c-1.048-0.093-1.883-0.162-2.519-0.197c-0.633-0.038-1.246-0.054-1.851-0.054
		C461.762,139.289,461.181,139.305,460.568,139.343z"/>
	<path fill="#1D1D1B" d="M479.231,109.666c1.328-0.093,2.328-0.143,3.001-0.143c0.822,0,1.764,0.127,2.827,0.376
		c1.067,0.251,1.913,0.595,2.538,1.026c1.194,0.767,2.088,1.762,2.665,2.985c0.573,1.224,0.866,2.469,0.866,3.74
		c0,1.368-0.309,2.669-0.922,3.902c-0.604,1.231-1.467,2.258-2.582,3.076c-0.442,0.311-0.865,0.538-1.265,0.683
		c0.313,0.527,0.811,1.392,1.498,2.588c0.934,1.633,1.748,3.015,2.432,4.153c0.692,1.139,1.436,2.218,2.219,3.238
		c0.786,1.016,1.597,1.834,2.42,2.445c0.818,0.613,1.617,0.917,2.396,0.917c0.131,0,0.32-0.016,0.569-0.035
		c0.392-0.05,0.704-0.073,0.926-0.073c0.205,0,0.392,0.042,0.554,0.125c0.174,0.087,0.28,0.162,0.348,0.234
		c0,0.192-0.131,0.38-0.396,0.558c-0.269,0.183-0.613,0.347-1.04,0.505c-0.415,0.155-0.838,0.276-1.266,0.359
		c-0.419,0.081-0.763,0.127-1.027,0.127c-1.309,0-2.507-0.26-3.587-0.773c-1.075-0.518-2.04-1.204-2.894-2.07
		c-0.854-0.861-1.617-1.783-2.281-2.766c-0.673-0.988-1.455-2.233-2.369-3.744c-0.731-1.198-1.348-2.185-1.847-2.966
		c-0.502-0.776-1.031-1.494-1.585-2.141H480.1c-0.288,0-0.743,0.035-1.368,0.11l-0.402,0.036c0,3.329,0.078,6.459,0.236,9.385
		c0.067,1.008,0.237,1.737,0.515,2.196c0.276,0.456,0.774,0.848,1.479,1.184v0.501c-1.036-0.092-1.882-0.156-2.53-0.194
		c-0.641-0.035-1.262-0.051-1.866-0.051c-1.329,0-2.819,0.079-4.46,0.245v-0.501c0.684-0.381,1.241-0.826,1.664-1.33
		c0.419-0.504,0.645-1.115,0.668-1.835c0.04-2.396,0.067-5.992,0.067-10.79c0-1.818-0.027-3.679-0.067-5.575
		c-0.047-1.89-0.114-3.725-0.201-5.502c-0.048-0.861-0.201-1.6-0.467-2.21c-0.265-0.611-0.787-1.133-1.569-1.565v-0.538
		c1.913,0.191,3.353,0.286,4.306,0.286C476.831,109.846,477.878,109.787,479.231,109.666z M478.33,120.06v3.993
		c0.359,0,0.846-0.014,1.475-0.035c0.506,0,0.83,0,0.961,0c2.17,0,3.681-0.511,4.515-1.528c0.831-1.021,1.25-2.717,1.25-5.089
		c0-1.011-0.206-1.987-0.617-2.932c-0.411-0.947-0.94-1.659-1.581-2.144c-0.515-0.38-1.08-0.627-1.7-0.737
		c-0.625-0.106-1.356-0.158-2.198-0.158c-0.36,0-0.922,0.048-1.701,0.145h-0.099c-0.091,0.286-0.134,0.789-0.134,1.508
		c0,0.41-0.012,0.72-0.032,0.938C478.38,115.291,478.33,117.304,478.33,120.06z"/>
	<path fill="#1D1D1B" d="M520.953,111.881c-0.533,1.156-0.857,1.988-0.969,2.509c-0.023,0.14-0.162,0.267-0.419,0.371
		c-0.253,0.104-0.463,0.158-0.609,0.158c-0.32,0-0.525-0.104-0.64-0.32c-0.107-0.209-0.187-0.514-0.229-0.917
		c-0.024-0.212-0.048-0.338-0.071-0.386c-0.063-0.332-0.194-0.573-0.38-0.726c-0.189-0.154-0.396-0.241-0.616-0.265
		c-0.534-0.02-1.381-0.038-2.535-0.038h-2.633l-0.166,2.3c-0.104,1.53-0.166,3.46-0.166,5.792c0,0.775,0.008,1.638,0.035,2.578
		c0,1.316,0,2.084,0,2.291c0,3.253,0.087,6.736,0.265,10.461c0.067,1.599,0.72,2.716,1.961,3.351v0.496
		c-1.039-0.095-1.878-0.16-2.511-0.193c-0.628-0.038-1.245-0.054-1.85-0.054c-0.55,0-1.135,0.016-1.748,0.054
		c-0.609,0.033-1.38,0.099-2.313,0.193v-0.496c0.602-0.326,1.064-0.749,1.396-1.253c0.332-0.505,0.514-1.133,0.533-1.889
		c0.044-2.354,0.067-5.873,0.067-10.559c0-2.476,0-4.545,0-6.22c0-1.671-0.023-3.367-0.067-5.083l-0.031-1.77
		c-1.154,0-2.187,0.038-3.1,0.107c-0.91,0.071-1.812,0.213-2.697,0.425c-0.269,0.071-0.585,0.201-0.948,0.388
		c-0.368,0.189-0.752,0.46-1.151,0.814c-0.047,0.023-0.126,0.095-0.233,0.211c-0.245,0.235-0.482,0.424-0.699,0.563
		c-0.222,0.143-0.475,0.212-0.768,0.212c-0.193,0-0.399-0.052-0.601-0.156c-0.198-0.106-0.301-0.182-0.301-0.233
		c0.024-0.188,0.222-0.562,0.602-1.129c0.403-0.585,0.668-1.032,0.798-1.34c0.021-0.071,0.104-0.249,0.233-0.53
		c0.38-0.753,0.625-1.378,0.735-1.872h1.396c0.225,0.259,0.423,0.423,0.604,0.494c0.174,0.071,0.49,0.117,0.93,0.145
		c1.822,0.02,4.547,0.029,8.165,0.029c1.197,0,3.076-0.043,5.63-0.138c0.909-0.024,1.835-0.048,2.768-0.071
		c0.353-0.022,0.831-0.15,1.428-0.388c0.292-0.119,0.51-0.2,0.668-0.245h1.131C521.783,109.998,521.483,110.776,520.953,111.881z"/>
	<path fill="#1D1D1B" d="M535.5,139.187c-1.111-0.189-2.167-0.587-3.163-1.192c-1.005-0.604-1.827-1.519-2.472-2.74
		c-0.641-1.222-0.977-2.789-1-4.711l-0.028-2.491c-0.051-1.518-0.066-2.524-0.066-3.024c0-0.686,0.016-1.957,0.066-3.808
		c0.021-1.683,0.028-3.032,0.028-4.053c0-0.759-0.02-1.829-0.063-3.205c-0.048-0.876-0.197-1.643-0.446-2.297
		c-0.258-0.65-0.748-1.235-1.487-1.76v-0.425c1.04,0.095,1.862,0.166,2.468,0.212c0.601,0.049,1.174,0.075,1.731,0.075
		c0.442,0,1.162-0.04,2.167-0.109c0.865-0.071,1.522-0.118,1.961-0.141v0.426c-0.597,0.332-1.028,0.867-1.297,1.619
		c-0.265,0.747-0.431,1.581-0.498,2.509c-0.067,0.901-0.103,1.834-0.123,2.809c-0.008,0.975-0.008,2.205-0.008,3.701v4.234
		c0,0.712,0,1.428,0.008,2.151c0.021,0.724,0.048,1.704,0.087,2.936c0.048,1.637,0.237,2.96,0.569,3.966
		c0.332,1.009,0.764,1.768,1.293,2.279c0.534,0.509,1.135,0.847,1.783,1.013c0.657,0.166,1.439,0.251,2.354,0.251
		c1.241,0,2.261-0.097,3.048-0.285c0.791-0.191,1.455-0.571,1.997-1.141c0.546-0.569,0.969-1.411,1.27-2.524
		c0.3-1.117,0.47-2.586,0.514-4.412c0.023-0.662,0.039-1.474,0.039-2.422v-1.704c0-0.311,0.008-1.376,0.028-3.203
		c0-1.233,0-2.362,0-3.381c0-1.969-0.021-3.428-0.067-4.377c-0.044-1.112-0.194-1.938-0.447-2.473
		c-0.257-0.532-0.818-1.052-1.68-1.546v-0.426c0.577,0.022,1.218,0.069,1.925,0.141c0.602,0.05,1.017,0.069,1.238,0.069
		c0.419,0,1.127-0.035,2.127-0.103c0.87-0.071,1.55-0.121,2.036-0.145v0.425c-0.688,0.382-1.154,0.849-1.396,1.406
		c-0.249,0.559-0.392,1.465-0.439,2.722c-0.063,1.497-0.106,3.078-0.118,4.749c-0.008,1.675-0.008,3.675-0.008,5.998
		c0,0.188,0,0.7,0,1.526c-0.027,0.855-0.036,1.378-0.036,1.567c0,2.586-0.261,4.666-0.786,6.245
		c-0.522,1.58-1.242,2.744-2.167,3.502c-0.917,0.763-1.969,1.257-3.147,1.496c-1.174,0.239-2.594,0.354-4.263,0.354
		C537.785,139.471,536.611,139.378,535.5,139.187z"/>
	<path fill="#1D1D1B" d="M577.736,135.312c0.332,0.925,0.735,1.681,1.213,2.25c0.479,0.573,1.072,1.024,1.784,1.358v0.573
		c-0.91-0.168-1.709-0.289-2.381-0.358c-0.68-0.075-1.309-0.106-1.886-0.106c-0.685,0-1.376,0.029-2.061,0.089
		c-0.691,0.06-1.525,0.172-2.507,0.338v-0.5c0-0.168,0.15-0.455,0.436-0.856c0.423-0.595,0.633-1.075,0.633-1.431
		c0-0.235-0.024-0.494-0.083-0.768c-0.052-0.274-0.107-0.46-0.146-0.558l-2.566-7.508c-1.403-0.117-2.649-0.177-3.732-0.177
		c-1.534,0-2.847,0.06-3.931,0.177l-2.934,8.154v0.036c-0.158,0.38-0.257,0.672-0.3,0.874c-0.044,0.205-0.063,0.435-0.063,0.699
		c0,0.548,0.201,1.026,0.597,1.43v0.427c-0.755-0.118-1.392-0.199-1.897-0.251c-0.515-0.043-0.989-0.069-1.436-0.069
		c-0.51,0-1.048,0.026-1.598,0.069c-0.558,0.052-1.277,0.146-2.167,0.289l0.436-0.573c0.822-0.311,1.526-0.762,2.111-1.358
		c0.589-0.593,1.087-1.406,1.486-2.43l7.928-20.667c0.048-0.096,0.067-0.262,0.067-0.503c0-0.714-0.229-1.423-0.68-2.127
		c-0.459-0.7-1.068-1.339-1.819-1.91l-0.135-0.429c1.713,0.166,3.267,0.247,4.666,0.247h1.436l1.598,4.257L577.736,135.312z
		 M569.436,125.904v-0.104l-2.934-8.294l-3.132,8.294v0.104c1.333,0.051,2.337,0.075,2.997,0.075
		C567.04,125.979,568.06,125.954,569.436,125.904z"/>
	<path fill="#1D1D1B" d="M585.786,139.403l-0.036-0.609c0.266-0.139,0.53-0.365,0.803-0.676c0.266-0.305,0.515-0.679,0.748-1.107
		c0.237-0.429,0.419-0.866,0.565-1.32c0.146-0.455,0.217-0.856,0.217-1.21c0.044-1.81,0.067-3.306,0.067-4.484
		c0-1.176,0-2.849,0-5.012c0-1.807-0.023-3.655-0.067-5.533c-0.043-1.878-0.114-3.699-0.197-5.46
		c-0.048-0.882-0.198-1.646-0.451-2.302c-0.257-0.654-0.751-1.243-1.479-1.766v-0.429c1.04,0.093,1.862,0.166,2.464,0.214
		c0.597,0.045,1.174,0.071,1.728,0.071c0.446,0,1.17-0.036,2.167-0.109c0.865-0.071,1.518-0.116,1.969-0.142v0.431
		c-0.597,0.332-1.036,0.872-1.301,1.623c-0.269,0.747-0.436,1.588-0.502,2.515c-0.063,0.903-0.104,1.845-0.115,2.821
		c-0.016,0.973-0.016,2.212-0.016,3.709v4.25c0,1.688,0.02,3.207,0.067,4.549c0.043,1.343,0.106,3.018,0.197,5.016
		c0.071,1.19,0.447,2.003,1.151,2.445c0.699,0.439,1.66,0.659,2.878,0.659c0.822,0,1.657-0.131,2.503-0.394
		c0.842-0.261,1.582-0.664,2.23-1.212c0.383-0.309,0.846-0.93,1.403-1.858c0.332-0.546,0.612-0.953,0.846-1.231
		c0.233-0.27,0.494-0.407,0.787-0.407c0.352,0,0.585,0.07,0.692,0.213c0.114,0.141,0.166,0.287,0.166,0.432
		c0,0.188-0.044,0.437-0.146,0.747c-0.095,0.311-0.269,0.749-0.514,1.318c-0.447,1.071-0.732,1.868-0.866,2.393
		c-0.091,0.355-0.281,0.699-0.589,1.035c-0.293,0.335-0.732,0.513-1.31,0.532c-0.087,0-0.521,0.025-1.301,0.073
		c-1.336,0.095-2.333,0.143-3.001,0.143c-0.774,0-1.447-0.01-2.017-0.032c-0.565-0.023-1.28-0.063-2.15-0.11
		c-1.329-0.073-2.385-0.104-3.159-0.104C589.416,139.082,587.941,139.187,585.786,139.403z"/>
	<path fill="#1D1D1B" d="M612.364,139.139c-0.616,0.048-1.435,0.129-2.451,0.251c-0.11,0-0.289,0.013-0.534,0.036v-0.791
		c0.262-0.164,0.538-0.399,0.814-0.7c0.277-0.296,0.534-0.648,0.783-1.056c0.534-0.886,0.811-1.698,0.834-2.438
		c0.044-1.816,0.063-3.319,0.063-4.501c0-1.185,0-2.865,0-5.038c0-1.818-0.02-3.673-0.063-5.563
		c-0.043-1.887-0.114-3.717-0.197-5.486c-0.048-0.789-0.269-1.511-0.668-2.171c-0.403-0.656-1.028-1.21-1.866-1.664l-0.099-0.611
		l0.529,0.033c1.285,0.145,2.364,0.252,3.234,0.327c0.862,0.07,1.53,0.106,1.997,0.106c0.359,0,0.838-0.012,1.451-0.036
		c0.612-0.027,1.348-0.063,2.214-0.11c0.423-0.02,0.743-0.046,0.965-0.073c1.645-0.114,2.812-0.174,3.499-0.174
		c0.486,0,0.921,0.002,1.297,0.016c0.38,0.01,0.771,0.05,1.175,0.108c0.395,0.058,0.731,0.152,0.996,0.289
		c0.269,0.131,0.399,0.301,0.399,0.516c0,0.6,0.056,1.27,0.166,2.009c0.067,0.554,0.099,0.98,0.099,1.293
		c0,0.071-0.071,0.164-0.218,0.287c-0.146,0.116-0.348,0.18-0.612,0.18c-0.336,0-0.573-0.075-0.716-0.216
		c-0.146-0.144-0.276-0.346-0.384-0.614c-0.067-0.113-0.114-0.187-0.134-0.212c-0.356-0.571-0.901-1.012-1.634-1.326
		c-0.731-0.311-1.874-0.467-3.432-0.467c-0.467,0-1.27,0.05-2.396,0.146l-1.071,0.104c-0.063,0.265-0.106,0.779-0.13,1.542
		c-0.024,0.313-0.048,0.585-0.067,0.826c-0.091,1.339-0.135,3.468-0.135,6.384v2.545c1.598,0.047,2.768,0.072,3.499,0.072
		c0.665,0,1.163-0.01,1.499-0.033c0.708-0.025,1.309-0.16,1.787-0.415c0.479-0.253,0.969-0.795,1.479-1.633h1.399
		c-0.023,0.338-0.059,0.708-0.099,1.115c-0.091,0.786-0.134,1.48-0.134,2.079c0,0.645,0,1.094,0,1.345
		c0,0.249,0.02,0.757,0.066,1.521h-1.435c-0.332-0.69-0.779-1.169-1.337-1.432c-0.55-0.263-1.214-0.429-1.992-0.502
		c-1.001-0.095-2.578-0.146-4.733-0.146c0,1.677,0.023,3.19,0.067,4.541c0.043,1.351,0.11,3.017,0.201,5.002
		c0.017,0.599,0.19,1.095,0.519,1.49c0.32,0.394,0.731,0.698,1.229,0.916c0.502,0.211,1.028,0.355,1.586,0.427
		c0.553,0.075,1.15,0.108,1.795,0.108c0.957,0,1.743-0.073,2.364-0.215c0.621-0.145,1.237-0.477,1.839-1.005
		c0.328-0.286,0.795-0.811,1.396-1.577c0.442-0.55,0.799-0.957,1.063-1.222c0.272-0.262,0.538-0.396,0.803-0.396
		c0.269,0,0.482,0.071,0.668,0.199c0.178,0.133,0.266,0.233,0.266,0.307c0,0.286-0.233,0.872-0.704,1.756
		c-0.55,1.025-0.897,1.816-1.032,2.366l-0.027,0.073c-0.115,0.454-0.324,0.814-0.637,1.075c-0.309,0.265-0.957,0.397-1.934,0.397
		h-4.958c-1.38,0-2.602-0.016-3.67-0.038c-1.446,0-2.432,0-2.965,0C613.495,139.068,612.969,139.09,612.364,139.139z"/>
	<path fill="#1D1D1B" d="M666.118,121.392c-0.02-0.712-0.039-1.309-0.051-1.777c-0.008-0.469-0.063-1.394-0.146-2.779l-0.067-1.297
		c-0.043-0.913-0.218-1.669-0.518-2.26c-0.301-0.595-0.866-0.965-1.717-1.111v-0.334c0.179-0.222,0.451-0.397,0.799-0.521
		c0.36-0.123,0.814-0.245,1.368-0.368c0.467-0.097,0.779-0.174,0.934-0.224c0.178-0.073,0.388-0.197,0.633-0.367
		c0.359-0.277,0.759-0.479,1.218-0.613c0.454-0.135,1.189-0.205,2.214-0.205v0.409c-0.091,0.174-0.158,0.809-0.218,1.907
		c-0.055,1.1-0.099,2.3-0.134,3.597c-0.036,1.293-0.052,2.737-0.067,4.313c-0.008,1.586-0.016,3.078-0.016,4.487
		c0,3.433,0.091,7.094,0.269,10.969c0.02,0.444,0.056,0.718,0.079,0.814c0.035,0.101,0.143,0.148,0.32,0.148
		c0.043,0,0.17-0.032,0.367-0.107c0.486-0.201,0.902-0.3,1.23-0.3c0.403,0,0.68,0.114,0.834,0.334
		c0.158,0.224,0.233,0.446,0.233,0.668c0,0.247-0.198,0.526-0.581,0.832c-0.388,0.311-0.839,0.588-1.349,0.835
		c-0.403,0.221-0.851,0.403-1.337,0.539c-0.486,0.133-0.933,0.202-1.332,0.202c-0.514,0-1.004-0.097-1.479-0.297
		c-0.479-0.195-0.854-0.518-1.119-0.963c-0.621,0.445-1.324,0.803-2.1,1.074c-0.775,0.271-1.542,0.409-2.301,0.409
		c-1.068,0-2.076-0.262-3.029-0.779c-0.957-0.518-1.787-1.229-2.499-2.131c-0.712-0.904-1.265-1.928-1.664-3.074
		c-0.399-1.148-0.602-2.341-0.602-3.576c0-1.262,0.187-2.442,0.565-3.541c0.38-1.1,0.926-2.068,1.633-2.91
		c0.708-0.839,1.59-1.495,2.634-1.963c1.04-0.469,2.218-0.704,3.531-0.704C664.031,120.728,665.189,120.951,666.118,121.392z
		 M659.938,124.488c-0.783,1.102-1.183,2.588-1.183,4.466c0,0.963,0.107,1.891,0.316,2.78c0.214,0.892,0.53,1.7,0.969,2.426
		c0.432,0.733,0.961,1.309,1.594,1.728c0.641,0.419,1.364,0.629,2.187,0.629c0.538,0,0.969-0.065,1.301-0.202
		c0.332-0.138,0.645-0.365,0.934-0.688v-0.186c0.043-2.396,0.063-6.052,0.063-10.971c-0.375-0.569-0.782-0.98-1.214-1.241
		c-0.435-0.259-0.984-0.39-1.652-0.39C661.835,122.839,660.729,123.391,659.938,124.488z"/>
	<path fill="#1D1D1B" d="M691.969,128.532c-0.158,0.125-0.368,0.187-0.629,0.187c-0.135,0-0.305-0.013-0.502-0.036
		c-0.115-0.025-0.19-0.037-0.237-0.037h-10.126v0.332c0,1.016,0.11,1.992,0.336,2.934c0.218,0.943,0.55,1.787,0.977,2.544
		c0.435,0.758,0.969,1.351,1.602,1.786c0.637,0.429,1.34,0.646,2.115,0.646c0.581,0,1.111-0.12,1.602-0.371
		c0.486-0.241,0.988-0.593,1.498-1.038c0.182-0.152,0.467-0.457,0.866-0.929c0.379-0.447,0.699-0.781,0.953-1.005
		c0.253-0.224,0.502-0.332,0.747-0.332c0.359,0,0.597,0.15,0.731,0.445c0.135,0.298,0.201,0.608,0.201,0.931
		c-0.023,0.37-0.182,0.805-0.482,1.299c-0.304,0.496-0.66,0.915-1.079,1.264c-0.759,0.72-1.602,1.277-2.519,1.67
		c-0.921,0.396-2.017,0.594-3.282,0.594c-1.49,0-2.775-0.253-3.862-0.76c-1.092-0.508-1.97-1.201-2.653-2.079
		c-0.681-0.88-1.175-1.895-1.499-3.047c-0.32-1.15-0.482-2.37-0.482-3.657c0-1.268,0.194-2.453,0.582-3.566
		c0.391-1.113,0.969-2.094,1.751-2.936c0.775-0.841,1.725-1.499,2.851-1.97c1.119-0.467,2.393-0.706,3.813-0.706
		c0.62,0,1.32,0.137,2.095,0.41c0.779,0.274,1.542,0.691,2.29,1.265c0.743,0.567,1.352,1.316,1.842,2.244
		c0.491,0.931,0.74,2.028,0.74,3.29C692.207,128.198,692.127,128.406,691.969,128.532z M680.811,126.526h6.86
		c-0.135-0.02-0.21-0.095-0.233-0.221v-0.036c-0.091-0.919-0.372-1.676-0.847-2.266c-0.482-0.595-1.158-0.894-2.048-0.894
		c-0.961,0-1.728,0.235-2.321,0.706c-0.589,0.471-1.048,1.226-1.38,2.264c-0.02,0.077-0.031,0.197-0.031,0.374V126.526z"/>
	<path fill="#1D1D1B" d="M697.583,139.198c-0.617,0.036-1.384,0.106-2.317,0.208v-0.524c0.602-0.35,1.068-0.795,1.4-1.33
		c0.332-0.538,0.51-1.204,0.533-2.003c0.04-2.478,0.063-6.208,0.063-11.205c0-1.398-0.012-2.555-0.031-3.468
		c-0.024-0.91-0.079-2.213-0.166-3.911l-0.067-1.54c-0.048-0.921-0.218-1.682-0.511-2.283c-0.308-0.599-0.873-0.975-1.724-1.125
		v-0.338c0.183-0.224,0.439-0.397,0.783-0.521c0.344-0.127,0.807-0.253,1.384-0.376c0.467-0.101,0.775-0.176,0.938-0.224
		c0.174-0.077,0.371-0.201,0.597-0.377c0.355-0.249,0.767-0.449,1.233-0.6c0.463-0.148,1.21-0.224,2.23-0.224v0.41
		c-0.091,0.18-0.166,0.796-0.233,1.857c-0.067,1.063-0.119,2.315-0.15,3.767c-0.035,1.447-0.056,2.926-0.063,4.437
		c-0.012,1.514-0.02,2.976-0.02,4.404c0,3.47,0.087,7.167,0.269,11.089c0.063,1.696,0.716,2.885,1.962,3.561v0.524
		c-1.044-0.102-1.879-0.172-2.512-0.208c-0.636-0.035-1.249-0.054-1.854-0.054C698.774,139.145,698.193,139.163,697.583,139.198z"/>
	<path fill="#1D1D1B" d="M709.687,139.198c-0.613,0.036-1.381,0.106-2.313,0.208v-0.524c0.597-0.35,1.063-0.795,1.396-1.33
		c0.332-0.538,0.511-1.204,0.534-2.003c0.043-2.478,0.067-6.208,0.067-11.205c0-1.398-0.012-2.555-0.036-3.468
		c-0.02-0.91-0.075-2.213-0.162-3.911l-0.071-1.54c-0.043-0.921-0.213-1.682-0.514-2.283c-0.301-0.599-0.874-0.975-1.72-1.125
		v-0.338c0.182-0.224,0.442-0.397,0.786-0.521c0.345-0.127,0.807-0.253,1.385-0.376c0.466-0.101,0.774-0.176,0.929-0.224
		c0.182-0.077,0.376-0.201,0.604-0.377c0.353-0.249,0.764-0.449,1.227-0.6c0.47-0.148,1.21-0.224,2.237-0.224v0.41
		c-0.091,0.18-0.166,0.796-0.229,1.857c-0.074,1.063-0.118,2.315-0.158,3.767c-0.031,1.447-0.055,2.926-0.063,4.437
		c-0.012,1.514-0.02,2.976-0.02,4.404c0,3.47,0.091,7.167,0.269,11.089c0.071,1.696,0.724,2.885,1.965,3.561v0.524
		c-1.04-0.102-1.886-0.172-2.515-0.208c-0.633-0.035-1.249-0.054-1.847-0.054C710.876,139.145,710.295,139.163,709.687,139.198z"/>
	<path fill="#1D1D1B" d="M722.09,109.799c0.265,0.209,0.479,0.477,0.633,0.801c0.158,0.322,0.261,0.662,0.312,1.02
		c0.06,0.353,0.088,0.675,0.088,0.963c0,0.934-0.131,1.633-0.388,2.098c-0.253,0.469-0.756,0.924-1.515,1.368l-1.396-0.803
		c0.375-0.265,0.565-0.575,0.565-0.931c0-0.044,0-0.111,0-0.2c-0.023-0.132-0.036-0.222-0.036-0.267h-0.229
		c-0.755,0-1.332-0.228-1.716-0.685c-0.387-0.454-0.585-0.971-0.585-1.544c0-0.271,0.099-0.529,0.297-0.788
		c0.201-0.251,0.467-0.479,0.807-0.681c0.332-0.201,0.691-0.359,1.075-0.484c0.392-0.12,0.755-0.184,1.087-0.184
		C721.485,109.483,721.822,109.589,722.09,109.799z"/>
</g>
<g>
	<path fill="#FF5000" d="M285.342,205.983c1.821,0.83,3.371,1.967,4.648,3.414c1.273,1.451,2.244,3.098,2.898,4.952
		c0.657,1.851,0.985,3.786,0.985,5.807c0,1.661-0.222,3.236-0.667,4.733c-0.447,1.498-1.075,2.862-1.902,4.092
		c-0.822,1.228-1.795,2.296-2.928,3.195c-1.135,0.903-2.39,1.619-3.768,2.154c1.447,0.513,3.487,1.331,6.134,2.449
		c3.418,1.46,6.269,2.551,8.561,3.269c2.287,0.724,4.648,1.079,7.095,1.079c0.983,0,1.866-0.146,2.665-0.437
		c0.805-0.295,1.611-0.805,2.436-1.538c0.043-0.025,0.16-0.081,0.348-0.166c0.19-0.083,0.362-0.125,0.518-0.125
		c0.245,0,0.488,0.075,0.729,0.222l0.034,0.035c0,0.024-0.042,0.092-0.133,0.2c-0.085,0.108-0.243,0.261-0.464,0.459
		c-1.315,1.261-2.863,2.281-4.65,3.048c-1.789,0.768-3.583,1.15-5.383,1.15c-2.639,0-5.117-0.454-7.426-1.368
		c-2.313-0.915-4.887-2.212-7.728-3.891c-1.779-1.052-3.303-1.852-4.566-2.415c-1.268-0.558-2.614-0.888-4.031-0.983
		c-2-0.122-3.875-0.551-5.63-1.299c-1.757-0.739-3.295-1.759-4.614-3.048c-1.323-1.293-2.354-2.833-3.098-4.624
		c-0.743-1.791-1.119-3.743-1.119-5.858c0-2.048,0.389-4.026,1.168-5.942c0.777-1.91,1.864-3.603,3.264-5.077
		c1.4-1.471,3.001-2.629,4.814-3.47c1.809-0.842,3.703-1.261,5.678-1.261C281.477,204.74,283.521,205.153,285.342,205.983z
		 M269.816,224.962c0.512,1.668,1.238,3.119,2.185,4.347c0.941,1.229,2.052,2.187,3.33,2.867c1.279,0.682,2.663,1.023,4.151,1.023
		c2.954,0,5.31-1.115,7.08-3.343c1.76-2.226,2.647-5.302,2.647-9.223c0-2.192-0.263-4.155-0.781-5.886
		c-0.524-1.726-1.253-3.169-2.187-4.327c-0.931-1.156-2.002-2.028-3.212-2.613c-1.212-0.582-2.505-0.874-3.883-0.874
		c-1.51,0-2.888,0.299-4.134,0.894c-1.242,0.599-2.311,1.453-3.201,2.576c-0.884,1.123-1.568,2.455-2.044,3.999
		c-0.477,1.548-0.713,3.258-0.713,5.135C269.054,221.485,269.305,223.293,269.816,224.962z"/>
	<path fill="#FF5000" d="M306.851,235.127c-1.109-0.197-2.165-0.601-3.167-1.222c-0.998-0.617-1.823-1.55-2.465-2.8
		c-0.645-1.241-0.975-2.851-0.996-4.815l-0.032-2.542c-0.047-1.547-0.067-2.578-0.067-3.089c0-0.699,0.02-1.998,0.067-3.889
		c0.018-1.72,0.032-3.102,0.032-4.146c0-0.774-0.024-1.86-0.065-3.268c-0.049-0.897-0.198-1.677-0.453-2.347
		c-0.255-0.664-0.753-1.264-1.483-1.797v-0.438c1.044,0.099,1.87,0.17,2.469,0.218c0.593,0.051,1.17,0.073,1.728,0.073
		c0.445,0,1.17-0.034,2.168-0.111c0.862-0.068,1.517-0.118,1.967-0.142v0.435c-0.599,0.34-1.036,0.892-1.303,1.654
		c-0.265,0.762-0.435,1.619-0.5,2.563c-0.065,0.921-0.105,1.876-0.117,2.871c-0.01,0.998-0.018,2.253-0.018,3.781v4.322
		c0,0.729,0.008,1.461,0.018,2.198c0.012,0.741,0.038,1.739,0.081,3.003c0.049,1.671,0.237,3.021,0.571,4.051
		c0.328,1.03,0.763,1.805,1.301,2.323c0.528,0.521,1.127,0.869,1.777,1.037c0.66,0.171,1.439,0.258,2.349,0.258
		c1.248,0,2.264-0.1,3.05-0.295c0.791-0.193,1.453-0.579,1.999-1.16c0.547-0.586,0.969-1.441,1.269-2.582
		c0.296-1.141,0.471-2.642,0.512-4.506c0.023-0.682,0.033-1.504,0.033-2.477v-1.74c0-0.314,0.012-1.405,0.034-3.27
		c0-1.262,0-2.41,0-3.454c0-2.009-0.021-3.499-0.067-4.47c-0.042-1.137-0.19-1.981-0.449-2.528c-0.257-0.542-0.815-1.072-1.683-1.58
		v-0.435c0.579,0.023,1.226,0.073,1.934,0.142c0.599,0.05,1.008,0.077,1.231,0.077c0.421,0,1.135-0.039,2.135-0.11
		c0.864-0.071,1.54-0.12,2.032-0.146v0.438c-0.69,0.385-1.156,0.863-1.402,1.433c-0.245,0.571-0.389,1.499-0.433,2.784
		c-0.065,1.524-0.103,3.144-0.117,4.852s-0.018,3.75-0.018,6.122c0,0.196,0,0.716,0,1.564c-0.021,0.871-0.031,1.403-0.031,1.597
		c0,2.644-0.263,4.771-0.785,6.378c-0.52,1.615-1.243,2.808-2.163,3.582c-0.923,0.775-1.971,1.281-3.146,1.526
		c-1.182,0.243-2.605,0.362-4.27,0.362C309.139,235.414,307.96,235.319,306.851,235.127z"/>
	<path fill="#FF5000" d="M348.251,205.971c1.809,0.797,3.333,1.896,4.583,3.294c1.238,1.399,2.183,3.013,2.827,4.847
		c0.643,1.835,0.967,3.802,0.967,5.899c0,2.147-0.37,4.17-1.113,6.062c-0.748,1.895-1.787,3.535-3.118,4.919
		c-1.331,1.39-2.887,2.465-4.646,3.223c-1.77,0.761-3.64,1.139-5.619,1.139c-1.975,0-3.845-0.397-5.615-1.196
		c-1.765-0.793-3.313-1.903-4.647-3.323c-1.333-1.426-2.367-3.064-3.114-4.925c-0.744-1.856-1.113-3.798-1.113-5.822
		c0-2.03,0.37-3.97,1.113-5.83c0.747-1.854,1.781-3.501,3.114-4.938c1.334-1.431,2.882-2.55,4.647-3.347
		c1.77-0.793,3.64-1.194,5.615-1.194C344.4,204.777,346.438,205.178,348.251,205.971z M338.255,207.783
		c-1.194,0.577-2.224,1.404-3.102,2.479c-0.876,1.071-1.552,2.362-2.033,3.867c-0.48,1.51-0.713,3.181-0.713,5.012
		c0,1.836,0.243,3.602,0.731,5.304c0.486,1.696,1.178,3.213,2.064,4.539c0.892,1.329,1.93,2.366,3.116,3.112
		c1.19,0.749,2.458,1.12,3.813,1.12c1.423,0,2.74-0.269,3.95-0.813c1.21-0.543,2.271-1.33,3.181-2.37
		c0.908-1.036,1.615-2.293,2.113-3.764c0.5-1.472,0.753-3.112,0.753-4.919c0-2.268-0.253-4.302-0.753-6.101
		c-0.498-1.796-1.206-3.315-2.113-4.558c-0.909-1.243-1.971-2.181-3.181-2.821c-1.21-0.64-2.527-0.96-3.95-0.96
		C340.735,206.912,339.44,207.2,338.255,207.783z"/>
	<path fill="#FF5000" d="M384.04,207.228c-0.538,1.179-0.854,2.026-0.969,2.555c-0.024,0.145-0.162,0.269-0.415,0.38
		c-0.258,0.106-0.46,0.162-0.618,0.162c-0.311,0-0.522-0.107-0.631-0.322c-0.114-0.22-0.189-0.528-0.237-0.938
		c-0.016-0.22-0.046-0.348-0.065-0.397c-0.069-0.332-0.192-0.579-0.381-0.735c-0.188-0.156-0.392-0.247-0.615-0.272
		c-0.536-0.018-1.38-0.036-2.536-0.036h-2.635l-0.162,2.339c-0.111,1.564-0.167,3.529-0.167,5.905c0,0.791,0.012,1.667,0.034,2.624
		c0,1.342,0,2.123,0,2.341c0,3.309,0.087,6.855,0.265,10.651c0.067,1.627,0.724,2.768,1.969,3.414v0.507
		c-1.045-0.098-1.886-0.164-2.521-0.202c-0.63-0.035-1.248-0.052-1.84-0.052c-0.562,0-1.145,0.017-1.754,0.052
		c-0.609,0.038-1.384,0.104-2.317,0.202v-0.507c0.603-0.334,1.065-0.761,1.396-1.276c0.338-0.515,0.518-1.155,0.538-1.922
		c0.045-2.402,0.067-5.99,0.067-10.759c0-2.524,0-4.634,0-6.332c0-1.706-0.022-3.433-0.067-5.186l-0.034-1.8
		c-1.154,0-2.188,0.036-3.098,0.107c-0.914,0.075-1.809,0.219-2.701,0.435c-0.265,0.071-0.581,0.208-0.953,0.396
		c-0.362,0.191-0.745,0.467-1.141,0.83c-0.049,0.02-0.128,0.095-0.237,0.212c-0.247,0.243-0.48,0.433-0.7,0.577
		c-0.221,0.145-0.48,0.216-0.767,0.216c-0.202,0-0.399-0.056-0.603-0.16c-0.196-0.105-0.294-0.187-0.294-0.233
		c0.018-0.194,0.219-0.579,0.599-1.157c0.399-0.595,0.662-1.052,0.798-1.365c0.02-0.071,0.097-0.252,0.231-0.538
		c0.382-0.766,0.625-1.401,0.735-1.904h1.398c0.223,0.264,0.423,0.43,0.601,0.503c0.176,0.073,0.488,0.118,0.931,0.144
		c1.823,0.024,4.543,0.036,8.163,0.036c1.202,0,3.08-0.052,5.633-0.145c0.909-0.023,1.834-0.048,2.766-0.075
		c0.355-0.02,0.831-0.152,1.433-0.392c0.284-0.12,0.51-0.207,0.664-0.253h1.139C384.874,205.311,384.573,206.106,384.04,207.228z"/>
	<path fill="#FF5000" d="M393.05,235.139c-0.608,0.038-1.38,0.107-2.317,0.202v-0.511c0.605-0.34,1.072-0.769,1.404-1.295
		c0.336-0.52,0.51-1.174,0.537-1.951c0.036-2.432,0.063-6.069,0.063-10.906c0-1.851-0.027-3.739-0.063-5.656
		c-0.051-1.924-0.114-3.784-0.201-5.585c-0.048-0.901-0.194-1.685-0.435-2.354c-0.25-0.667-0.732-1.268-1.468-1.806v-0.438
		c1.021,0.099,1.835,0.172,2.437,0.222c0.597,0.049,1.174,0.073,1.728,0.073c0.423,0,1.131-0.038,2.131-0.111
		c0.866-0.071,1.546-0.122,2.032-0.146v0.439c-0.616,0.338-1.063,0.894-1.328,1.66c-0.269,0.766-0.436,1.623-0.498,2.57
		c-0.071,0.926-0.111,1.886-0.119,2.883c-0.016,1-0.02,2.266-0.02,3.796v4.341c0,3.355,0.087,6.955,0.269,10.801
		c0.067,1.65,0.72,2.809,1.966,3.465v0.511c-1.044-0.095-1.887-0.164-2.515-0.202c-0.633-0.035-1.25-0.051-1.851-0.051
		C394.249,235.088,393.664,235.104,393.05,235.139z"/>
	<path fill="#FF5000" d="M425.121,205.773c1.812,0.659,3.404,1.611,4.769,2.857c1.364,1.251,2.428,2.734,3.199,4.444
		c0.767,1.712,1.146,3.572,1.146,5.575c0,2.351-0.392,4.543-1.167,6.587c-0.778,2.046-1.897,3.829-3.364,5.357
		c-1.467,1.53-3.215,2.717-5.243,3.561c-2.036,0.84-4.271,1.279-6.718,1.303c-0.755,0-1.997-0.062-3.729-0.186
		c-1.625-0.121-2.827-0.182-3.603-0.182c-0.62,0-1.324,0.018-2.111,0.055c-0.79,0.036-1.617,0.104-2.482,0.202v-0.554
		c0.62-0.34,1.182-0.872,1.696-1.594c0.51-0.724,0.774-1.461,0.799-2.22c0.02-1.222,0.035-2.948,0.035-5.172v-5.213
		c0-1.854-0.02-3.755-0.071-5.688c-0.047-1.93-0.106-3.802-0.197-5.612c-0.063-1.443-0.957-2.79-2.665-4.037v-0.401
		c0.866,0.095,1.743,0.17,2.649,0.218c0.901,0.049,1.66,0.075,2.281,0.075c0.668,0,1.297-0.01,1.882-0.04
		c0.589-0.021,1.305-0.071,2.151-0.146c1-0.047,1.85-0.091,2.546-0.126c0.7-0.04,1.53-0.056,2.487-0.056
		C421.408,204.781,423.31,205.109,425.121,205.773z M414.999,207.019c-1.154,0.071-1.862,0.207-2.154,0.405
		c-0.044,0.361-0.079,0.855-0.096,1.467c-0.027,0.222-0.035,0.39-0.035,0.514c-0.067,0.93-0.106,1.895-0.118,2.898
		c-0.013,1.003-0.017,2.275-0.017,3.815v4.367c0,3.4,0.087,7.021,0.266,10.859c0,0.052,0.012,0.162,0.035,0.33
		c0,0.125,0,0.245,0,0.368c0.506,0.442,1.266,0.743,2.262,0.899c1.004,0.16,2.424,0.241,4.271,0.241
		c1.352,0,2.641-0.332,3.879-0.994c1.233-0.66,2.316-1.59,3.266-2.792c0.941-1.195,1.673-2.602,2.198-4.215
		c0.522-1.617,0.783-3.325,0.783-5.138c0-1.885-0.273-3.753-0.814-5.593c-0.546-1.849-1.273-3.329-2.187-4.425
		c-0.949-1.125-2.017-1.928-3.199-2.404c-1.174-0.479-2.482-0.715-3.926-0.715C417.613,206.908,416.137,206.946,414.999,207.019z"/>
	<path fill="#FF5000" d="M441.416,235.167c-0.609,0.035-1.385,0.104-2.313,0.203v-0.512c0.601-0.344,1.063-0.775,1.396-1.301
		c0.332-0.524,0.515-1.173,0.534-1.955c0.043-2.437,0.067-6.084,0.067-10.933c0-1.851-0.024-3.743-0.067-5.669
		c-0.044-1.927-0.111-3.793-0.202-5.595c-0.043-0.901-0.186-1.69-0.431-2.36c-0.241-0.672-0.731-1.273-1.463-1.811v-0.441
		c1.021,0.1,1.831,0.177,2.428,0.224c0.597,0.05,1.183,0.073,1.735,0.073c0.424,0,1.131-0.039,2.128-0.112
		c0.873-0.071,1.546-0.119,2.04-0.143v0.437c-0.629,0.343-1.071,0.894-1.337,1.661c-0.269,0.771-0.435,1.631-0.502,2.58
		c-0.067,0.929-0.099,1.89-0.114,2.888c-0.016,1.005-0.016,2.268-0.016,3.804v4.354c0,3.361,0.087,6.969,0.265,10.824
		c0.067,1.658,0.728,2.817,1.965,3.476v0.512c-1.044-0.099-1.882-0.168-2.511-0.203c-0.637-0.034-1.254-0.054-1.854-0.054
		C442.609,235.114,442.028,235.133,441.416,235.167z"/>
	<path fill="#FF5000" d="M478.187,231.069c0.332,0.947,0.735,1.714,1.21,2.299c0.486,0.582,1.075,1.046,1.787,1.382v0.586
		c-0.913-0.17-1.708-0.291-2.385-0.366c-0.676-0.075-1.301-0.108-1.882-0.108c-0.688,0-1.38,0.027-2.06,0.093
		c-0.696,0.058-1.53,0.174-2.507,0.346v-0.512c0-0.172,0.146-0.463,0.438-0.874c0.415-0.61,0.625-1.095,0.625-1.461
		c0-0.241-0.024-0.502-0.079-0.783c-0.052-0.278-0.103-0.466-0.146-0.563l-2.566-7.658c-1.403-0.121-2.645-0.182-3.729-0.182
		c-1.538,0-2.847,0.061-3.938,0.182l-2.931,8.313v0.038c-0.153,0.388-0.253,0.688-0.3,0.896c-0.04,0.202-0.067,0.44-0.067,0.706
		c0,0.562,0.201,1.046,0.601,1.461v0.438c-0.755-0.122-1.388-0.209-1.897-0.255c-0.51-0.05-0.988-0.075-1.432-0.075
		c-0.51,0-1.044,0.025-1.602,0.075c-0.553,0.046-1.28,0.143-2.166,0.291l0.435-0.586c0.818-0.315,1.522-0.774,2.119-1.382
		c0.581-0.61,1.076-1.435,1.479-2.482l7.928-21.075c0.048-0.095,0.067-0.265,0.067-0.508c0-0.729-0.226-1.455-0.684-2.173
		c-0.451-0.716-1.06-1.364-1.815-1.949l-0.13-0.44c1.708,0.174,3.262,0.261,4.661,0.261h1.436l1.598,4.338L478.187,231.069z
		 M469.883,221.479v-0.111l-2.922-8.457l-3.14,8.457v0.111c1.337,0.051,2.337,0.07,3.001,0.07
		C467.492,221.549,468.507,221.53,469.883,221.479z"/>
	<path fill="#FF5000" d="M508.573,205.16c0.467,0.073,0.779,0.11,0.934,0.11c0.423,0,1.135-0.037,2.131-0.11
		c0.87-0.073,1.538-0.121,2.001-0.146v0.438c-0.602,0.338-1.032,0.889-1.297,1.648c-0.27,0.763-0.439,1.613-0.498,2.554
		c-0.067,0.924-0.107,1.877-0.119,2.871c-0.012,0.992-0.023,2.244-0.023,3.768v4.314c0,0.897-0.008,2.19-0.032,3.885
		c-0.02,2.295-0.031,3.893-0.031,4.788c0,1.934,0.023,3.3,0.063,4.094l0.035,0.403c0.028,0.48,0.04,0.809,0.04,0.977
		c0,0.434-0.075,0.742-0.202,0.924c-0.134,0.184-0.392,0.274-0.771,0.274c-0.218,0-0.471-0.114-0.748-0.346
		c-0.276-0.229-0.514-0.486-0.715-0.779l-17.26-21.686v2.574v4.892c0,3.366,0.087,6.942,0.27,10.738
		c0.059,1.692,0.716,2.841,1.965,3.444v0.51c-1.021-0.097-1.862-0.162-2.519-0.199c-0.652-0.042-1.27-0.056-1.847-0.056
		c-0.355,0-0.691,0.012-0.996,0.036c-0.316,0.023-0.957,0.085-1.934,0.182v-0.509c0.577-0.313,1.028-0.735,1.364-1.269
		c0.332-0.532,0.514-1.185,0.533-1.959c0.044-2.393,0.063-6.007,0.063-10.844c0-0.773,0.012-1.995,0.036-3.662
		c0.02-1.714,0.031-3.011,0.031-3.879c0-1.67-0.016-2.903-0.067-3.702v-0.253c-0.063-0.795-0.241-1.509-0.534-2.138
		c-0.288-0.631-0.778-1.21-1.459-1.741l-0.17-0.511c0.107,0,0.27,0.017,0.467,0.04c0.996,0.118,1.771,0.197,2.317,0.233
		c0.542,0.039,1.099,0.069,1.681,0.091l17.326,22.267v-2.285v-4.494c0-1.838-0.024-3.715-0.067-5.622
		c-0.048-1.908-0.115-3.761-0.198-5.552v-0.035c-0.051-0.965-0.174-1.762-0.371-2.391c-0.198-0.631-0.652-1.198-1.364-1.706v-0.471
		C507.205,204.921,507.865,205.014,508.573,205.16z"/>
	<path fill="#FF5000" d="M542.426,231.146c0.337,0.949,0.739,1.718,1.214,2.297c0.479,0.588,1.076,1.048,1.787,1.388v0.584
		c-0.909-0.168-1.704-0.293-2.384-0.362c-0.676-0.077-1.305-0.11-1.878-0.11c-0.696,0-1.38,0.027-2.072,0.089
		c-0.684,0.063-1.522,0.178-2.495,0.348v-0.51c0-0.168,0.143-0.461,0.432-0.876c0.427-0.606,0.637-1.093,0.637-1.455
		c0-0.247-0.032-0.506-0.088-0.789c-0.055-0.28-0.103-0.47-0.149-0.563l-2.566-7.658c-1.396-0.121-2.642-0.182-3.729-0.182
		c-1.534,0-2.847,0.061-3.935,0.182l-2.93,8.317v0.031c-0.154,0.394-0.257,0.686-0.301,0.896c-0.047,0.208-0.067,0.442-0.067,0.712
		c0,0.558,0.206,1.046,0.598,1.459v0.437c-0.751-0.12-1.384-0.207-1.895-0.257c-0.514-0.046-0.988-0.069-1.435-0.069
		c-0.507,0-1.044,0.023-1.602,0.069c-0.558,0.05-1.273,0.146-2.159,0.293l0.432-0.584c0.822-0.315,1.521-0.774,2.115-1.388
		c0.589-0.606,1.083-1.433,1.482-2.477l7.928-21.077c0.044-0.101,0.067-0.269,0.067-0.51c0-0.731-0.229-1.453-0.685-2.173
		c-0.454-0.718-1.06-1.364-1.811-1.949l-0.139-0.438c1.712,0.174,3.267,0.259,4.666,0.259h1.432l1.601,4.337L542.426,231.146z
		 M534.131,221.557v-0.11l-2.934-8.461l-3.132,8.461v0.11c1.336,0.048,2.337,0.071,3.001,0.071
		C531.727,221.628,532.759,221.605,534.131,221.557z"/>
</g>
<g>
	<path fill="#FF5000" d="M299.657,156.893c0.466,0.075,0.777,0.112,0.931,0.112c0.425,0,1.137-0.037,2.137-0.112
		c0.864-0.069,1.534-0.121,1.999-0.146v0.448c-0.599,0.347-1.034,0.908-1.301,1.688c-0.271,0.783-0.439,1.657-0.502,2.622
		c-0.065,0.942-0.104,1.923-0.115,2.941c-0.01,1.012-0.018,2.303-0.018,3.865v4.422c0,0.92-0.01,2.246-0.032,3.982
		c-0.021,2.351-0.032,3.989-0.032,4.906c0,1.983,0.02,3.385,0.063,4.199l0.034,0.411c0.023,0.494,0.034,0.83,0.034,1.002
		c0,0.447-0.067,0.764-0.202,0.949c-0.13,0.184-0.386,0.277-0.763,0.277c-0.222,0-0.475-0.115-0.75-0.354
		c-0.279-0.231-0.52-0.5-0.717-0.793l-17.259-22.238v2.639v5.02c0,3.446,0.089,7.117,0.269,11.008
		c0.065,1.732,0.72,2.912,1.963,3.533v0.518c-1.022-0.097-1.862-0.168-2.517-0.203c-0.652-0.036-1.269-0.056-1.851-0.056
		c-0.352,0-0.684,0.012-0.996,0.034c-0.311,0.027-0.955,0.091-1.934,0.189v-0.522c0.579-0.324,1.036-0.753,1.366-1.301
		c0.334-0.543,0.51-1.214,0.536-2.006c0.042-2.458,0.067-6.16,0.067-11.119c0-0.791,0.008-2.046,0.032-3.756
		c0.021-1.758,0.031-3.084,0.031-3.978c0-1.708-0.021-2.972-0.063-3.792v-0.259c-0.067-0.816-0.247-1.548-0.536-2.194
		c-0.293-0.646-0.777-1.24-1.467-1.785l-0.162-0.521c0.107,0,0.265,0.014,0.465,0.036c0.998,0.124,1.767,0.205,2.315,0.245
		c0.542,0.035,1.101,0.066,1.682,0.087l17.327,22.832v-2.345v-4.608c0-1.882-0.028-3.806-0.073-5.763
		c-0.042-1.956-0.109-3.854-0.198-5.688v-0.037c-0.042-0.988-0.164-1.807-0.358-2.453c-0.209-0.646-0.662-1.227-1.37-1.748V156.6
		C298.291,156.648,298.947,156.746,299.657,156.893z"/>
	<path fill="#FF5000" d="M332.032,162.908c-0.194-0.208-0.449-0.534-0.783-0.977c-0.383-0.514-0.718-0.943-1.014-1.287
		c-0.302-0.344-0.654-0.625-1.058-0.848c-0.771-0.414-1.57-0.722-2.398-0.92c-0.816-0.195-1.706-0.292-2.661-0.292
		c-1.67,0-3.177,0.313-4.537,0.935c-1.35,0.629-2.505,1.517-3.462,2.669c-0.953,1.154-1.68,2.517-2.185,4.087
		c-0.498,1.567-0.743,3.285-0.743,5.149c0,1.839,0.279,3.62,0.844,5.336c0.571,1.718,1.338,3.236,2.321,4.561
		c0.973,1.323,2.1,2.363,3.381,3.11c1.275,0.749,2.604,1.123,3.981,1.123c0.688,0,1.406-0.056,2.149-0.164
		c0.744-0.111,1.491-0.291,2.25-0.534c1.728-0.565,3.082-1.374,4.057-2.428c0.113-0.099,0.261-0.284,0.439-0.558
		c0.263-0.365,0.5-0.646,0.7-0.842c0.198-0.196,0.409-0.295,0.633-0.295c0.265,0,0.462,0.05,0.595,0.15
		c0.136,0.097,0.211,0.178,0.239,0.255c0,0.125-0.083,0.396-0.251,0.83c-0.168,0.43-0.397,0.959-0.682,1.598
		c-0.182,0.392-0.304,0.672-0.368,0.847c-0.223,0.587-0.733,1.079-1.532,1.471c-1.314,0.712-2.706,1.228-4.183,1.548
		c-1.479,0.316-3.094,0.477-4.848,0.477c-1.975,0-3.847-0.405-5.61-1.214c-1.768-0.811-3.315-1.939-4.65-3.385
		c-1.331-1.449-2.373-3.118-3.118-5.008c-0.742-1.886-1.111-3.861-1.111-5.923c0-2.084,0.358-4.089,1.078-6.014
		c0.726-1.926,1.751-3.638,3.084-5.133c1.333-1.496,2.928-2.667,4.776-3.517c1.862-0.843,3.889-1.268,6.087-1.268
		c0.816,0,1.729,0.069,2.728,0.204c1,0.132,2.024,0.314,3.066,0.529c0.045,0,0.277,0.054,0.702,0.15
		c0.799,0.196,1.352,0.297,1.67,0.297c0-0.052,0.065-0.101,0.212-0.15c0.142-0.048,0.344-0.071,0.615-0.071
		c0.401,0,0.652,0.158,0.767,0.479c0.11,0.316,0.166,0.783,0.166,1.396c0,0.344,0.034,0.934,0.101,1.77
		c0.045,0.611,0.063,1.063,0.063,1.36c0,0.193-0.056,0.377-0.178,0.552c-0.121,0.17-0.361,0.257-0.715,0.257
		C332.423,163.221,332.218,163.118,332.032,162.908z"/>
	<path fill="#FF5000" d="M359.789,157.766c1.809,0.814,3.335,1.938,4.581,3.369c1.247,1.436,2.185,3.092,2.835,4.966
		c0.645,1.881,0.964,3.893,0.964,6.038c0,2.2-0.374,4.272-1.117,6.21c-0.746,1.939-1.783,3.615-3.112,5.035
		c-1.338,1.423-2.886,2.522-4.65,3.3c-1.766,0.782-3.64,1.168-5.615,1.168c-1.979,0-3.851-0.409-5.617-1.224
		c-1.765-0.813-3.311-1.953-4.646-3.406c-1.333-1.459-2.367-3.138-3.116-5.039c-0.744-1.902-1.115-3.893-1.115-5.967
		s0.372-4.063,1.115-5.967c0.749-1.901,1.783-3.586,3.116-5.057c1.334-1.467,2.88-2.612,4.646-3.427
		c1.766-0.816,3.638-1.22,5.617-1.22C355.941,156.546,357.978,156.949,359.789,157.766z M349.789,159.62
		c-1.186,0.592-2.218,1.438-3.092,2.537c-0.874,1.099-1.554,2.424-2.028,3.964c-0.484,1.542-0.724,3.256-0.724,5.13
		c0,1.878,0.243,3.693,0.735,5.429c0.488,1.742,1.176,3.29,2.066,4.65c0.884,1.359,1.926,2.423,3.112,3.187
		c1.19,0.765,2.463,1.148,3.817,1.148c1.421,0,2.736-0.278,3.944-0.834c1.214-0.556,2.271-1.362,3.187-2.426
		c0.909-1.063,1.615-2.349,2.115-3.854c0.5-1.504,0.749-3.185,0.749-5.037c0-2.323-0.249-4.404-0.749-6.247
		c-0.5-1.839-1.206-3.395-2.115-4.666c-0.916-1.273-1.973-2.235-3.187-2.889c-1.208-0.658-2.523-0.986-3.944-0.986
		C352.278,158.727,350.983,159.028,349.789,159.62z"/>
	<path fill="#FF5000" d="M394.007,156.818c0.467,0.075,0.783,0.114,0.933,0.114c0.424,0,1.131-0.039,2.132-0.114
		c0.865-0.077,1.538-0.123,2.004-0.148v0.444c-0.601,0.354-1.035,0.914-1.305,1.698c-0.265,0.783-0.431,1.659-0.498,2.63
		c-0.063,0.945-0.103,1.93-0.114,2.945c-0.012,1.022-0.016,2.315-0.016,3.879v4.437c0,0.919-0.017,2.25-0.036,3.989
		c-0.023,2.362-0.035,4.004-0.035,4.923c0,1.987,0.023,3.393,0.071,4.213l0.027,0.409c0.027,0.498,0.039,0.836,0.039,1.011
		c0,0.444-0.066,0.761-0.201,0.948c-0.135,0.187-0.392,0.279-0.767,0.279c-0.222,0-0.471-0.117-0.752-0.354
		c-0.276-0.237-0.514-0.504-0.716-0.802l-17.258-22.297v2.649v5.031c0,3.458,0.089,7.135,0.265,11.039
		c0.065,1.738,0.726,2.918,1.969,3.543v0.516c-1.024-0.095-1.86-0.164-2.517-0.199c-0.656-0.04-1.271-0.06-1.848-0.06
		c-0.356,0-0.69,0.014-1.002,0.038c-0.313,0.027-0.953,0.089-1.93,0.189v-0.521c0.573-0.326,1.032-0.76,1.364-1.308
		c0.336-0.547,0.514-1.218,0.538-2.012c0.043-2.464,0.062-6.179,0.062-11.148c0-0.799,0.014-2.052,0.036-3.771
		c0.023-1.763,0.036-3.094,0.036-3.987c0-1.716-0.024-2.981-0.071-3.804v-0.259c-0.062-0.822-0.245-1.554-0.528-2.204
		c-0.291-0.643-0.781-1.242-1.469-1.787l-0.168-0.521c0.115,0,0.267,0.01,0.467,0.036c1,0.122,1.77,0.203,2.317,0.241
		c0.542,0.037,1.105,0.066,1.683,0.093l17.329,22.896v-2.354v-4.622c0-1.886-0.027-3.813-0.07-5.776
		c-0.048-1.965-0.111-3.863-0.198-5.705v-0.038c-0.048-0.992-0.174-1.813-0.368-2.463c-0.201-0.643-0.656-1.229-1.367-1.75v-0.486
		C392.647,156.571,393.299,156.669,394.007,156.818z"/>
	<path fill="#FF5000" d="M407.672,187.658c-0.665-0.15-1.476-0.384-2.436-0.712c-0.399-0.121-0.665-0.212-0.795-0.259
		c-0.602-0.198-0.993-0.488-1.187-0.874c-0.189-0.388-0.276-0.915-0.276-1.586c0-0.025-0.017-0.146-0.036-0.373
		c-0.067-0.347-0.122-0.75-0.166-1.212c-0.043-0.459-0.067-0.888-0.067-1.285c0-0.324,0.091-0.646,0.281-0.969
		c0.189-0.324,0.506-0.482,0.953-0.482c0.197,0,0.371,0.112,0.51,0.35c0.146,0.237,0.332,0.631,0.554,1.177
		c0.332,0.87,0.616,1.467,0.865,1.789c0.578,0.745,1.329,1.366,2.25,1.864c0.922,0.496,1.716,0.743,2.385,0.743
		c0.506,0,1.027-0.106,1.546-0.318c0.525-0.209,1.016-0.531,1.479-0.967c0.471-0.435,0.843-0.988,1.119-1.66
		c0.284-0.669,0.419-1.428,0.419-2.271c0-0.825-0.146-1.58-0.435-2.273c-0.289-0.698-0.681-1.337-1.179-1.922
		c-0.502-0.583-1.04-1.125-1.621-1.623c-0.573-0.494-1.316-1.092-2.229-1.785c-0.978-0.747-1.775-1.39-2.4-1.924
		c-0.621-0.532-1.206-1.137-1.748-1.809c-0.545-0.671-0.977-1.408-1.297-2.215c-0.324-0.807-0.486-1.683-0.486-2.631
		c0-0.943,0.154-1.874,0.467-2.796c0.309-0.917,0.783-1.764,1.416-2.532c0.632-0.77,1.435-1.392,2.415-1.864
		c0.977-0.473,2.111-0.708,3.4-0.708c0.574,0,1.389,0.111,2.428,0.334c0.847,0.198,1.447,0.299,1.8,0.299
		c0.023,0,0.071-0.025,0.134-0.075c0.178-0.099,0.376-0.182,0.586-0.241c0.213-0.062,0.502-0.095,0.881-0.095
		c0.313,0,0.526,0.065,0.648,0.186c0.123,0.125,0.187,0.237,0.187,0.338c0,0.619,0.055,1.528,0.166,2.717
		c0.091,1.1,0.13,1.92,0.13,2.465c0,0.148-0.063,0.322-0.197,0.521c-0.131,0.199-0.352,0.301-0.668,0.301
		c-0.336,0-0.617-0.171-0.866-0.505c-0.245-0.336-0.522-0.813-0.83-1.437c-0.313-0.594-0.534-0.971-0.665-1.117
		c-0.624-0.596-1.297-1.03-2.016-1.305c-0.724-0.271-1.432-0.407-2.12-0.407c-0.846,0-1.629,0.396-2.364,1.188
		c-0.731,0.799-1.099,1.729-1.099,2.798c0,1.318,0.427,2.477,1.28,3.487c0.858,1.006,2.171,2.216,3.946,3.632
		c1.005,0.797,1.831,1.486,2.483,2.071c0.656,0.586,1.285,1.246,1.886,1.995c0.598,0.743,1.075,1.558,1.432,2.441
		c0.355,0.882,0.546,1.831,0.565,2.849c0,1.119-0.186,2.207-0.565,3.263c-0.376,1.056-0.949,2.008-1.716,2.854
		c-0.764,0.842-1.732,1.522-2.898,2.032c-1.162,0.506-2.503,0.763-4.018,0.763C409.08,187.881,408.336,187.807,407.672,187.658z"/>
	<path fill="#FF5000" d="M446.974,183.558c0.328,0.975,0.739,1.758,1.218,2.354c0.479,0.6,1.071,1.073,1.779,1.42v0.599
		c-0.905-0.174-1.7-0.301-2.38-0.372c-0.681-0.074-1.301-0.112-1.878-0.112c-0.692,0-1.384,0.031-2.072,0.093
		c-0.684,0.063-1.519,0.178-2.495,0.354v-0.522c0-0.176,0.146-0.475,0.432-0.897c0.419-0.623,0.636-1.121,0.636-1.494
		c0-0.249-0.031-0.519-0.087-0.803c-0.055-0.291-0.103-0.479-0.15-0.581l-2.565-7.849c-1.396-0.125-2.646-0.188-3.732-0.188
		c-1.53,0-2.843,0.063-3.927,0.188l-2.938,8.521v0.037c-0.15,0.399-0.253,0.706-0.297,0.918c-0.043,0.213-0.067,0.452-0.067,0.728
		c0,0.575,0.198,1.073,0.605,1.496v0.447c-0.76-0.125-1.392-0.212-1.902-0.264c-0.51-0.049-0.988-0.071-1.431-0.071
		c-0.515,0-1.048,0.022-1.605,0.071c-0.554,0.052-1.273,0.15-2.171,0.301l0.442-0.599c0.819-0.322,1.526-0.795,2.116-1.42
		c0.589-0.625,1.083-1.469,1.482-2.542l7.932-21.599c0.039-0.103,0.067-0.277,0.067-0.524c0-0.747-0.229-1.488-0.688-2.226
		c-0.454-0.733-1.06-1.397-1.811-1.997l-0.139-0.448c1.712,0.172,3.271,0.259,4.666,0.259h1.435l1.598,4.45L446.974,183.558z
		 M438.679,173.729v-0.113l-2.934-8.667l-3.132,8.667v0.113c1.336,0.053,2.337,0.077,3.001,0.077
		C436.283,173.806,437.303,173.781,438.679,173.729z"/>
	<path fill="#FF5000" d="M461.268,156.71c1.372-0.101,2.38-0.149,3.028-0.149c0.799,0,1.708,0.144,2.729,0.433
		c1.024,0.288,1.866,0.66,2.534,1.109c1.198,0.83,2.1,1.872,2.696,3.129c0.602,1.256,0.902,2.537,0.902,3.84
		c0,1.386-0.36,2.752-1.064,4.105c-0.719,1.36-1.645,2.487-2.803,3.393c-0.843,0.679-1.787,1.117-2.847,1.319
		c-1.056,0.201-2.215,0.302-3.487,0.302c-0.396,0-0.827-0.033-1.293-0.095c-0.471-0.065-0.897-0.156-1.301-0.282
		c0,3.694,0.083,7.004,0.269,9.944c0.063,1.081,0.233,1.85,0.494,2.316c0.269,0.467,0.759,0.886,1.467,1.266v0.523
		c-1.024-0.099-1.854-0.168-2.515-0.205c-0.652-0.038-1.27-0.056-1.851-0.056c-1.328,0-2.815,0.089-4.46,0.261v-0.565
		c0.688-0.397,1.241-0.865,1.665-1.392c0.423-0.527,0.645-1.17,0.668-1.922c0.043-2.515,0.063-6.267,0.063-11.265
		c0-1.903-0.021-3.854-0.063-5.838c-0.052-1.984-0.114-3.904-0.202-5.765c-0.043-0.905-0.205-1.677-0.486-2.317
		c-0.276-0.639-0.807-1.186-1.581-1.641v-0.563c1.953,0.201,3.404,0.303,4.333,0.303
		C458.895,156.899,459.927,156.835,461.268,156.71z M460.378,164.152c-0.012,0.991-0.016,2.252-0.016,3.784v4.409
		c0.332,0,0.822,0.072,1.471,0.225c0.482,0.129,0.818,0.188,0.992,0.188c0.799-0.024,1.586-0.214,2.353-0.563
		c0.763-0.351,1.447-0.88,2.044-1.584c0.471-0.575,0.807-1.374,1.024-2.39c0.21-1.021,0.313-2.155,0.313-3.413
		c0-1.002-0.222-1.98-0.652-2.938c-0.436-0.951-0.969-1.681-1.617-2.185c-0.573-0.425-1.175-0.722-1.795-0.886
		c-0.621-0.162-1.297-0.245-2.028-0.245c-0.337,0-0.898,0.052-1.669,0.152h-0.103c-0.111,0.299-0.166,0.854-0.166,1.657
		c0,0.403-0.012,0.699-0.032,0.903C460.429,162.198,460.394,163.159,460.378,164.152z"/>
	<path fill="#FF5000" d="M480.955,187.516c-0.609,0.05-1.428,0.139-2.447,0.259c-0.115,0-0.293,0.018-0.534,0.038v-0.821
		c0.265-0.174,0.538-0.415,0.814-0.729c0.273-0.308,0.542-0.674,0.783-1.099c0.529-0.921,0.814-1.766,0.834-2.54
		c0.044-1.889,0.067-3.45,0.067-4.682c0-1.236,0-2.983,0-5.243c0-1.894-0.023-3.821-0.067-5.787
		c-0.047-1.967-0.11-3.868-0.197-5.713c-0.048-0.82-0.273-1.572-0.669-2.258c-0.398-0.68-1.02-1.262-1.866-1.735l-0.103-0.633
		l0.534,0.037c1.289,0.148,2.368,0.257,3.234,0.334c0.869,0.075,1.53,0.115,2,0.115c0.353,0,0.835-0.014,1.443-0.04
		c0.617-0.025,1.353-0.063,2.219-0.112c0.423-0.023,0.747-0.05,0.965-0.073c1.648-0.129,2.811-0.186,3.495-0.186
		c0.494,0,0.925,0.006,1.305,0.018s0.763,0.051,1.166,0.11s0.731,0.162,1.001,0.299c0.265,0.139,0.399,0.318,0.399,0.54
		c0,0.626,0.059,1.32,0.166,2.089c0.063,0.573,0.099,1.026,0.099,1.349c0,0.075-0.071,0.174-0.218,0.297
		c-0.143,0.126-0.348,0.188-0.612,0.188c-0.333,0-0.573-0.077-0.716-0.224c-0.15-0.152-0.277-0.361-0.388-0.635
		c-0.06-0.124-0.106-0.201-0.135-0.225c-0.352-0.6-0.894-1.058-1.625-1.382c-0.739-0.324-1.882-0.484-3.436-0.484
		c-0.467,0-1.266,0.051-2.4,0.147l-1.063,0.111c-0.067,0.276-0.11,0.811-0.135,1.607c-0.023,0.324-0.043,0.61-0.066,0.859
		c-0.088,1.392-0.135,3.608-0.135,6.645v2.647c1.602,0.052,2.768,0.077,3.499,0.077c0.668,0,1.162-0.016,1.499-0.039
		c0.711-0.026,1.305-0.165,1.783-0.428c0.474-0.263,0.973-0.828,1.482-1.702h1.403c-0.027,0.353-0.055,0.737-0.103,1.161
		c-0.087,0.822-0.131,1.54-0.131,2.164c0,0.675,0,1.137,0,1.402c0,0.259,0.017,0.788,0.06,1.583h-1.428
		c-0.332-0.722-0.778-1.22-1.332-1.494c-0.558-0.273-1.222-0.445-2.001-0.521c-0.996-0.101-2.574-0.15-4.732-0.15
		c0,1.742,0.023,3.315,0.071,4.722c0.043,1.409,0.106,3.142,0.197,5.207c0.023,0.621,0.198,1.139,0.515,1.55
		c0.324,0.411,0.735,0.729,1.233,0.953c0.498,0.226,1.027,0.374,1.585,0.447c0.554,0.07,1.151,0.11,1.804,0.11
		c0.952,0,1.739-0.073,2.36-0.222c0.62-0.148,1.229-0.5,1.834-1.048c0.332-0.296,0.799-0.844,1.396-1.639
		c0.442-0.573,0.799-0.998,1.067-1.271c0.265-0.276,0.533-0.411,0.799-0.411c0.265,0,0.486,0.069,0.66,0.208
		c0.186,0.134,0.272,0.241,0.272,0.318c0,0.294-0.233,0.905-0.695,1.828c-0.562,1.069-0.906,1.891-1.036,2.46l-0.036,0.077
		c-0.11,0.47-0.32,0.846-0.632,1.12c-0.309,0.271-0.953,0.409-1.93,0.409h-4.967c-1.376,0-2.598-0.012-3.661-0.037
		c-1.443,0-2.436,0-2.969,0C482.093,187.441,481.559,187.466,480.955,187.516z"/>
	<path fill="#FF5000" d="M506.319,168.274c-0.648-1.613-1.403-3.505-2.27-5.672l-0.565-1.37l-0.103-0.224
		c-0.352-0.958-0.728-1.729-1.111-2.311c-0.388-0.577-1.02-1.111-1.886-1.607l-0.099-0.518l0.965,0.11
		c1.581,0.148,2.677,0.224,3.297,0.224c0.783,0,2.112-0.063,4.002-0.186l0.229,0.479c-0.486,0.349-0.731,0.989-0.731,1.924
		c0,0.814,0.11,1.554,0.332,2.219c0.529,1.579,1.162,3.364,1.882,5.359c0.724,1.997,1.42,3.92,2.084,5.771
		c0.577,1.65,1.51,4.13,2.799,7.43l0.131,0.295c0.712-1.993,1.511-4.189,2.404-6.582c0.442-1.281,0.94-2.742,1.482-4.379
		c0.542-1.639,1.178-3.618,1.914-5.937c0.178-0.542,0.367-1.143,0.565-1.81c0.312-0.838,0.466-1.613,0.466-2.33
		c0-0.544-0.11-0.971-0.332-1.295c-0.221-0.316-0.648-0.554-1.269-0.702l0.237-0.591c1.708,0.197,3.017,0.294,3.926,0.294
		c0.451,0,1.19-0.035,2.234-0.108c0.89-0.075,1.593-0.125,2.104-0.146l-0.202,0.479c-0.735,0.346-1.364,0.888-1.901,1.629
		c-0.534,0.737-1.044,1.639-1.53,2.699c-0.515,1.229-1.028,2.534-1.534,3.898c-0.511,1.368-1.111,3.038-1.799,5.01
		c-0.356,1.035-0.625,1.787-0.795,2.255c-0.293,0.789-0.775,2.035-1.436,3.733c-0.712,1.801-1.38,3.544-2.017,5.232
		c-0.637,1.69-1.341,3.618-2.119,5.787c-0.04,0.099-0.154,0.207-0.332,0.334c-0.178,0.124-0.399,0.184-0.664,0.184
		c-0.27,0-0.499-0.071-0.696-0.222c-0.202-0.149-0.336-0.296-0.403-0.442c-0.355-1.034-0.803-2.25-1.337-3.642
		c-0.529-1.394-1.261-3.264-2.198-5.601c-0.51-1.26-0.909-2.258-1.193-2.995c-0.289-0.741-0.569-1.455-0.835-2.146
		C507.529,171.398,506.956,169.891,506.319,168.274z"/>
	<path fill="#FF5000" d="M551.133,157.766c1.807,0.814,3.333,1.938,4.578,3.369c1.246,1.436,2.19,3.092,2.831,4.966
		c0.645,1.881,0.965,3.893,0.965,6.038c0,2.2-0.367,4.272-1.11,6.21c-0.748,1.939-1.779,3.621-3.112,5.035
		c-1.336,1.423-2.887,2.522-4.649,3.3c-1.768,0.782-3.642,1.168-5.615,1.168c-1.98,0-3.851-0.409-5.614-1.224
		c-1.771-0.813-3.317-1.953-4.649-3.406c-1.329-1.459-2.369-3.138-3.112-5.039c-0.747-1.902-1.119-3.893-1.119-5.967
		s0.372-4.063,1.119-5.967c0.743-1.901,1.783-3.586,3.112-5.057c1.332-1.467,2.878-2.612,4.649-3.427
		c1.764-0.816,3.634-1.22,5.614-1.22C547.282,156.546,549.322,156.949,551.133,157.766z M541.137,159.62
		c-1.186,0.592-2.218,1.438-3.1,2.537c-0.878,1.099-1.554,2.424-2.032,3.964c-0.479,1.542-0.716,3.256-0.716,5.13
		c0,1.88,0.241,3.693,0.728,5.429c0.494,1.742,1.179,3.29,2.072,4.65c0.89,1.359,1.926,2.423,3.119,3.187
		c1.183,0.765,2.452,1.148,3.812,1.148c1.42,0,2.736-0.278,3.946-0.834s2.266-1.362,3.179-2.426c0.914-1.063,1.613-2.349,2.12-3.854
		c0.498-1.504,0.751-3.188,0.751-5.037c0-2.323-0.253-4.404-0.751-6.247c-0.507-1.839-1.206-3.395-2.12-4.666
		c-0.913-1.273-1.969-2.235-3.179-2.889c-1.21-0.658-2.526-0.986-3.946-0.986C543.621,158.727,542.328,159.028,541.137,159.62z"/>
	<path fill="#FF5000" d="M564.011,187.8l-0.035-0.634c0.269-0.148,0.533-0.388,0.798-0.71c0.27-0.326,0.519-0.714,0.752-1.163
		c0.233-0.448,0.419-0.909,0.565-1.382c0.142-0.478,0.217-0.901,0.217-1.272c0.044-1.896,0.063-3.466,0.063-4.701
		c0-1.234,0-2.985,0-5.255c0-1.898-0.02-3.832-0.063-5.805c-0.043-1.971-0.114-3.879-0.201-5.728
		c-0.044-0.921-0.193-1.726-0.451-2.416c-0.257-0.682-0.751-1.301-1.475-1.852v-0.451c1.04,0.101,1.858,0.178,2.459,0.228
		c0.598,0.051,1.175,0.075,1.732,0.075c0.442,0,1.17-0.036,2.167-0.113c0.869-0.075,1.526-0.124,1.965-0.148v0.447
		c-0.597,0.35-1.032,0.917-1.301,1.704c-0.265,0.785-0.436,1.665-0.498,2.642c-0.063,0.944-0.107,1.934-0.115,2.953
		c-0.012,1.028-0.02,2.321-0.02,3.895v4.454c0,1.771,0.023,3.361,0.071,4.772c0.039,1.408,0.11,3.163,0.197,5.261
		c0.067,1.248,0.451,2.098,1.146,2.564c0.7,0.463,1.661,0.691,2.883,0.691c0.822,0,1.657-0.138,2.499-0.415
		c0.846-0.271,1.586-0.695,2.234-1.267c0.379-0.326,0.846-0.977,1.399-1.951c0.332-0.574,0.617-1.003,0.85-1.291
		c0.233-0.289,0.49-0.43,0.787-0.43c0.352,0,0.585,0.075,0.696,0.222c0.11,0.15,0.17,0.301,0.17,0.451
		c0,0.201-0.056,0.462-0.154,0.788c-0.099,0.324-0.272,0.781-0.519,1.384c-0.442,1.123-0.731,1.962-0.861,2.509
		c-0.091,0.374-0.285,0.733-0.581,1.084c-0.305,0.354-0.743,0.537-1.321,0.562c-0.087,0-0.525,0.025-1.301,0.077
		c-1.328,0.099-2.328,0.15-2.997,0.15c-0.778,0-1.447-0.019-2.017-0.038c-0.562-0.023-1.285-0.063-2.146-0.112
		c-1.337-0.077-2.389-0.113-3.167-0.113C567.641,187.466,566.163,187.579,564.011,187.8z"/>
	<path fill="#FF5000" d="M589.969,187.516c-0.609,0.05-1.428,0.139-2.448,0.259c-0.106,0-0.288,0.018-0.537,0.038v-0.821
		c0.272-0.174,0.541-0.419,0.818-0.728c0.28-0.313,0.542-0.676,0.783-1.101c0.537-0.924,0.811-1.766,0.834-2.54
		c0.043-1.895,0.067-3.456,0.067-4.686c0-1.234,0-2.985,0-5.247c0-1.896-0.024-3.823-0.067-5.787
		c-0.044-1.971-0.115-3.873-0.202-5.717c-0.043-0.82-0.265-1.574-0.664-2.26c-0.399-0.685-1.016-1.262-1.87-1.732l-0.095-0.636
		l0.534,0.033c1.288,0.148,2.364,0.265,3.226,0.34c0.866,0.073,1.538,0.111,2.001,0.111c0.355,0,0.842-0.013,1.455-0.038
		c0.609-0.025,1.349-0.063,2.214-0.112c0.42-0.026,0.744-0.05,0.965-0.075c1.646-0.123,2.808-0.187,3.499-0.187
		c0.487,0,0.918,0.011,1.293,0.019c0.384,0.01,0.775,0.051,1.175,0.112c0.399,0.065,0.731,0.162,0.996,0.299
		c0.27,0.134,0.399,0.318,0.399,0.543c0,0.619,0.056,1.317,0.17,2.09c0.063,0.573,0.096,1.022,0.096,1.343
		c0,0.075-0.067,0.178-0.214,0.301c-0.143,0.126-0.348,0.188-0.617,0.188c-0.332,0-0.569-0.075-0.72-0.226
		c-0.142-0.148-0.265-0.361-0.379-0.633c-0.067-0.126-0.115-0.201-0.131-0.228c-0.359-0.597-0.905-1.056-1.641-1.382
		c-0.731-0.322-1.874-0.482-3.429-0.482c-0.466,0-1.265,0.05-2.399,0.146l-1.067,0.115c-0.06,0.272-0.111,0.809-0.131,1.603
		c-0.02,0.326-0.048,0.613-0.063,0.86c-0.095,1.394-0.134,3.61-0.134,6.646v2.653c1.597,0.048,2.764,0.073,3.499,0.073
		c0.664,0,1.162-0.012,1.498-0.038c0.712-0.023,1.305-0.168,1.779-0.427c0.479-0.263,0.973-0.83,1.483-1.702h1.403
		c-0.027,0.352-0.056,0.735-0.103,1.16c-0.091,0.819-0.131,1.542-0.131,2.167c0,0.67,0,1.137,0,1.397c0,0.262,0.02,0.791,0.063,1.59
		h-1.428c-0.34-0.724-0.782-1.218-1.336-1.494c-0.558-0.275-1.222-0.451-2.005-0.524c-0.996-0.099-2.574-0.15-4.725-0.15
		c0,1.744,0.02,3.319,0.066,4.726c0.04,1.405,0.111,3.146,0.202,5.209c0.016,0.623,0.189,1.141,0.51,1.552
		c0.324,0.411,0.735,0.726,1.238,0.951c0.494,0.226,1.023,0.374,1.577,0.446c0.558,0.073,1.158,0.113,1.803,0.113
		c0.953,0,1.74-0.073,2.364-0.226c0.621-0.148,1.234-0.496,1.835-1.044c0.324-0.296,0.799-0.844,1.396-1.643
		c0.443-0.573,0.803-0.994,1.068-1.271c0.269-0.274,0.533-0.409,0.798-0.409c0.27,0,0.486,0.067,0.669,0.204
		c0.174,0.138,0.265,0.245,0.265,0.32c0,0.296-0.229,0.909-0.696,1.828c-0.558,1.069-0.901,1.895-1.035,2.464l-0.032,0.075
		c-0.114,0.472-0.324,0.848-0.633,1.122c-0.312,0.271-0.956,0.409-1.934,0.409h-4.958c-1.384,0-2.605-0.012-3.669-0.037
		c-1.443,0-2.432,0-2.97,0C591.108,187.441,590.578,187.466,589.969,187.516z"/>
	<path fill="#FF5000" d="M620.707,187.698c-1.222,0.052-2.316,0.083-3.293,0.095c-0.984,0.008-2.566,0.019-4.765,0.019
		c-0.028,0-0.048,0-0.071,0c-0.135,0.023-0.245,0.035-0.332,0.035c-0.245,0-0.447-0.046-0.617-0.133
		c-0.166-0.085-0.249-0.255-0.249-0.506c0-0.045,0.139-0.267,0.419-0.652c0.277-0.388,1.001-1.392,2.183-3.015
		c1.546-2.123,2.769-3.788,3.646-4.998c0.878-1.212,1.974-2.716,3.282-4.518c1.309-1.795,2.858-3.932,4.646-6.401
		c1.787-2.475,3.887-5.381,6.279-8.727c-0.664-0.053-1.329-0.077-1.997-0.077c-0.664,0-1.502,0-2.499,0h-2.096
		c-2.313,0-4.187,0.107-5.634,0.318c-1.447,0.214-2.543,0.532-3.298,0.953c-0.313,0.204-0.55,0.429-0.716,0.677
		c-0.17,0.251-0.316,0.561-0.45,0.938c-0.131,0.346-0.258,0.599-0.384,0.747c-0.119,0.148-0.305,0.226-0.55,0.226
		c-0.284,0-0.514-0.12-0.68-0.357c-0.17-0.237-0.253-0.415-0.253-0.542c0-0.35,0.055-0.899,0.166-1.648
		c0.134-0.999,0.205-1.798,0.205-2.398c0-0.374,0.139-0.658,0.431-0.858c0.289-0.201,0.843-0.302,1.661-0.302
		c0.648,0,1.285,0.006,1.918,0.018c0.632,0.016,1.941,0.045,3.918,0.095c1.266,0.025,2.242,0.044,2.93,0.056
		c0.692,0.014,1.266,0.021,1.732,0.021c0.645,0,2.578,0.014,5.796,0.035c3.606,0.05,5.445,0.077,5.536,0.077
		c0.308,0,0.554,0.06,0.731,0.187c0.174,0.122,0.265,0.249,0.265,0.373c0,0.052-0.048,0.164-0.135,0.338l-0.031,0.073
		l-19.825,26.969l-0.035,0.074c-0.021,0.05-0.032,0.125-0.032,0.228c0,0.2,0.174,0.334,0.515,0.409
		c0.348,0.075,0.973,0.111,1.886,0.111c0.376,0,1.123-0.012,2.229-0.036l0.902-0.037c0.134,0,0.312-0.014,0.529-0.038
		c0.934-0.023,1.882-0.069,2.835-0.132c0.961-0.062,1.985-0.158,3.08-0.299c1.1-0.137,2.136-0.338,3.1-0.599
		c0.965-0.264,1.692-0.582,2.183-0.955c0.38-0.275,0.835-0.712,1.368-1.311c0.332-0.376,0.598-0.643,0.799-0.807
		c0.202-0.158,0.419-0.245,0.664-0.245c0.293,0,0.515,0.071,0.685,0.209c0.17,0.137,0.249,0.243,0.249,0.316
		c0,0.273-0.241,0.824-0.731,1.646c-0.313,0.503-0.558,0.939-0.747,1.313c-0.194,0.375-0.328,0.763-0.42,1.16
		c-0.039,0.174-0.114,0.37-0.213,0.581c-0.106,0.214-0.261,0.432-0.482,0.656c-0.226,0.224-0.522,0.411-0.886,0.56
		c-0.368,0.148-0.807,0.226-1.316,0.226c-0.399,0-2.144-0.035-5.231-0.11c-0.51-0.028-1.424-0.052-2.732-0.075
		c-1.309-0.028-2.179-0.04-2.598-0.04C623.13,187.649,621.972,187.672,620.707,187.698z"/>
	<path fill="#FF5000" d="M652.599,187.66c-1.222,0.047-2.32,0.081-3.301,0.093c-0.981,0.012-2.566,0.016-4.761,0.016
		c-0.028,0-0.044,0-0.075,0c-0.127,0.025-0.241,0.042-0.328,0.042c-0.245,0-0.447-0.046-0.617-0.133
		c-0.162-0.087-0.253-0.257-0.253-0.506c0-0.052,0.146-0.27,0.423-0.654c0.273-0.384,1.005-1.393,2.183-3.014
		c1.554-2.117,2.768-3.783,3.649-4.993c0.874-1.21,1.966-2.715,3.278-4.512c1.309-1.795,2.858-3.929,4.646-6.396
		c1.791-2.472,3.883-5.377,6.283-8.721c-0.664-0.047-1.333-0.073-2.001-0.073c-0.664,0-1.498,0-2.495,0h-2.104
		c-2.309,0-4.187,0.105-5.63,0.318c-1.439,0.212-2.543,0.53-3.298,0.953c-0.313,0.2-0.546,0.423-0.712,0.674
		c-0.166,0.249-0.316,0.562-0.45,0.936c-0.135,0.354-0.266,0.597-0.384,0.747c-0.123,0.15-0.309,0.226-0.554,0.226
		c-0.289,0-0.518-0.119-0.684-0.354c-0.166-0.239-0.245-0.42-0.245-0.546c0-0.35,0.055-0.897,0.162-1.645
		c0.134-0.999,0.201-1.798,0.201-2.396c0-0.376,0.146-0.66,0.435-0.86c0.285-0.197,0.843-0.298,1.669-0.298
		c0.641,0,1.281,0.006,1.91,0.02c0.636,0.008,1.938,0.041,3.914,0.093c1.266,0.023,2.242,0.044,2.934,0.058
		c0.692,0.012,1.27,0.014,1.732,0.014c0.648,0,2.577,0.014,5.796,0.041c3.603,0.05,5.44,0.073,5.54,0.073
		c0.304,0,0.545,0.063,0.728,0.19c0.174,0.122,0.265,0.245,0.265,0.373c0,0.046-0.04,0.162-0.135,0.334l-0.027,0.077l-19.829,26.94
		l-0.031,0.077c-0.021,0.048-0.028,0.123-0.028,0.224c0,0.199,0.166,0.338,0.511,0.411c0.348,0.075,0.969,0.11,1.882,0.11
		c0.38,0,1.123-0.012,2.229-0.035l0.906-0.036c0.126,0,0.304-0.014,0.529-0.039c0.934-0.025,1.874-0.069,2.835-0.133
		c0.953-0.059,1.978-0.162,3.08-0.298c1.104-0.135,2.127-0.337,3.1-0.6c0.965-0.259,1.692-0.581,2.179-0.955
		c0.376-0.272,0.835-0.709,1.368-1.305c0.332-0.379,0.598-0.645,0.803-0.809c0.194-0.162,0.419-0.243,0.664-0.243
		c0.285,0,0.515,0.071,0.685,0.206c0.162,0.139,0.249,0.245,0.249,0.32c0,0.272-0.249,0.82-0.735,1.645
		c-0.309,0.5-0.558,0.938-0.747,1.311c-0.19,0.372-0.333,0.762-0.42,1.161c-0.043,0.172-0.114,0.363-0.213,0.575
		c-0.103,0.217-0.265,0.433-0.486,0.658c-0.222,0.224-0.515,0.413-0.882,0.558c-0.368,0.154-0.803,0.229-1.316,0.229
		c-0.399,0-2.14-0.042-5.235-0.113c-0.506-0.025-1.416-0.049-2.729-0.075c-1.313-0.023-2.175-0.041-2.602-0.041
		C655.019,187.611,653.865,187.632,652.599,187.66z"/>
	<path fill="#FF5000" d="M699.564,183.519c0.337,0.971,0.74,1.749,1.219,2.349c0.479,0.593,1.071,1.067,1.783,1.413v0.595
		c-0.914-0.174-1.709-0.296-2.385-0.371c-0.684-0.077-1.305-0.111-1.878-0.111c-0.692,0-1.384,0.03-2.072,0.092
		c-0.684,0.064-1.521,0.184-2.499,0.354v-0.52c0-0.173,0.15-0.473,0.436-0.893c0.419-0.622,0.633-1.116,0.633-1.49
		c0-0.249-0.028-0.516-0.087-0.805c-0.052-0.282-0.104-0.475-0.143-0.575l-2.566-7.823c-1.403-0.122-2.649-0.184-3.736-0.184
		c-1.53,0-2.843,0.062-3.931,0.184l-2.934,8.495v0.034c-0.154,0.399-0.249,0.705-0.297,0.913c-0.043,0.212-0.066,0.455-0.066,0.728
		c0,0.571,0.197,1.065,0.597,1.49v0.445c-0.755-0.125-1.388-0.21-1.894-0.259c-0.519-0.05-0.993-0.075-1.439-0.075
		c-0.51,0-1.044,0.025-1.598,0.075c-0.554,0.049-1.281,0.15-2.163,0.296l0.432-0.595c0.818-0.32,1.526-0.793,2.115-1.413
		c0.585-0.623,1.083-1.47,1.482-2.533l7.932-21.531c0.048-0.097,0.067-0.271,0.067-0.523c0-0.739-0.229-1.482-0.684-2.213
		c-0.455-0.731-1.061-1.396-1.815-1.992l-0.134-0.449c1.708,0.179,3.262,0.262,4.665,0.262h1.428l1.605,4.434L699.564,183.519z
		 M691.265,173.723v-0.111l-2.926-8.642l-3.136,8.642v0.111c1.333,0.051,2.333,0.072,2.997,0.072S689.889,173.774,691.265,173.723z"
		/>
	<path fill="#FF5000" d="M266.102,187.684c-0.611,0.039-1.384,0.108-2.315,0.206v-0.526c0.599-0.35,1.068-0.793,1.398-1.332
		c0.334-0.538,0.51-1.206,0.536-2.009c0.042-2.505,0.063-6.247,0.063-11.233c0-1.901-0.022-3.843-0.063-5.82
		c-0.047-1.98-0.113-3.895-0.202-5.747c-0.047-0.927-0.192-1.737-0.435-2.422c-0.243-0.691-0.731-1.313-1.463-1.862v-0.448
		c1.019,0.099,1.833,0.172,2.436,0.223c0.595,0.05,1.174,0.077,1.728,0.077c0.419,0,1.135-0.041,2.133-0.112
		c0.868-0.075,1.542-0.127,2.032-0.152v0.449c-0.623,0.352-1.065,0.921-1.334,1.71c-0.265,0.787-0.429,1.674-0.498,2.648
		c-0.063,0.953-0.107,1.943-0.117,2.97c-0.012,1.026-0.016,2.329-0.016,3.906v4.469c0,3.457,0.087,7.162,0.267,11.12
		c0.065,1.702,0.722,2.891,1.965,3.566v0.526c-1.044-0.098-1.884-0.167-2.519-0.206c-0.632-0.035-1.249-0.056-1.844-0.056
		C267.296,187.628,266.713,187.649,266.102,187.684z"/>
</g>
<g>
	<g opacity="0.9">
		<path fill="#FFFFFF" d="M73.238,110.718c-1.428-1.599-3.496-2.611-5.813-2.611H47.986c-4.308,0-7.801,3.497-7.801,7.803v111.606
			c0,4.251,3.395,7.698,7.621,7.795c0.062,0.004,15.907,0.004,15.97,0c4.225-0.097,7.623-3.544,7.623-7.795v-51.184
			c0-4.31,3.498-7.804,7.797-7.804c2.521,0,4.754,1.196,6.184,3.047l31.175,43.505v-43.36
			C116.556,171.72,73.651,111.179,73.238,110.718z"/>
		<path fill="#FFFFFF" d="M191.876,228.994l-83.654-117.586c-1.412-1.999-3.742-3.302-6.37-3.302H82.257
			c-2.139,0-3.869,1.735-3.869,3.875c0,0.828,0.257,1.6,0.702,2.228l83.509,117.471c1.408,2.021,3.752,3.351,6.406,3.351h19.653
			c2.135,0,3.875-1.736,3.875-3.875C192.533,230.357,192.29,229.612,191.876,228.994z"/>
	</g>
	<path fill="#FFFFFF" d="M198.203,232.699c1.431,1.602,3.503,2.611,5.813,2.611h19.443c4.314,0,7.805-3.493,7.805-7.803V115.904
		c0-4.248-3.396-7.7-7.623-7.793c-0.06-0.004-15.911-0.004-15.968,0c-4.227,0.093-7.623,3.545-7.623,7.793v51.185
		c0,4.31-3.496,7.801-7.805,7.801c-2.519,0-4.755-1.192-6.178-3.045l-31.637-44.23v43.361
		C154.429,170.975,197.793,232.24,198.203,232.699z"/>
	<path fill="#FFFFFF" d="M154.429,234.22c0,0-23.864,0-23.991-0.002c-3.592-0.081-6.53-3.084-6.53-6.688v-45.314l-1.105-1.567
		v46.882c0,4.251,3.398,7.7,7.624,7.798c0.055,0.002,24.002,0,24.002,0V234.22z"/>
	<path fill="#FFFFFF" d="M141.4,109.222c0,0-10.836,0-10.962,0c-3.592,0.083-6.53,3.084-6.53,6.686v12.271l-1.105-1.554v-10.718
		c0-4.244,3.398-7.696,7.624-7.791c0.055,0,8.469,0,10.229,0L141.4,109.222z"/>
</g>
<linearGradient id="SVGID_1_" gradientUnits="userSpaceOnUse" x1="116.5557" y1="171.7258" x2="40.1851" y2="171.7258">
	<stop  offset="0" style="stop-color:#E8510E"/>
	<stop  offset="0.1108" style="stop-color:#E7470F"/>
	<stop  offset="0.3026" style="stop-color:#E52A11"/>
	<stop  offset="0.5048" style="stop-color:#E20613"/>
</linearGradient>
<path fill="url(#SVGID_1_)" d="M73.238,110.734c-1.428-1.599-3.496-2.611-5.813-2.611H47.986c-4.308,0-7.801,3.497-7.801,7.806
	v111.605c0,4.247,3.395,7.696,7.621,7.796c0.062,0,15.907,0,15.97,0c4.225-0.1,7.623-3.549,7.623-7.796v-51.186
	c0-4.31,3.498-7.805,7.797-7.805c2.521,0,4.754,1.197,6.184,3.048l31.175,43.504v-43.359
	C116.556,171.736,73.651,111.193,73.238,110.734z"/>
<path fill="#FF5000" d="M191.876,229.011l-83.654-117.587c-1.412-1.999-3.742-3.302-6.37-3.302H82.257
	c-2.139,0-3.869,1.734-3.869,3.875c0,0.826,0.257,1.6,0.702,2.227l83.509,117.47c1.408,2.024,3.752,3.351,6.406,3.351h19.653
	c2.135,0,3.875-1.733,3.875-3.875C192.533,230.37,192.29,229.625,191.876,229.011z"/>
<linearGradient id="SVGID_2_" gradientUnits="userSpaceOnUse" x1="154.4287" y1="171.7268" x2="231.2637" y2="171.7268">
	<stop  offset="0" style="stop-color:#E8510E"/>
	<stop  offset="0.1108" style="stop-color:#E7470F"/>
	<stop  offset="0.3026" style="stop-color:#E52A11"/>
	<stop  offset="0.5048" style="stop-color:#E20613"/>
</linearGradient>
<path fill="url(#SVGID_2_)" d="M198.203,232.713c1.431,1.604,3.503,2.616,5.813,2.616h19.443c4.314,0,7.805-3.498,7.805-7.806
	V115.917c0-4.248-3.396-7.7-7.623-7.791c-0.06-0.004-15.911-0.004-15.968,0c-4.227,0.091-7.623,3.543-7.623,7.791v51.187
	c0,4.31-3.496,7.801-7.805,7.801c-2.519,0-4.755-1.194-6.178-3.047l-31.637-44.229v43.359
	C154.429,170.989,197.793,232.257,198.203,232.713z"/>
<path fill="#FF5000" d="M154.429,234.236c0,0-23.864,0-23.991-0.004c-3.592-0.079-6.53-3.082-6.53-6.687v-45.313l-1.105-1.57v46.884
	c0,4.249,3.398,7.701,7.624,7.796c0.055,0.002,24.002,0,24.002,0V234.236z"/>
<path fill="#FF5000" d="M141.4,109.238c0,0-10.836,0-10.962,0c-3.592,0.083-6.53,3.082-6.53,6.687v12.271l-1.105-1.554v-10.717
	c0-4.247,3.398-7.697,7.624-7.792c0.055,0,8.469,0,10.229,0L141.4,109.238z"/>
</svg>
